<svg width="506" height="307" viewBox="0 0 506 307" fill="none" xmlns="http://www.w3.org/2000/svg">
<path d="M457.562 46.3664C459.083 44.0512 460.461 38.9374 460.266 34.1429C460.042 28.614 457.094 20.7422 456.154 14.7421C455.885 13.0193 453.398 11.5837 450.725 10.3237C446.403 8.28554 441.336 11.6503 437.506 13.1442C433.261 14.7995 428.609 18.3093 426.177 20.7223C423.699 23.1812 419.096 28.7027 417.708 34.3504C416.41 39.6341 419.008 44.0472 419.388 48.3077C419.783 52.7356 421.95 56.3351 423.143 60.6239C424.392 65.1165 426.449 70.3073 428.46 75.1338C429.924 79.2699 430.947 82.2854 431.961 83.7829C432.434 84.5945 432.823 85.5111 434.163 88.0742" stroke="#A6300A" stroke-width="2" stroke-linecap="round"/>
<path d="M460.82 47.5053C462.038 45.6518 465.411 42.5303 469.385 40.2997C472.714 38.4315 475.821 36.3511 480.56 34.4577C485.792 32.3672 489.964 34.6085 493.5 36.1007C497.234 37.6765 498.992 41.2011 500.349 46.2537C501.389 50.1262 498.701 53.3482 497.214 56.3816C494.987 60.9227 490.443 65.9477 486.735 67.522C482.879 69.1585 478.474 69.44 473.026 70.3619C468.154 71.1865 463.866 71.8588 460.657 73.4205C457.104 75.1494 453.373 76.6412 449.665 78.2154C445.957 79.7897 442.724 81.6613 440.53 84.2306C439.953 84.8577 439.267 85.3985 438.571 85.9475C437.874 86.4965 437.189 87.0373 435.783 87.1349" stroke="#A6300A" stroke-width="2" stroke-linecap="round"/>
<path d="M441.817 73.4929C443.361 74.1767 448.135 73.9986 452.352 71.923C458.709 68.7949 463.113 66.475 466.659 64.6291C470.65 62.5516 477.412 58.8863 482.51 56.0121C482.902 55.7911 481.795 55.3565 480.75 55.6664C474.949 57.3868 466.634 62.7002 461.664 65.6536C460.696 66.229 459.362 66.6347 459.494 66.4109C462.023 62.1249 467.952 62.645 480.121 58.3227C485.81 56.3018 488.805 54.3046 490.147 53.0235C490.863 52.3404 491.411 51.36 491.261 50.581C491.112 49.802 490.189 49.1954 488.948 49.0412C482.688 48.263 476.448 52.8248 472.544 54.9412C469.837 56.4085 467.019 56.9942 465.626 57.0859C464.249 57.1766 466.654 52.4584 469.526 48.8424C472.884 44.6142 479.22 46.0141 483.891 44.2408C485.021 43.8117 485.935 43.4159 485.988 43.6012C486.895 46.7439 481.353 48.3769 479.006 50.6849C478.856 50.8323 479.257 50.0437 478.957 49.997C475.108 49.3967 470.413 52.8651 464.776 55.3401C460.05 57.4149 457.291 59.6056 453.936 61.412C450.555 63.2326 448.122 65.939 446.962 66.6838C444.66 68.1612 452.643 63.6015 457.305 60.8265C461.675 58.2259 464.902 56.6346 466.871 55.4202C469.253 53.9514 459.238 59.2026 454.132 60.8698C448.891 62.581 445.655 65.6398 439.867 67.8501C438.552 68.3522 437.625 68.7158 436.883 68.5733C436.14 68.4309 435.599 67.7451 435.393 66.7785C434.465 62.4228 435.91 58.6156 439.611 52.7156C441.113 50.3218 443.041 49.2711 443.777 48.9133C446.676 47.5039 438.446 53.2318 434.327 55.6978C429.551 58.5575 427.111 59.8141 426.101 59.8266C422.205 59.875 431.301 53.9248 435.337 50.0677C439.629 45.9665 442.371 43.1728 444.537 40.9055C444.811 40.6187 443.624 40.2907 442.54 40.4093C437.875 40.9198 434.603 44.3575 429.699 46.9889C427.871 47.9702 433.713 43.1517 437.538 38.3443C442.538 32.0597 444.286 26.0543 444.081 24.0871C443.979 23.1012 443.494 22.1992 442.951 21.9974C437.131 19.8358 426.781 29.8643 424.016 31.748C421.264 33.6225 430.115 25.7659 432.612 23.2306C435.469 20.3292 437.568 17.9745 438.535 17.2635C442.808 14.1251 431.75 23.7957 426.975 26.4971C424.788 27.7349 423.423 29.3505 422.958 30.0512C420.889 33.1664 430.818 28.231 435.099 26.0367C437.502 24.8051 439.623 23.9916 440.474 23.7096C444.378 22.4166 435.747 31.4294 432.713 34.7738C430.497 37.2165 427.739 38.5257 427.008 39.3872C426.918 39.4932 427.259 38.2504 427.911 37.5021C430.496 34.5357 434.574 33.7028 438.084 32.1636C441.706 30.5751 444.77 30.378 445.4 30.9425C448.177 33.4284 441.349 37.1233 440.732 38.0548C440.513 38.3855 441.645 38.6697 442.614 38.4752C446.981 37.5987 450.363 35.0645 453.036 33.8013C457.042 31.9076 447.898 43.4191 443.895 46.4624C440.749 48.8548 437.758 53.761 435.534 57.6478C434.271 59.8566 441.211 55.0889 444.3 52.942C447.969 50.391 450.226 47.9835 451.503 47.816C454.943 47.3647 446.672 55.9531 444.09 59.1134C442.746 60.7588 441.13 62.3459 440.745 63.4349C439.584 66.719 448.88 59.1465 453.487 56.4798C456.76 54.5849 459.779 53.2588 460.98 53.2067C461.42 53.1875 460.888 54.6186 460.352 55.4428C458.301 58.5929 453.574 59.1662 449.722 61.4772C446.287 63.5381 443.099 65.9633 439.602 69.5034C438.133 70.9893 436.518 73.9369 436.079 75.3604C435.639 76.784 436.635 76.7774 437.797 76.5398C443.431 75.3885 448.065 72.6109 451.42 70.8046C454.666 69.0567 459.148 65.8933 463.21 63.5298C466.397 61.6753 473.234 58.1435 478.792 56.5732C482.635 55.4873 485.319 54.0168 486.595 53.8492C489.773 53.4322 482.831 60.3636 480.056 62.5514C476.801 65.1183 472.437 67.5548 468.729 69.1291C467.799 69.5241 466.882 69.9132 466.713 69.6521C464.971 66.9579 473.152 65.4005 476.789 63.4391C480.478 61.45 486.094 58.9026 490.207 56.2323C493.17 54.3083 495.211 52.1749 496.058 50.8937C496.339 50.4685 495.223 50.1599 494.33 50.239C489.126 50.6999 482.788 53.3257 478.079 54.9078C476.014 55.6011 473.821 55.7858 472.697 56.2239C468.768 57.7553 479.958 51.5061 484.427 49.2698C488.978 46.9925 491.049 43.7717 492.935 40.6648C493.3 40.063 492.209 39.5066 491.394 39.4668C487.629 39.2829 484.107 42.1745 480.025 45.3309C475.761 48.6284 471.619 49.9926 467.731 52.6103C463.541 55.4314 460.305 57.5799 457.253 59.9158C452.349 63.6689 447.819 66.4007 445.084 68.7797C442.012 71.4525 439.443 74.5766 436.175 78.2777C435.466 79.0805 434.29 78.8822 433.583 78.4273C432.875 77.9724 432.486 77.0558 433.044 75.4294C435.763 67.504 441.29 66.1564 444.522 63.2727C447.76 60.3835 449.836 58.7431 450.533 58.1941C452.679 56.5016 445.001 61.5447 441.149 63.8558C440.179 64.4382 439.224 64.7589 439.283 64.1515C439.791 58.8823 445.092 56.3165 450.558 49.2627C459.535 37.6781 463.351 29.5482 461.702 30.793C457.466 33.9906 451.883 35.3422 447.74 37.3116C443.625 39.2677 439.305 42.7801 436.748 43.6236C431.591 45.3245 443.644 35.6572 446.296 33.389C449.292 30.8271 452.179 28.2463 453.651 26.5245C456.189 23.5556 448.517 31.8084 442.68 35.1286C429.403 42.6806 424.02 44.7346 420.515 45.9767C408.705 50.1619 434.736 20.7604 434.168 22.3856C433.063 25.553 429.148 27.7547 425.561 29.9143C423.678 31.048 422.284 32.608 421.703 33.2328C419.031 36.1082 430.82 29.2338 435.339 27.1957C440.245 25.0715 443.944 23.4961 446.605 22.746C447.736 22.3125 448.422 21.7717 449.128 21.2145" stroke="#A6300A" stroke-width="2" stroke-linecap="round"/>
<path d="M423.996 203C423.996 260.438 364.898 307 291.996 307C219.094 307 159.996 260.438 159.996 203C159.996 145.562 225.602 140 298.504 140C371.405 140 423.996 145.562 423.996 203Z" fill="#EA7C7C"/>
<path d="M423.996 203C423.996 260.438 364.898 307 291.996 307C219.094 307 159.996 260.438 159.996 203C159.996 145.562 225.602 140 298.504 140C371.405 140 423.996 145.562 423.996 203Z" fill="#FF9822" fill-opacity="0.2"/>
<path d="M424.004 203.5C424.004 221.725 368.976 174 345.504 174C322.032 174 297.004 159.725 297.004 141.5C297.004 123.275 389.532 81 413.004 81C436.476 81 424.004 185.275 424.004 203.5Z" fill="#EE816A"/>
<path d="M160.312 203.5C160.312 221.725 215.34 174 238.812 174C262.285 174 287.312 159.725 287.312 141.5C287.312 123.275 194.785 81 171.312 81C147.84 81 160.312 185.275 160.312 203.5Z" fill="#EE816A"/>
<circle cx="230.504" cy="216.5" r="8.5" fill="black"/>
<circle cx="357.504" cy="216.5" r="8.5" fill="black"/>
<path d="M303.006 242.5C305.17 249.658 302.162 253.243 294.506 250.5C283.003 253.5 286.006 247.194 286.006 242.5C286.006 237.806 289.811 234 294.506 234C299.2 234 303.006 237.806 303.006 242.5Z" fill="black"/>
<ellipse cx="71.5" cy="69.5" rx="71.5" ry="50.5" fill="#D9D9D9"/>
<path d="M170.832 131.549C164.876 141.177 80.818 91.7649 62.5003 80.4337C44.1827 69.1025 34.1617 52.1113 40.1178 42.4828C46.0739 32.8543 65.7518 34.2346 84.0694 45.5658C102.387 56.897 176.788 121.92 170.832 131.549Z" fill="#D9D9D9"/>
<path d="M37.5795 57.2102V56.2727H44.125V57.2102H41.3807V65H40.3239V57.2102H37.5795ZM46.489 60.8239H48.364C49.131 60.8239 49.7177 61.0185 50.1239 61.4077C50.5302 61.7969 50.7333 62.2898 50.7333 62.8864C50.7333 63.2784 50.6424 63.6349 50.4606 63.956C50.2788 64.2741 50.0117 64.5284 49.6594 64.7188C49.3072 64.9062 48.8754 65 48.364 65H45.6197V58.4545H46.6254V64.0625H48.364C48.7617 64.0625 49.0884 63.9574 49.3441 63.7472C49.5998 63.5369 49.7276 63.267 49.7276 62.9375C49.7276 62.5909 49.5998 62.3082 49.3441 62.0895C49.0884 61.8707 48.7617 61.7614 48.364 61.7614H46.489V60.8239ZM51.7731 65V58.4545H52.7788V65H51.7731ZM60.6538 65.1364C60.0401 65.1364 59.5117 64.9915 59.0685 64.7017C58.6254 64.4119 58.2844 64.0128 58.0458 63.5043C57.8072 62.9957 57.6879 62.4148 57.6879 61.7614C57.6879 61.0966 57.81 60.5099 58.0543 60.0014C58.3015 59.4901 58.6452 59.0909 59.0856 58.804C59.5288 58.5142 60.0458 58.3693 60.6367 58.3693C61.0969 58.3693 61.5117 58.4545 61.881 58.625C62.2504 58.7955 62.5529 59.0341 62.7887 59.3409C63.0245 59.6477 63.1708 60.0057 63.2276 60.4148H62.2219C62.1452 60.1165 61.9748 59.8523 61.7106 59.6222C61.4492 59.3892 61.0969 59.2727 60.6538 59.2727C60.2617 59.2727 59.918 59.375 59.6225 59.5795C59.3299 59.7812 59.1012 60.0668 58.9364 60.4361C58.7745 60.8026 58.6935 61.233 58.6935 61.7273C58.6935 62.233 58.7731 62.6733 58.9322 63.0483C59.0941 63.4233 59.3214 63.7145 59.614 63.9219C59.9094 64.1293 60.256 64.233 60.6538 64.233C60.9151 64.233 61.1523 64.1875 61.3654 64.0966C61.5785 64.0057 61.7589 63.875 61.9066 63.7045C62.0543 63.5341 62.1594 63.3295 62.2219 63.0909H63.2276C63.1708 63.4773 63.0302 63.8253 62.8058 64.1349C62.5842 64.4418 62.2901 64.6861 61.9237 64.8679C61.56 65.0469 61.1367 65.1364 60.6538 65.1364ZM64.1183 65V64.0625H64.3569C64.5529 64.0625 64.7163 64.0241 64.8469 63.9474C64.9776 63.8679 65.0827 63.7301 65.1623 63.5341C65.2447 63.3352 65.3072 63.0597 65.3498 62.7074C65.3952 62.3523 65.4279 61.9006 65.4478 61.3523L65.5671 58.4545H69.9308V65H68.9251V59.392H66.5217L66.4194 61.7273C66.3967 62.2642 66.3484 62.7372 66.2745 63.1463C66.2035 63.5526 66.0941 63.8935 65.9464 64.169C65.8015 64.4446 65.6083 64.652 65.3668 64.7912C65.1254 64.9304 64.8228 65 64.4592 65H64.1183ZM72.1893 67.4545C72.0188 67.4545 71.8668 67.4403 71.7333 67.4119C71.5998 67.3864 71.5075 67.3608 71.4563 67.3352L71.712 66.4489C71.9563 66.5114 72.1722 66.5341 72.3597 66.517C72.5472 66.5 72.7134 66.4162 72.8583 66.2656C73.006 66.1179 73.141 65.8778 73.2631 65.5455L73.4506 65.0341L71.0302 58.4545H72.1211L73.9279 63.6705H73.9961L75.8029 58.4545H76.8938L74.1154 65.9545C73.9904 66.2926 73.8356 66.5724 73.6509 66.794C73.4663 67.0185 73.2518 67.1847 73.0075 67.2926C72.766 67.4006 72.4933 67.4545 72.1893 67.4545ZM83.0675 58.4545V65H82.0618V58.4545H83.0675ZM82.6754 61.5739V62.5114C82.4482 62.5966 82.2223 62.6719 81.9979 62.7372C81.7734 62.7997 81.5376 62.8494 81.2905 62.8864C81.0433 62.9205 80.772 62.9375 80.4766 62.9375C79.7351 62.9375 79.1399 62.7372 78.6911 62.3366C78.245 61.9361 78.022 61.3352 78.022 60.5341V58.4375H79.0277V60.5341C79.0277 60.8693 79.0916 61.1449 79.2195 61.3608C79.3473 61.5767 79.5206 61.7372 79.7393 61.8423C79.9581 61.9474 80.2038 62 80.4766 62C80.9027 62 81.2876 61.9616 81.6314 61.8849C81.978 61.8054 82.326 61.7017 82.6754 61.5739ZM86.8388 65.1534C86.424 65.1534 86.0476 65.0753 85.7095 64.919C85.3714 64.7599 85.103 64.5312 84.9041 64.233C84.7053 63.9318 84.6058 63.5682 84.6058 63.142C84.6058 62.767 84.6797 62.4631 84.8274 62.2301C84.9751 61.9943 85.1726 61.8097 85.4197 61.6761C85.6669 61.5426 85.9396 61.4432 86.2379 61.3778C86.5391 61.3097 86.8416 61.2557 87.1456 61.2159C87.5433 61.1648 87.8658 61.1264 88.1129 61.1009C88.3629 61.0724 88.5447 61.0256 88.6584 60.9602C88.7749 60.8949 88.8331 60.7812 88.8331 60.6193V60.5852C88.8331 60.1648 88.718 59.8381 88.4879 59.6051C88.2607 59.3722 87.9155 59.2557 87.4524 59.2557C86.9723 59.2557 86.5959 59.3608 86.3232 59.571C86.0504 59.7812 85.8587 60.0057 85.7479 60.2443L84.7933 59.9034C84.9638 59.5057 85.1911 59.196 85.4751 58.9744C85.7621 58.75 86.0746 58.5937 86.4126 58.5057C86.7536 58.4148 87.0888 58.3693 87.4183 58.3693C87.6286 58.3693 87.87 58.3949 88.1428 58.446C88.4183 58.4943 88.6839 58.5952 88.9396 58.7486C89.1982 58.902 89.4126 59.1335 89.5831 59.4432C89.7536 59.7528 89.8388 60.1676 89.8388 60.6875V65H88.8331V64.1136H88.782C88.7138 64.2557 88.6001 64.4077 88.4411 64.5696C88.282 64.7315 88.0703 64.8693 87.8061 64.983C87.5419 65.0966 87.2195 65.1534 86.8388 65.1534ZM86.9922 64.25C87.3899 64.25 87.7251 64.1719 87.9979 64.0156C88.2734 63.8594 88.4808 63.6577 88.62 63.4105C88.7621 63.1634 88.8331 62.9034 88.8331 62.6307V61.7102C88.7905 61.7614 88.6967 61.8082 88.5518 61.8509C88.4098 61.8906 88.245 61.9261 88.0575 61.9574C87.8729 61.9858 87.6925 62.0114 87.5163 62.0341C87.343 62.054 87.2024 62.071 87.0945 62.0852C86.8331 62.1193 86.5888 62.1747 86.3615 62.2514C86.1371 62.3253 85.9553 62.4375 85.8161 62.5881C85.6797 62.7358 85.6115 62.9375 85.6115 63.1932C85.6115 63.5426 85.7408 63.8068 85.9993 63.9858C86.2607 64.1619 86.5916 64.25 86.9922 64.25ZM94.4187 65.1364C93.788 65.1364 93.244 64.9972 92.7866 64.7188C92.332 64.4375 91.9812 64.0455 91.734 63.5426C91.4897 63.0369 91.3675 62.4489 91.3675 61.7784C91.3675 61.108 91.4897 60.517 91.734 60.0057C91.9812 59.4915 92.3249 59.0909 92.7653 58.804C93.2085 58.5142 93.7255 58.3693 94.3164 58.3693C94.6573 58.3693 94.994 58.4261 95.3263 58.5398C95.6587 58.6534 95.9613 58.8381 96.234 59.0938C96.5067 59.3466 96.7241 59.6818 96.886 60.0994C97.0479 60.517 97.1289 61.0312 97.1289 61.642V62.0682H92.0835V61.1989H96.1062C96.1062 60.8295 96.0323 60.5 95.8846 60.2102C95.7397 59.9205 95.5323 59.6918 95.2624 59.5241C94.9954 59.3565 94.68 59.2727 94.3164 59.2727C93.9158 59.2727 93.5692 59.3722 93.2766 59.571C92.9869 59.767 92.7638 60.0227 92.6076 60.3381C92.4513 60.6534 92.3732 60.9915 92.3732 61.3523V61.9318C92.3732 62.4261 92.4585 62.8452 92.6289 63.1889C92.8022 63.5298 93.0423 63.7898 93.3491 63.9688C93.6559 64.1449 94.0124 64.233 94.4187 64.233C94.6829 64.233 94.9215 64.196 95.1346 64.1222C95.3505 64.0455 95.5366 63.9318 95.6928 63.7812C95.8491 63.6278 95.9698 63.4375 96.055 63.2102L97.0266 63.483C96.9244 63.8125 96.7525 64.1023 96.511 64.3523C96.2695 64.5994 95.9712 64.7926 95.6161 64.9318C95.261 65.0682 94.8619 65.1364 94.4187 65.1364ZM102.238 63.6364L104.522 58.4545H105.477L102.647 65H101.829L99.0508 58.4545H99.9883L102.238 63.6364ZM99.6644 58.4545V65H98.6587V58.4545H99.6644ZM104.812 65V58.4545H105.818V65H104.812ZM42.3011 76.267V77.2045H38.6875V76.267H42.3011ZM38.9261 73.4545V80H37.9205V73.4545H38.9261ZM43.0682 73.4545V80H42.0625V73.4545H43.0682ZM47.6491 80.1364C47.0185 80.1364 46.4744 79.9972 46.017 79.7188C45.5625 79.4375 45.2116 79.0455 44.9645 78.5426C44.7202 78.0369 44.598 77.4489 44.598 76.7784C44.598 76.108 44.7202 75.517 44.9645 75.0057C45.2116 74.4915 45.5554 74.0909 45.9957 73.804C46.4389 73.5142 46.956 73.3693 47.5469 73.3693C47.8878 73.3693 48.2244 73.4261 48.5568 73.5398C48.8892 73.6534 49.1918 73.8381 49.4645 74.0938C49.7372 74.3466 49.9545 74.6818 50.1165 75.0994C50.2784 75.517 50.3594 76.0312 50.3594 76.642V77.0682H45.3139V76.1989H49.3366C49.3366 75.8295 49.2628 75.5 49.1151 75.2102C48.9702 74.9205 48.7628 74.6918 48.4929 74.5241C48.2259 74.3565 47.9105 74.2727 47.5469 74.2727C47.1463 74.2727 46.7997 74.3722 46.5071 74.571C46.2173 74.767 45.9943 75.0227 45.8381 75.3381C45.6818 75.6534 45.6037 75.9915 45.6037 76.3523V76.9318C45.6037 77.4261 45.6889 77.8452 45.8594 78.1889C46.0327 78.5298 46.2727 78.7898 46.5795 78.9688C46.8864 79.1449 47.2429 79.233 47.6491 79.233C47.9134 79.233 48.152 79.196 48.3651 79.1222C48.581 79.0455 48.767 78.9318 48.9233 78.7812C49.0795 78.6278 49.2003 78.4375 49.2855 78.2102L50.2571 78.483C50.1548 78.8125 49.983 79.1023 49.7415 79.3523C49.5 79.5994 49.2017 79.7926 48.8466 79.9318C48.4915 80.0682 48.0923 80.1364 47.6491 80.1364ZM57.9233 80.1364C57.3324 80.1364 56.8139 79.9957 56.3679 79.7145C55.9247 79.4332 55.5781 79.0398 55.3281 78.5341C55.081 78.0284 54.9574 77.4375 54.9574 76.7614C54.9574 76.0795 55.081 75.4844 55.3281 74.9759C55.5781 74.4673 55.9247 74.0724 56.3679 73.7912C56.8139 73.5099 57.3324 73.3693 57.9233 73.3693C58.5142 73.3693 59.0313 73.5099 59.4744 73.7912C59.9205 74.0724 60.267 74.4673 60.5142 74.9759C60.7642 75.4844 60.8892 76.0795 60.8892 76.7614C60.8892 77.4375 60.7642 78.0284 60.5142 78.5341C60.267 79.0398 59.9205 79.4332 59.4744 79.7145C59.0313 79.9957 58.5142 80.1364 57.9233 80.1364ZM57.9233 79.233C58.3722 79.233 58.7415 79.1179 59.0312 78.8878C59.321 78.6577 59.5355 78.3551 59.6747 77.9801C59.8139 77.6051 59.8835 77.1989 59.8835 76.7614C59.8835 76.3239 59.8139 75.9162 59.6747 75.5384C59.5355 75.1605 59.321 74.8551 59.0312 74.6222C58.7415 74.3892 58.3722 74.2727 57.9233 74.2727C57.4744 74.2727 57.1051 74.3892 56.8153 74.6222C56.5256 74.8551 56.3111 75.1605 56.1719 75.5384C56.0327 75.9162 55.9631 76.3239 55.9631 76.7614C55.9631 77.1989 56.0327 77.6051 56.1719 77.9801C56.3111 78.3551 56.5256 78.6577 56.8153 78.8878C57.1051 79.1179 57.4744 79.233 57.9233 79.233ZM62.9048 73.4545L64.473 76.1307L66.0412 73.4545H67.2003L65.0866 76.7273L67.2003 80H66.0412L64.473 77.4602L62.9048 80H61.7457L63.8253 76.7273L61.7457 73.4545H62.9048ZM69.283 82.4545C69.1126 82.4545 68.9606 82.4403 68.8271 82.4119C68.6935 82.3864 68.6012 82.3608 68.5501 82.3352L68.8058 81.4489C69.0501 81.5114 69.266 81.5341 69.4535 81.517C69.641 81.5 69.8072 81.4162 69.9521 81.2656C70.0998 81.1179 70.2347 80.8778 70.3569 80.5455L70.5444 80.0341L68.1239 73.4545H69.2148L71.0217 78.6705H71.0898L72.8967 73.4545H73.9876L71.2092 80.9545C71.0842 81.2926 70.9293 81.5724 70.7447 81.794C70.56 82.0185 70.3455 82.1847 70.1012 82.2926C69.8597 82.4006 69.587 82.4545 69.283 82.4545ZM77.8249 80.1364C77.1942 80.1364 76.6502 79.9972 76.1928 79.7188C75.7383 79.4375 75.3874 79.0455 75.1403 78.5426C74.896 78.0369 74.7738 77.4489 74.7738 76.7784C74.7738 76.108 74.896 75.517 75.1403 75.0057C75.3874 74.4915 75.7312 74.0909 76.1715 73.804C76.6147 73.5142 77.1317 73.3693 77.7227 73.3693C78.0636 73.3693 78.4002 73.4261 78.7326 73.5398C79.065 73.6534 79.3675 73.8381 79.6403 74.0938C79.913 74.3466 80.1303 74.6818 80.2923 75.0994C80.4542 75.517 80.5352 76.0312 80.5352 76.642V77.0682H75.4897V76.1989H79.5124C79.5124 75.8295 79.4386 75.5 79.2908 75.2102C79.146 74.9205 78.9386 74.6918 78.6687 74.5241C78.4016 74.3565 78.0863 74.2727 77.7227 74.2727C77.3221 74.2727 76.9755 74.3722 76.6829 74.571C76.3931 74.767 76.1701 75.0227 76.0138 75.3381C75.8576 75.6534 75.7795 75.9915 75.7795 76.3523V76.9318C75.7795 77.4261 75.8647 77.8452 76.0352 78.1889C76.2085 78.5298 76.4485 78.7898 76.7553 78.9688C77.0621 79.1449 77.4187 79.233 77.8249 79.233C78.0891 79.233 78.3278 79.196 78.5408 79.1222C78.7567 79.0455 78.9428 78.9318 79.0991 78.7812C79.2553 78.6278 79.3761 78.4375 79.4613 78.2102L80.4329 78.483C80.3306 78.8125 80.1587 79.1023 79.9173 79.3523C79.6758 79.5994 79.3775 79.7926 79.0224 79.9318C78.6673 80.0682 78.2681 80.1364 77.8249 80.1364ZM81.4854 80V79.0625H81.7241C81.9201 79.0625 82.0835 79.0241 82.2141 78.9474C82.3448 78.8679 82.4499 78.7301 82.5295 78.5341C82.6119 78.3352 82.6744 78.0597 82.717 77.7074C82.7624 77.3523 82.7951 76.9006 82.815 76.3523L82.9343 73.4545H87.2979V80H86.2923V74.392H83.8888L83.7866 76.7273C83.7638 77.2642 83.7156 77.7372 83.6417 78.1463C83.5707 78.5526 83.4613 78.8935 83.3136 79.169C83.1687 79.4446 82.9755 79.652 82.734 79.7912C82.4925 79.9304 82.19 80 81.8263 80H81.4854ZM91.0692 80.1534C90.6545 80.1534 90.2781 80.0753 89.94 79.919C89.6019 79.7599 89.3335 79.5312 89.1346 79.233C88.9357 78.9318 88.8363 78.5682 88.8363 78.142C88.8363 77.767 88.9102 77.4631 89.0579 77.2301C89.2056 76.9943 89.4031 76.8097 89.6502 76.6761C89.8974 76.5426 90.1701 76.4432 90.4684 76.3778C90.7695 76.3097 91.0721 76.2557 91.3761 76.2159C91.7738 76.1648 92.0962 76.1264 92.3434 76.1009C92.5934 76.0724 92.7752 76.0256 92.8888 75.9602C93.0053 75.8949 93.0636 75.7812 93.0636 75.6193V75.5852C93.0636 75.1648 92.9485 74.8381 92.7184 74.6051C92.4911 74.3722 92.146 74.2557 91.6829 74.2557C91.2028 74.2557 90.8263 74.3608 90.5536 74.571C90.2809 74.7812 90.0891 75.0057 89.9783 75.2443L89.0238 74.9034C89.1942 74.5057 89.4215 74.196 89.7056 73.9744C89.9925 73.75 90.305 73.5937 90.6431 73.5057C90.984 73.4148 91.3192 73.3693 91.6488 73.3693C91.859 73.3693 92.1005 73.3949 92.3732 73.446C92.6488 73.4943 92.9144 73.5952 93.1701 73.7486C93.4286 73.902 93.6431 74.1335 93.8136 74.4432C93.984 74.7528 94.0692 75.1676 94.0692 75.6875V80H93.0636V79.1136H93.0124C92.9442 79.2557 92.8306 79.4077 92.6715 79.5696C92.5124 79.7315 92.3008 79.8693 92.0366 79.983C91.7724 80.0966 91.4499 80.1534 91.0692 80.1534ZM91.2227 79.25C91.6204 79.25 91.9556 79.1719 92.2283 79.0156C92.5039 78.8594 92.7113 78.6577 92.8505 78.4105C92.9925 78.1634 93.0636 77.9034 93.0636 77.6307V76.7102C93.021 76.7614 92.9272 76.8082 92.7823 76.8509C92.6403 76.8906 92.4755 76.9261 92.288 76.9574C92.1033 76.9858 91.9229 77.0114 91.7468 77.0341C91.5735 77.054 91.4329 77.071 91.3249 77.0852C91.0636 77.1193 90.8192 77.1747 90.592 77.2514C90.3675 77.3253 90.1857 77.4375 90.0465 77.5881C89.9102 77.7358 89.842 77.9375 89.842 78.1932C89.842 78.5426 89.9712 78.8068 90.2298 78.9858C90.4911 79.1619 90.8221 79.25 91.2227 79.25ZM97.2173 77.5455V77.4943C97.223 76.9517 97.2798 76.5199 97.3878 76.1989C97.4957 75.8778 97.6491 75.6179 97.848 75.419C98.0469 75.2202 98.2855 75.0369 98.5639 74.8693C98.7315 74.767 98.8821 74.6463 99.0156 74.5071C99.1491 74.3651 99.2543 74.2017 99.331 74.017C99.4105 73.8324 99.4503 73.6278 99.4503 73.4034C99.4503 73.125 99.3849 72.8835 99.2543 72.679C99.1236 72.4744 98.9489 72.3168 98.7301 72.206C98.5114 72.0952 98.2685 72.0398 98.0014 72.0398C97.7685 72.0398 97.544 72.0881 97.3281 72.1847C97.1122 72.2812 96.9318 72.4332 96.7869 72.6406C96.642 72.848 96.5582 73.1193 96.5355 73.4545H95.4616C95.4844 72.9716 95.6094 72.5582 95.8366 72.2145C96.0668 71.8707 96.3693 71.608 96.7443 71.4261C97.1222 71.2443 97.5412 71.1534 98.0014 71.1534C98.5014 71.1534 98.9361 71.2528 99.3054 71.4517C99.6776 71.6506 99.9645 71.9233 100.166 72.2699C100.371 72.6165 100.473 73.0114 100.473 73.4545C100.473 73.767 100.425 74.0497 100.328 74.3026C100.234 74.5554 100.098 74.7812 99.919 74.9801C99.7429 75.179 99.5298 75.3551 99.2798 75.5085C99.0298 75.6648 98.8295 75.8295 98.679 76.0028C98.5284 76.1733 98.419 76.3764 98.3509 76.6122C98.2827 76.848 98.2457 77.142 98.2401 77.4943V77.5455H97.2173ZM97.7628 80.0682C97.5526 80.0682 97.3722 79.9929 97.2216 79.8423C97.071 79.6918 96.9957 79.5114 96.9957 79.3011C96.9957 79.0909 97.071 78.9105 97.2216 78.7599C97.3722 78.6094 97.5526 78.5341 97.7628 78.5341C97.973 78.5341 98.1534 78.6094 98.304 78.7599C98.4545 78.9105 98.5298 79.0909 98.5298 79.3011C98.5298 79.4403 98.4943 79.5682 98.4233 79.6847C98.3551 79.8011 98.2628 79.8949 98.1463 79.9659C98.0327 80.0341 97.9048 80.0682 97.7628 80.0682Z" fill="black"/>
</svg>
