<svg width="668" height="550" viewBox="0 0 668 550" fill="none" xmlns="http://www.w3.org/2000/svg">
<path d="M492.562 145.366C494.083 143.051 495.461 137.937 495.266 133.143C495.042 127.614 492.094 119.742 491.154 113.742C490.885 112.019 488.398 110.584 485.725 109.324C481.403 107.286 476.336 110.65 472.506 112.144C468.261 113.8 463.609 117.309 461.177 119.722C458.699 122.181 454.096 127.703 452.708 133.35C451.41 138.634 454.008 143.047 454.388 147.308C454.783 151.736 456.95 155.335 458.143 159.624C459.392 164.117 461.449 169.307 463.46 174.134C464.924 178.27 465.947 181.285 466.961 182.783C467.434 183.595 467.823 184.511 469.163 187.074" stroke="#A6300A" stroke-width="2" stroke-linecap="round"/>
<path d="M495.82 146.505C497.038 144.652 500.411 141.53 504.385 139.3C507.714 137.432 510.821 135.351 515.56 133.458C520.792 131.367 524.964 133.609 528.5 135.101C532.234 136.677 533.992 140.201 535.349 145.254C536.389 149.126 533.701 152.348 532.214 155.382C529.987 159.923 525.443 164.948 521.735 166.522C517.879 168.159 513.474 168.44 508.026 169.362C503.154 170.187 498.866 170.859 495.657 172.42C492.104 174.149 488.373 175.641 484.665 177.215C480.957 178.79 477.724 180.661 475.53 183.231C474.953 183.858 474.267 184.399 473.571 184.948C472.874 185.497 472.189 186.037 470.783 186.135" stroke="#A6300A" stroke-width="2" stroke-linecap="round"/>
<path d="M476.821 172.493C478.365 173.177 483.138 172.999 487.356 170.923C493.713 167.795 498.116 165.475 501.663 163.629C505.654 161.552 512.416 157.886 517.514 155.012C517.906 154.791 516.798 154.356 515.754 154.666C509.953 156.387 501.638 161.7 496.668 164.654C495.7 165.229 494.366 165.635 494.498 165.411C497.027 161.125 502.956 161.645 515.125 157.323C520.814 155.302 523.809 153.305 525.151 152.024C525.867 151.34 526.414 150.36 526.265 149.581C526.116 148.802 525.193 148.195 523.952 148.041C517.692 147.263 511.452 151.825 507.548 153.941C504.841 155.409 502.023 155.994 500.63 156.086C499.253 156.177 501.658 151.458 504.53 147.842C507.888 143.614 514.224 145.014 518.895 143.241C520.025 142.812 520.939 142.416 520.992 142.601C521.899 145.744 516.357 147.377 514.009 149.685C513.86 149.832 514.261 149.044 513.961 148.997C510.111 148.397 505.417 151.865 499.78 154.34C495.054 156.415 492.295 158.606 488.94 160.412C485.558 162.233 483.126 164.939 481.966 165.684C479.664 167.161 487.647 162.601 492.309 159.827C496.679 157.226 499.905 155.635 501.875 154.42C504.257 152.951 494.242 158.203 489.136 159.87C483.895 161.581 480.659 164.64 474.871 166.85C473.556 167.352 472.629 167.716 471.887 167.573C471.144 167.431 470.603 166.745 470.397 165.778C469.469 161.423 470.914 157.616 474.615 151.716C476.117 149.322 478.045 148.271 478.781 147.913C481.68 146.504 473.45 152.232 469.331 154.698C464.554 157.557 462.115 158.814 461.105 158.827C457.209 158.875 466.305 152.925 470.341 149.068C474.633 144.967 477.375 142.173 479.541 139.906C479.815 139.619 478.628 139.291 477.544 139.409C472.879 139.92 469.607 143.357 464.703 145.989C462.875 146.97 468.717 142.152 472.541 137.344C477.541 131.06 479.29 125.054 479.085 123.087C478.983 122.101 478.498 121.199 477.955 120.997C472.135 118.836 461.785 128.864 459.02 130.748C456.268 132.623 465.119 124.766 467.616 122.231C470.473 119.329 472.571 116.974 473.539 116.264C477.812 113.125 466.754 122.796 461.979 125.497C459.792 126.735 458.427 128.351 457.962 129.051C455.893 132.166 465.822 127.231 470.103 125.037C472.506 123.805 474.627 122.992 475.478 122.71C479.382 121.417 470.751 130.429 467.717 133.774C465.501 136.217 462.743 137.526 462.012 138.387C461.922 138.493 462.263 137.25 462.915 136.502C465.499 133.536 469.578 132.703 473.088 131.164C476.71 129.575 479.774 129.378 480.404 129.942C483.181 132.428 476.353 136.123 475.736 137.055C475.517 137.386 476.649 137.67 477.618 137.475C481.984 136.599 485.367 134.064 488.04 132.801C492.046 130.908 482.902 142.419 478.899 145.462C475.753 147.855 472.762 152.761 470.538 156.648C469.275 158.857 476.215 154.089 479.303 151.942C482.973 149.391 485.23 146.984 486.507 146.816C489.947 146.365 481.676 154.953 479.094 158.113C477.75 159.759 476.134 161.346 475.749 162.435C474.588 165.719 483.884 158.146 488.49 155.48C491.764 153.585 494.783 152.259 495.984 152.207C496.424 152.188 495.892 153.619 495.356 154.443C493.305 157.593 488.578 158.166 484.726 160.477C481.291 162.538 478.103 164.963 474.605 168.503C473.137 169.989 471.522 172.937 471.082 174.36C470.643 175.784 471.639 175.777 472.801 175.54C478.435 174.389 483.069 171.611 486.424 169.805C489.67 168.057 494.152 164.893 498.214 162.53C501.401 160.675 508.237 157.144 513.796 155.573C517.639 154.487 520.323 153.017 521.599 152.849C524.777 152.432 517.835 159.364 515.06 161.551C511.805 164.118 507.441 166.555 503.733 168.129C502.803 168.524 501.886 168.913 501.717 168.652C499.975 165.958 508.156 164.401 511.793 162.439C515.482 160.45 521.098 157.903 525.211 155.232C528.174 153.308 530.215 151.175 531.062 149.894C531.343 149.469 530.227 149.16 529.334 149.239C524.13 149.7 517.792 152.326 513.082 153.908C511.018 154.601 508.825 154.786 507.701 155.224C503.772 156.755 514.962 150.506 519.431 148.27C523.982 145.992 526.053 142.772 527.939 139.665C528.304 139.063 527.213 138.507 526.398 138.467C522.633 138.283 519.111 141.175 515.029 144.331C510.765 147.628 506.623 148.993 502.735 151.61C498.545 154.431 495.309 156.58 492.257 158.916C487.353 162.669 482.823 165.401 480.088 167.78C477.016 170.452 474.447 173.577 471.179 177.278C470.47 178.08 469.294 177.882 468.587 177.427C467.879 176.972 467.49 176.056 468.048 174.429C470.766 166.504 476.294 165.156 479.526 162.273C482.763 159.384 484.84 157.743 485.536 157.194C487.683 155.502 480.005 160.545 476.153 162.856C475.182 163.438 474.228 163.759 474.286 163.151C474.795 157.882 480.096 155.317 485.562 148.263C494.538 136.678 498.355 128.548 496.706 129.793C492.47 132.991 486.887 134.342 482.744 136.312C478.629 138.268 474.309 141.78 471.752 142.624C466.595 144.325 478.648 134.657 481.3 132.389C484.296 129.827 487.183 127.246 488.655 125.524C491.193 122.556 483.521 130.808 477.684 134.129C464.407 141.681 459.024 143.735 455.519 144.977C443.709 149.162 469.739 119.76 469.172 121.386C468.067 124.553 464.152 126.755 460.565 128.914C458.682 130.048 457.288 131.608 456.707 132.233C454.035 135.108 465.824 128.234 470.343 126.196C475.249 124.071 478.948 122.496 481.609 121.746C482.74 121.312 483.426 120.772 484.132 120.214" stroke="#A6300A" stroke-width="2" stroke-linecap="round"/>
<path d="M459 302C459 359.438 399.902 406 327 406C254.098 406 195 359.438 195 302C195 244.562 260.606 239 333.508 239C406.409 239 459 244.562 459 302Z" fill="#EA7C7C"/>
<path d="M459 302C459 359.438 399.902 406 327 406C254.098 406 195 359.438 195 302C195 244.562 260.606 239 333.508 239C406.409 239 459 244.562 459 302Z" fill="#FF9822" fill-opacity="0.2"/>
<path d="M459.008 302.5C459.008 320.725 403.98 273 380.508 273C357.036 273 332.008 258.725 332.008 240.5C332.008 222.275 424.536 180 448.008 180C471.48 180 459.008 284.275 459.008 302.5Z" fill="#EE816A"/>
<path d="M195.316 302.5C195.316 320.725 250.344 273 273.816 273C297.289 273 322.316 258.725 322.316 240.5C322.316 222.275 229.789 180 206.316 180C182.844 180 195.316 284.275 195.316 302.5Z" fill="#EE816A"/>
<circle cx="265.508" cy="315.5" r="8.5" fill="black"/>
<circle cx="392.508" cy="315.5" r="8.5" fill="black"/>
<path d="M338.009 341.5C340.174 348.658 337.166 352.243 329.509 349.5C318.007 352.5 321.009 346.194 321.009 341.5C321.009 336.806 324.815 333 329.509 333C334.204 333 338.009 336.806 338.009 341.5Z" fill="black"/>
</svg>
