<svg width="523" height="307" viewBox="0 0 523 307" fill="none" xmlns="http://www.w3.org/2000/svg">
<path d="M474.5 46.3664C476.021 44.0512 477.398 38.9374 477.204 34.1429C476.979 28.614 474.031 20.7422 473.092 14.7421C472.822 13.0193 470.335 11.5837 467.663 10.3237C463.341 8.28554 458.274 11.6503 454.443 13.1442C450.198 14.7995 445.547 18.3093 443.115 20.7223C440.637 23.1812 436.034 28.7027 434.646 34.3504C433.348 39.6341 435.946 44.0472 436.326 48.3077C436.721 52.7356 438.888 56.3351 440.08 60.6239C441.33 65.1165 443.387 70.3073 445.398 75.1338C446.861 79.2699 447.884 82.2854 448.898 83.7829C449.371 84.5945 449.76 85.5111 451.101 88.0742" stroke="#A6300A" stroke-width="2" stroke-linecap="round"/>
<path d="M477.758 47.5053C478.976 45.6518 482.349 42.5303 486.323 40.2997C489.651 38.4315 492.758 36.3511 497.497 34.4577C502.73 32.3672 506.902 34.6085 510.438 36.1007C514.172 37.6765 515.929 41.2011 517.286 46.2537C518.326 50.1262 515.639 53.3482 514.152 56.3816C511.925 60.9227 507.38 65.9477 503.672 67.522C499.817 69.1585 495.412 69.44 489.964 70.3619C485.092 71.1865 480.804 71.8588 477.594 73.4205C474.041 75.1494 470.311 76.6412 466.602 78.2154C462.894 79.7897 459.661 81.6613 457.468 84.2306C456.89 84.8577 456.204 85.3985 455.508 85.9475C454.812 86.4965 454.126 87.0373 452.72 87.1349" stroke="#A6300A" stroke-width="2" stroke-linecap="round"/>
<path d="M458.759 73.4929C460.302 74.1767 465.076 73.9986 469.294 71.923C475.651 68.7949 480.054 66.475 483.6 64.6291C487.591 62.5516 494.354 58.8863 499.452 56.0121C499.844 55.7911 498.736 55.3565 497.691 55.6664C491.891 57.3868 483.576 62.7002 478.606 65.6536C477.637 66.229 476.304 66.6347 476.436 66.4109C478.964 62.1249 484.894 62.645 497.062 58.3227C502.752 56.3018 505.746 54.3046 507.089 53.0235C507.805 52.3404 508.352 51.36 508.203 50.581C508.054 49.802 507.13 49.1954 505.89 49.0412C499.629 48.263 493.389 52.8248 489.485 54.9412C486.778 56.4085 483.96 56.9942 482.568 57.0859C481.191 57.1766 483.596 52.4584 486.467 48.8424C489.825 44.6142 496.162 46.0141 500.832 44.2408C501.962 43.8117 502.876 43.4159 502.93 43.6012C503.836 46.7439 498.295 48.3769 495.947 50.6849C495.797 50.8323 496.198 50.0437 495.898 49.997C492.049 49.3967 487.354 52.8651 481.717 55.3401C476.992 57.4149 474.233 59.6056 470.878 61.412C467.496 63.2326 465.064 65.939 463.904 66.6838C461.602 68.1612 469.584 63.6015 474.247 60.8265C478.616 58.2259 481.843 56.6346 483.813 55.4202C486.195 53.9514 476.18 59.2026 471.074 60.8698C465.833 62.581 462.597 65.6398 456.808 67.8501C455.493 68.3522 454.567 68.7158 453.824 68.5733C453.082 68.4309 452.541 67.7451 452.335 66.7785C451.406 62.4228 452.851 58.6156 456.553 52.7156C458.055 50.3218 459.983 49.2711 460.718 48.9133C463.617 47.5039 455.387 53.2318 451.268 55.6978C446.492 58.5575 444.052 59.8141 443.043 59.8266C439.147 59.875 448.242 53.9248 452.279 50.0677C456.571 45.9665 459.313 43.1728 461.479 40.9055C461.753 40.6187 460.566 40.2907 459.481 40.4093C454.816 40.9198 451.544 44.3575 446.641 46.9889C444.812 47.9702 450.654 43.1517 454.479 38.3443C459.479 32.0597 461.227 26.0543 461.023 24.0871C460.92 23.1012 460.436 22.1992 459.892 21.9974C454.072 19.8358 443.722 29.8643 440.957 31.748C438.206 33.6225 447.056 25.7659 449.553 23.2306C452.411 20.3292 454.509 17.9745 455.477 17.2635C459.749 14.1251 448.691 23.7957 443.917 26.4971C441.729 27.7349 440.365 29.3505 439.899 30.0512C437.83 33.1664 447.76 28.231 452.041 26.0367C454.443 24.8051 456.564 23.9916 457.415 23.7096C461.319 22.4166 452.688 31.4294 449.655 34.7738C447.439 37.2165 444.681 38.5257 443.949 39.3872C443.859 39.4932 444.201 38.2504 444.853 37.5021C447.437 34.5357 451.515 33.7028 455.025 32.1636C458.647 30.5751 461.711 30.378 462.342 30.9425C465.118 33.4284 458.291 37.1233 457.674 38.0548C457.454 38.3855 458.586 38.6697 459.555 38.4752C463.922 37.5987 467.304 35.0645 469.977 33.8013C473.984 31.9076 464.839 43.4191 460.837 46.4624C457.69 48.8548 454.699 53.761 452.476 57.6478C451.212 59.8566 458.153 55.0889 461.241 52.942C464.91 50.391 467.168 47.9835 468.445 47.816C471.884 47.3647 463.614 55.9531 461.031 59.1134C459.687 60.7588 458.071 62.3459 457.686 63.4349C456.525 66.719 465.822 59.1465 470.428 56.4798C473.701 54.5849 476.72 53.2588 477.921 53.2067C478.362 53.1875 477.83 54.6186 477.293 55.4428C475.243 58.5929 470.516 59.1662 466.664 61.4772C463.229 63.5381 460.041 65.9633 456.543 69.5034C455.075 70.9893 453.46 73.9369 453.02 75.3604C452.58 76.784 453.576 76.7774 454.739 76.5398C460.372 75.3885 465.006 72.6109 468.361 70.8046C471.608 69.0567 476.09 65.8933 480.151 63.5298C483.338 61.6753 490.175 58.1435 495.733 56.5732C499.577 55.4873 502.26 54.0168 503.537 53.8492C506.715 53.4322 499.772 60.3636 496.998 62.5514C493.742 65.1183 489.379 67.5548 485.671 69.1291C484.74 69.5241 483.823 69.9132 483.655 69.6521C481.913 66.9579 490.093 65.4005 493.731 63.4391C497.419 61.45 503.035 58.9026 507.148 56.2323C510.112 54.3083 512.153 52.1749 513 50.8937C513.281 50.4685 512.165 50.1599 511.272 50.239C506.067 50.6999 499.73 53.3257 495.02 54.9078C492.956 55.6011 490.763 55.7858 489.639 56.2239C485.709 57.7553 496.9 51.5061 501.368 49.2698C505.919 46.9925 507.99 43.7717 509.876 40.6648C510.242 40.063 509.15 39.5066 508.335 39.4668C504.571 39.2829 501.048 42.1745 496.966 45.3309C492.702 48.6284 488.561 49.9926 484.672 52.6103C480.482 55.4314 477.246 57.5799 474.194 59.9158C469.29 63.6689 464.761 66.4007 462.026 68.7797C458.953 71.4525 456.384 74.5766 453.116 78.2777C452.407 79.0805 451.232 78.8822 450.524 78.4273C449.817 77.9724 449.427 77.0558 449.985 75.4294C452.704 67.504 458.231 66.1564 461.463 63.2727C464.701 60.3835 466.778 58.7431 467.474 58.1941C469.62 56.5016 461.943 61.5447 458.091 63.8558C457.12 64.4382 456.165 64.7589 456.224 64.1515C456.733 58.8823 462.033 56.3165 467.499 49.2627C476.476 37.6781 480.293 29.5482 478.643 30.793C474.407 33.9906 468.824 35.3422 464.681 37.3116C460.566 39.2677 456.246 42.7801 453.689 43.6236C448.532 45.3245 460.586 35.6572 463.238 33.389C466.233 30.8271 469.121 28.2463 470.592 26.5245C473.13 23.5556 465.458 31.8084 459.621 35.1286C446.345 42.6806 440.962 44.7346 437.457 45.9767C425.646 50.1619 451.677 20.7604 451.11 22.3856C450.005 25.553 446.09 27.7547 442.503 29.9143C440.62 31.048 439.226 32.608 438.645 33.2328C435.972 36.1082 447.762 29.2338 452.281 27.1957C457.186 25.0715 460.885 23.4961 463.546 22.746C464.677 22.3125 465.363 21.7717 466.07 21.2145" stroke="#A6300A" stroke-width="2" stroke-linecap="round"/>
<path d="M440.938 203C440.938 260.438 381.839 307 308.937 307C236.036 307 176.938 260.438 176.938 203C176.938 145.562 242.544 140 315.445 140C388.347 140 440.938 145.562 440.938 203Z" fill="#EA7C7C"/>
<path d="M440.938 203C440.938 260.438 381.839 307 308.937 307C236.036 307 176.938 260.438 176.938 203C176.938 145.562 242.544 140 315.445 140C388.347 140 440.938 145.562 440.938 203Z" fill="#FF9822" fill-opacity="0.2"/>
<path d="M440.945 203.5C440.945 221.725 385.917 174 362.445 174C338.973 174 313.945 159.725 313.945 141.5C313.945 123.275 406.473 81 429.945 81C453.417 81 440.945 185.275 440.945 203.5Z" fill="#EE816A"/>
<path d="M177.254 203.5C177.254 221.725 232.282 174 255.754 174C279.226 174 304.254 159.725 304.254 141.5C304.254 123.275 211.726 81 188.254 81C164.782 81 177.254 185.275 177.254 203.5Z" fill="#EE816A"/>
<circle cx="247.445" cy="216.5" r="8.5" fill="black"/>
<circle cx="374.445" cy="216.5" r="8.5" fill="black"/>
<path d="M319.947 242.5C322.112 249.658 319.104 253.243 311.447 250.5C299.945 253.5 302.947 247.194 302.947 242.5C302.947 237.806 306.753 234 311.447 234C316.141 234 319.947 237.806 319.947 242.5Z" fill="black"/>
<ellipse cx="71.5" cy="169.5" rx="71.5" ry="50.5" fill="#D9D9D9"/>
<path d="M186.131 194.289C185.67 205.601 88.0732 203.824 66.5283 202.946C44.9834 202.067 27.8916 192.185 28.3527 180.873C28.8137 169.56 46.6531 161.102 68.198 161.98C89.7428 162.858 186.592 182.976 186.131 194.289Z" fill="#D9D9D9"/>
<path d="M28.9886 163H27.9318V155.21H26.0739C25.6023 155.21 25.223 155.283 24.9361 155.428C24.6491 155.57 24.4403 155.771 24.3097 156.033C24.179 156.294 24.1136 156.599 24.1136 156.949C24.1136 157.298 24.1776 157.599 24.3054 157.852C24.4361 158.102 24.6435 158.295 24.9276 158.432C25.2145 158.568 25.5909 158.636 26.0568 158.636H28.4091V159.591H26.0227C25.3466 159.591 24.7912 159.479 24.3565 159.254C23.9219 159.027 23.5994 158.714 23.3892 158.317C23.179 157.919 23.0739 157.463 23.0739 156.949C23.0739 156.435 23.179 155.976 23.3892 155.572C23.5994 155.169 23.9233 154.852 24.3608 154.622C24.7983 154.389 25.358 154.273 26.0398 154.273H28.9886V163ZM24.8807 159.08H26.0739L23.9602 163H22.733L24.8807 159.08ZM33.9712 157.392V156.455H39.2894V157.392H37.1417V163H36.136V157.392H33.9712ZM43.1609 163.136C42.5302 163.136 41.9862 162.997 41.5288 162.719C41.0742 162.438 40.7234 162.045 40.4762 161.543C40.2319 161.037 40.1097 160.449 40.1097 159.778C40.1097 159.108 40.2319 158.517 40.4762 158.006C40.7234 157.491 41.0671 157.091 41.5075 156.804C41.9506 156.514 42.4677 156.369 43.0586 156.369C43.3995 156.369 43.7362 156.426 44.0685 156.54C44.4009 156.653 44.7035 156.838 44.9762 157.094C45.2489 157.347 45.4663 157.682 45.6282 158.099C45.7901 158.517 45.8711 159.031 45.8711 159.642V160.068H40.8256V159.199H44.8484C44.8484 158.83 44.7745 158.5 44.6268 158.21C44.4819 157.92 44.2745 157.692 44.0046 157.524C43.7376 157.357 43.4222 157.273 43.0586 157.273C42.658 157.273 42.3114 157.372 42.0188 157.571C41.729 157.767 41.506 158.023 41.3498 158.338C41.1935 158.653 41.1154 158.991 41.1154 159.352V159.932C41.1154 160.426 41.2006 160.845 41.3711 161.189C41.5444 161.53 41.7844 161.79 42.0913 161.969C42.3981 162.145 42.7546 162.233 43.1609 162.233C43.4251 162.233 43.6637 162.196 43.8768 162.122C44.0927 162.045 44.2788 161.932 44.435 161.781C44.5913 161.628 44.712 161.437 44.7972 161.21L45.7688 161.483C45.6665 161.812 45.4947 162.102 45.2532 162.352C45.0117 162.599 44.7134 162.793 44.3583 162.932C44.0032 163.068 43.604 163.136 43.1609 163.136ZM52.2589 154L52.7702 154.614C52.5714 154.807 52.3413 154.942 52.0799 155.018C51.8185 155.095 51.5231 155.142 51.1935 155.159C50.864 155.176 50.4975 155.193 50.0941 155.21C49.6396 155.227 49.2631 155.338 48.9648 155.543C48.6665 155.747 48.4364 156.043 48.2745 156.429C48.1126 156.815 48.0089 157.29 47.9634 157.852H48.0487C48.2702 157.443 48.5771 157.142 48.9691 156.949C49.3612 156.756 49.7816 156.659 50.2305 156.659C50.7418 156.659 51.2021 156.778 51.6112 157.017C52.0202 157.256 52.3441 157.609 52.5827 158.078C52.8214 158.547 52.9407 159.125 52.9407 159.812C52.9407 160.497 52.8185 161.088 52.5742 161.585C52.3327 162.082 51.9933 162.466 51.5558 162.736C51.1211 163.003 50.6112 163.136 50.0259 163.136C49.4407 163.136 48.9279 162.999 48.4876 162.723C48.0472 162.445 47.7049 162.033 47.4606 161.487C47.2163 160.939 47.0941 160.261 47.0941 159.455V158.756C47.0941 157.298 47.3413 156.193 47.8356 155.44C48.3327 154.687 49.0799 154.298 50.0771 154.273C50.4293 154.261 50.7433 154.259 51.0188 154.264C51.2944 154.27 51.5344 154.257 51.739 154.226C51.9435 154.195 52.1168 154.119 52.2589 154ZM50.0259 162.233C50.4208 162.233 50.7603 162.134 51.0444 161.935C51.3313 161.736 51.5515 161.456 51.7049 161.095C51.8583 160.732 51.935 160.304 51.935 159.812C51.935 159.335 51.8569 158.929 51.7006 158.594C51.5472 158.259 51.3271 158.003 51.0401 157.827C50.7532 157.651 50.4094 157.562 50.0089 157.562C49.7163 157.562 49.4535 157.612 49.2205 157.712C48.9876 157.811 48.7887 157.957 48.6239 158.151C48.4592 158.344 48.3313 158.58 48.2404 158.858C48.1523 159.136 48.1055 159.455 48.0998 159.812C48.0998 160.545 48.2717 161.132 48.6154 161.572C48.9592 162.013 49.4293 162.233 50.0259 162.233ZM58.4165 163V157.375H56.6779C56.2859 157.375 55.9776 157.466 55.7532 157.648C55.5288 157.83 55.4165 158.08 55.4165 158.398C55.4165 158.71 55.5174 158.956 55.7191 159.135C55.9237 159.314 56.2035 159.403 56.5586 159.403H58.6722V160.341H56.5586C56.1154 160.341 55.7333 160.263 55.4123 160.107C55.0913 159.95 54.8441 159.727 54.6708 159.438C54.4975 159.145 54.4109 158.798 54.4109 158.398C54.4109 157.994 54.5018 157.648 54.6836 157.358C54.8654 157.068 55.1254 156.845 55.4634 156.689C55.8043 156.533 56.2092 156.455 56.6779 156.455H59.3711V163H58.4165ZM54.0529 163L55.9109 159.744H57.0018L55.1438 163H54.0529ZM65.2401 165.455C65.0696 165.455 64.9176 165.44 64.7841 165.412C64.6506 165.386 64.5582 165.361 64.5071 165.335L64.7628 164.449C65.0071 164.511 65.223 164.534 65.4105 164.517C65.598 164.5 65.7642 164.416 65.9091 164.266C66.0568 164.118 66.1918 163.878 66.3139 163.545L66.5014 163.034L64.081 156.455H65.1719L66.9787 161.67H67.0469L68.8537 156.455H69.9446L67.1662 163.955C67.0412 164.293 66.8864 164.572 66.7017 164.794C66.517 165.018 66.3026 165.185 66.0582 165.293C65.8168 165.401 65.544 165.455 65.2401 165.455ZM73.6967 163.136C73.0831 163.136 72.5547 162.991 72.1115 162.702C71.6683 162.412 71.3274 162.013 71.0888 161.504C70.8501 160.996 70.7308 160.415 70.7308 159.761C70.7308 159.097 70.853 158.51 71.0973 158.001C71.3445 157.49 71.6882 157.091 72.1286 156.804C72.5717 156.514 73.0888 156.369 73.6797 156.369C74.1399 156.369 74.5547 156.455 74.924 156.625C75.2933 156.795 75.5959 157.034 75.8317 157.341C76.0675 157.648 76.2138 158.006 76.2706 158.415H75.2649C75.1882 158.116 75.0178 157.852 74.7536 157.622C74.4922 157.389 74.1399 157.273 73.6967 157.273C73.3047 157.273 72.9609 157.375 72.6655 157.58C72.3729 157.781 72.1442 158.067 71.9794 158.436C71.8175 158.803 71.7365 159.233 71.7365 159.727C71.7365 160.233 71.8161 160.673 71.9751 161.048C72.1371 161.423 72.3643 161.714 72.657 161.922C72.9524 162.129 73.299 162.233 73.6967 162.233C73.9581 162.233 74.1953 162.188 74.4084 162.097C74.6214 162.006 74.8018 161.875 74.9496 161.705C75.0973 161.534 75.2024 161.33 75.2649 161.091H76.2706C76.2138 161.477 76.0732 161.825 75.8487 162.135C75.6271 162.442 75.3331 162.686 74.9666 162.868C74.603 163.047 74.1797 163.136 73.6967 163.136ZM77.1612 163V162.062H77.3999C77.5959 162.062 77.7592 162.024 77.8899 161.947C78.0206 161.868 78.1257 161.73 78.2053 161.534C78.2876 161.335 78.3501 161.06 78.3928 160.707C78.4382 160.352 78.4709 159.901 78.4908 159.352L78.6101 156.455H82.9737V163H81.968V157.392H79.5646L79.4624 159.727C79.4396 160.264 79.3913 160.737 79.3175 161.146C79.2464 161.553 79.1371 161.893 78.9893 162.169C78.8445 162.445 78.6513 162.652 78.4098 162.791C78.1683 162.93 77.8658 163 77.5021 163H77.1612ZM85.6882 158.824H87.5632C88.3303 158.824 88.9169 159.018 89.3232 159.408C89.7294 159.797 89.9325 160.29 89.9325 160.886C89.9325 161.278 89.8416 161.635 89.6598 161.956C89.478 162.274 89.2109 162.528 88.8587 162.719C88.5064 162.906 88.0746 163 87.5632 163H84.8189V156.455H85.8246V162.062H87.5632C87.9609 162.062 88.2876 161.957 88.5433 161.747C88.799 161.537 88.9268 161.267 88.9268 160.938C88.9268 160.591 88.799 160.308 88.5433 160.089C88.2876 159.871 87.9609 159.761 87.5632 159.761H85.6882V158.824ZM90.9723 163V156.455H91.978V163H90.9723ZM93.8189 156.455H94.8246V162.062H97.2962V156.455H98.3018V162.062H100.773V156.455H101.779V163H93.8189V156.455ZM105.542 163.153C105.127 163.153 104.751 163.075 104.413 162.919C104.075 162.76 103.806 162.531 103.607 162.233C103.408 161.932 103.309 161.568 103.309 161.142C103.309 160.767 103.383 160.463 103.531 160.23C103.678 159.994 103.876 159.81 104.123 159.676C104.37 159.543 104.643 159.443 104.941 159.378C105.242 159.31 105.545 159.256 105.849 159.216C106.246 159.165 106.569 159.126 106.816 159.101C107.066 159.072 107.248 159.026 107.362 158.96C107.478 158.895 107.536 158.781 107.536 158.619V158.585C107.536 158.165 107.421 157.838 107.191 157.605C106.964 157.372 106.619 157.256 106.156 157.256C105.675 157.256 105.299 157.361 105.026 157.571C104.754 157.781 104.562 158.006 104.451 158.244L103.496 157.903C103.667 157.506 103.894 157.196 104.178 156.974C104.465 156.75 104.778 156.594 105.116 156.506C105.457 156.415 105.792 156.369 106.121 156.369C106.332 156.369 106.573 156.395 106.846 156.446C107.121 156.494 107.387 156.595 107.643 156.749C107.901 156.902 108.116 157.134 108.286 157.443C108.457 157.753 108.542 158.168 108.542 158.688V163H107.536V162.114H107.485C107.417 162.256 107.303 162.408 107.144 162.57C106.985 162.732 106.773 162.869 106.509 162.983C106.245 163.097 105.923 163.153 105.542 163.153ZM105.695 162.25C106.093 162.25 106.428 162.172 106.701 162.016C106.977 161.859 107.184 161.658 107.323 161.411C107.465 161.163 107.536 160.903 107.536 160.631V159.71C107.494 159.761 107.4 159.808 107.255 159.851C107.113 159.891 106.948 159.926 106.761 159.957C106.576 159.986 106.396 160.011 106.219 160.034C106.046 160.054 105.906 160.071 105.798 160.085C105.536 160.119 105.292 160.175 105.065 160.251C104.84 160.325 104.658 160.437 104.519 160.588C104.383 160.736 104.315 160.937 104.315 161.193C104.315 161.543 104.444 161.807 104.702 161.986C104.964 162.162 105.295 162.25 105.695 162.25ZM109.798 163V162.062H110.037C110.233 162.062 110.396 162.024 110.527 161.947C110.657 161.868 110.762 161.73 110.842 161.534C110.924 161.335 110.987 161.06 111.029 160.707C111.075 160.352 111.108 159.901 111.127 159.352L111.247 156.455H115.61V163H114.605V157.392H112.201L112.099 159.727C112.076 160.264 112.028 160.737 111.954 161.146C111.883 161.553 111.774 161.893 111.626 162.169C111.481 162.445 111.288 162.652 111.047 162.791C110.805 162.93 110.502 163 110.139 163H109.798ZM22.9205 180.455V171.455H23.892V172.494H24.0114C24.0852 172.381 24.1875 172.236 24.3182 172.06C24.4517 171.881 24.642 171.722 24.8892 171.582C25.1392 171.44 25.4773 171.369 25.9034 171.369C26.4545 171.369 26.9403 171.507 27.3608 171.783C27.7813 172.058 28.1094 172.449 28.3452 172.955C28.581 173.46 28.6989 174.057 28.6989 174.744C28.6989 175.438 28.581 176.038 28.3452 176.547C28.1094 177.053 27.7827 177.445 27.3651 177.723C26.9474 177.999 26.4659 178.136 25.9205 178.136C25.5 178.136 25.1634 178.067 24.9105 177.928C24.6577 177.786 24.4631 177.625 24.3267 177.446C24.1903 177.264 24.0852 177.114 24.0114 176.994H23.9261V180.455H22.9205ZM23.9091 174.727C23.9091 175.222 23.9815 175.658 24.1264 176.036C24.2713 176.411 24.483 176.705 24.7614 176.918C25.0398 177.128 25.3807 177.233 25.7841 177.233C26.2045 177.233 26.5554 177.122 26.8366 176.901C27.1207 176.676 27.3338 176.375 27.4759 175.997C27.6207 175.616 27.6932 175.193 27.6932 174.727C27.6932 174.267 27.6222 173.852 27.4801 173.483C27.3409 173.111 27.1293 172.817 26.8452 172.601C26.5639 172.382 26.2102 172.273 25.7841 172.273C25.375 172.273 25.0313 172.376 24.7528 172.584C24.4744 172.788 24.2642 173.075 24.1222 173.445C23.9801 173.811 23.9091 174.239 23.9091 174.727ZM32.892 178.136C32.3011 178.136 31.7827 177.996 31.3366 177.714C30.8935 177.433 30.5469 177.04 30.2969 176.534C30.0497 176.028 29.9261 175.437 29.9261 174.761C29.9261 174.08 30.0497 173.484 30.2969 172.976C30.5469 172.467 30.8935 172.072 31.3366 171.791C31.7827 171.51 32.3011 171.369 32.892 171.369C33.483 171.369 34 171.51 34.4432 171.791C34.8892 172.072 35.2358 172.467 35.483 172.976C35.733 173.484 35.858 174.08 35.858 174.761C35.858 175.437 35.733 176.028 35.483 176.534C35.2358 177.04 34.8892 177.433 34.4432 177.714C34 177.996 33.483 178.136 32.892 178.136ZM32.892 177.233C33.3409 177.233 33.7102 177.118 34 176.888C34.2898 176.658 34.5043 176.355 34.6435 175.98C34.7827 175.605 34.8523 175.199 34.8523 174.761C34.8523 174.324 34.7827 173.916 34.6435 173.538C34.5043 173.161 34.2898 172.855 34 172.622C33.7102 172.389 33.3409 172.273 32.892 172.273C32.4432 172.273 32.0739 172.389 31.7841 172.622C31.4943 172.855 31.2798 173.161 31.1406 173.538C31.0014 173.916 30.9318 174.324 30.9318 174.761C30.9318 175.199 31.0014 175.605 31.1406 175.98C31.2798 176.355 31.4943 176.658 31.7841 176.888C32.0739 177.118 32.4432 177.233 32.892 177.233ZM36.6942 179.875V177.062H37.2397C37.3732 176.923 37.4883 176.773 37.5849 176.611C37.6815 176.449 37.7653 176.257 37.8363 176.036C37.9102 175.811 37.9727 175.538 38.0238 175.217C38.0749 174.893 38.1204 174.503 38.1602 174.045L38.3817 171.455H42.5408V177.062H43.5465V179.875H42.5408V178H37.6999V179.875H36.6942ZM38.3817 177.062H41.5352V172.392H39.3192L39.1488 174.045C39.0778 174.73 38.9897 175.328 38.8846 175.839C38.7795 176.351 38.6119 176.759 38.3817 177.062ZM49.2621 174.267V175.205H45.6484V174.267H49.2621ZM45.8871 171.455V178H44.8814V171.455H45.8871ZM50.0291 171.455V178H49.0234V171.455H50.0291ZM53.7919 178.153C53.3771 178.153 53.0007 178.075 52.6626 177.919C52.3246 177.76 52.0561 177.531 51.8572 177.233C51.6584 176.932 51.5589 176.568 51.5589 176.142C51.5589 175.767 51.6328 175.463 51.7805 175.23C51.9283 174.994 52.1257 174.81 52.3729 174.676C52.62 174.543 52.8928 174.443 53.1911 174.378C53.4922 174.31 53.7947 174.256 54.0987 174.216C54.4964 174.165 54.8189 174.126 55.0661 174.101C55.3161 174.072 55.4979 174.026 55.6115 173.96C55.728 173.895 55.7862 173.781 55.7862 173.619V173.585C55.7862 173.165 55.6712 172.838 55.4411 172.605C55.2138 172.372 54.8686 172.256 54.4055 172.256C53.9254 172.256 53.549 172.361 53.2763 172.571C53.0036 172.781 52.8118 173.006 52.701 173.244L51.7464 172.903C51.9169 172.506 52.1442 172.196 52.4283 171.974C52.7152 171.75 53.0277 171.594 53.3658 171.506C53.7067 171.415 54.0419 171.369 54.3714 171.369C54.5817 171.369 54.8232 171.395 55.0959 171.446C55.3714 171.494 55.6371 171.595 55.8928 171.749C56.1513 171.902 56.3658 172.134 56.5362 172.443C56.7067 172.753 56.7919 173.168 56.7919 173.688V178H55.7862V177.114H55.7351C55.6669 177.256 55.5533 177.408 55.3942 177.57C55.2351 177.732 55.0234 177.869 54.7592 177.983C54.495 178.097 54.1726 178.153 53.7919 178.153ZM53.9453 177.25C54.343 177.25 54.6783 177.172 54.951 177.016C55.2266 176.859 55.4339 176.658 55.5732 176.411C55.7152 176.163 55.7862 175.903 55.7862 175.631V174.71C55.7436 174.761 55.6499 174.808 55.505 174.851C55.3629 174.891 55.1982 174.926 55.0107 174.957C54.826 174.986 54.6456 175.011 54.4695 175.034C54.2962 175.054 54.1555 175.071 54.0476 175.085C53.7862 175.119 53.5419 175.175 53.3146 175.251C53.0902 175.325 52.9084 175.437 52.7692 175.588C52.6328 175.736 52.5646 175.937 52.5646 176.193C52.5646 176.543 52.6939 176.807 52.9524 176.986C53.2138 177.162 53.5447 177.25 53.9453 177.25ZM62.565 178V172.375H60.8263C60.4343 172.375 60.1261 172.466 59.9016 172.648C59.6772 172.83 59.565 173.08 59.565 173.398C59.565 173.71 59.6658 173.956 59.8675 174.135C60.0721 174.314 60.3519 174.403 60.707 174.403H62.8207V175.341H60.707C60.2638 175.341 59.8817 175.263 59.5607 175.107C59.2397 174.95 58.9925 174.727 58.8192 174.438C58.646 174.145 58.5593 173.798 58.5593 173.398C58.5593 172.994 58.6502 172.648 58.832 172.358C59.0138 172.068 59.2738 171.845 59.6119 171.689C59.9528 171.533 60.3576 171.455 60.8263 171.455H63.5195V178H62.565ZM58.2013 178L60.0593 174.744H61.1502L59.2923 178H58.2013ZM66.0987 178.068C65.8885 178.068 65.7081 177.993 65.5575 177.842C65.407 177.692 65.3317 177.511 65.3317 177.301C65.3317 177.091 65.407 176.911 65.5575 176.76C65.7081 176.609 65.8885 176.534 66.0987 176.534C66.3089 176.534 66.4893 176.609 66.6399 176.76C66.7905 176.911 66.8658 177.091 66.8658 177.301C66.8658 177.44 66.8303 177.568 66.7592 177.685C66.6911 177.801 66.5987 177.895 66.4822 177.966C66.3686 178.034 66.2408 178.068 66.0987 178.068ZM26.7898 193H25.6818L28.8864 184.273H29.9773L33.1818 193H32.0739L29.4659 185.653H29.3977L26.7898 193ZM27.1989 189.591H31.6648V190.528H27.1989V189.591ZM40.5241 193.136C39.8935 193.136 39.3494 192.997 38.892 192.719C38.4375 192.438 38.0866 192.045 37.8395 191.543C37.5952 191.037 37.473 190.449 37.473 189.778C37.473 189.108 37.5952 188.517 37.8395 188.006C38.0866 187.491 38.4304 187.091 38.8707 186.804C39.3139 186.514 39.831 186.369 40.4219 186.369C40.7628 186.369 41.0994 186.426 41.4318 186.54C41.7642 186.653 42.0668 186.838 42.3395 187.094C42.6122 187.347 42.8295 187.682 42.9915 188.099C43.1534 188.517 43.2344 189.031 43.2344 189.642V190.068H38.1889V189.199H42.2116C42.2116 188.83 42.1378 188.5 41.9901 188.21C41.8452 187.92 41.6378 187.692 41.3679 187.524C41.1009 187.357 40.7855 187.273 40.4219 187.273C40.0213 187.273 39.6747 187.372 39.3821 187.571C39.0923 187.767 38.8693 188.023 38.7131 188.338C38.5568 188.653 38.4787 188.991 38.4787 189.352V189.932C38.4787 190.426 38.5639 190.845 38.7344 191.189C38.9077 191.53 39.1477 191.79 39.4545 191.969C39.7614 192.145 40.1179 192.233 40.5241 192.233C40.7884 192.233 41.027 192.196 41.2401 192.122C41.456 192.045 41.642 191.932 41.7983 191.781C41.9545 191.628 42.0753 191.437 42.1605 191.21L43.1321 191.483C43.0298 191.812 42.858 192.102 42.6165 192.352C42.375 192.599 42.0767 192.793 41.7216 192.932C41.3665 193.068 40.9673 193.136 40.5241 193.136ZM47.4233 193.136C46.8097 193.136 46.2813 192.991 45.8381 192.702C45.3949 192.412 45.054 192.013 44.8153 191.504C44.5767 190.996 44.4574 190.415 44.4574 189.761C44.4574 189.097 44.5795 188.51 44.8239 188.001C45.071 187.49 45.4148 187.091 45.8551 186.804C46.2983 186.514 46.8153 186.369 47.4062 186.369C47.8665 186.369 48.2812 186.455 48.6506 186.625C49.0199 186.795 49.3224 187.034 49.5582 187.341C49.794 187.648 49.9403 188.006 49.9972 188.415H48.9915C48.9148 188.116 48.7443 187.852 48.4801 187.622C48.2188 187.389 47.8665 187.273 47.4233 187.273C47.0313 187.273 46.6875 187.375 46.392 187.58C46.0994 187.781 45.8707 188.067 45.706 188.436C45.544 188.803 45.4631 189.233 45.4631 189.727C45.4631 190.233 45.5426 190.673 45.7017 191.048C45.8636 191.423 46.0909 191.714 46.3835 191.922C46.679 192.129 47.0256 192.233 47.4233 192.233C47.6847 192.233 47.9219 192.188 48.1349 192.097C48.348 192.006 48.5284 191.875 48.6761 191.705C48.8239 191.534 48.929 191.33 48.9915 191.091H49.9972C49.9403 191.477 49.7997 191.825 49.5753 192.135C49.3537 192.442 49.0597 192.686 48.6932 192.868C48.3295 193.047 47.9063 193.136 47.4233 193.136ZM50.8878 193V192.062H51.1264C51.3224 192.062 51.4858 192.024 51.6165 191.947C51.7472 191.868 51.8523 191.73 51.9318 191.534C52.0142 191.335 52.0767 191.06 52.1193 190.707C52.1648 190.352 52.1974 189.901 52.2173 189.352L52.3366 186.455H56.7003V193H55.6946V187.392H53.2912L53.1889 189.727C53.1662 190.264 53.1179 190.737 53.044 191.146C52.973 191.553 52.8636 191.893 52.7159 192.169C52.571 192.445 52.3778 192.652 52.1364 192.791C51.8949 192.93 51.5923 193 51.2287 193H50.8878ZM59.5511 191.517L62.7045 186.455H63.8636V193H62.858V187.938L59.7216 193H58.5455V186.455H59.5511V191.517ZM68.7056 187.392V186.455H74.0238V187.392H71.8761V193H70.8704V187.392H68.7056ZM77.0771 193.153C76.6623 193.153 76.2859 193.075 75.9478 192.919C75.6097 192.76 75.3413 192.531 75.1424 192.233C74.9435 191.932 74.8441 191.568 74.8441 191.142C74.8441 190.767 74.918 190.463 75.0657 190.23C75.2134 189.994 75.4109 189.81 75.658 189.676C75.9052 189.543 76.1779 189.443 76.4762 189.378C76.7773 189.31 77.0799 189.256 77.3839 189.216C77.7816 189.165 78.104 189.126 78.3512 189.101C78.6012 189.072 78.783 189.026 78.8967 188.96C79.0131 188.895 79.0714 188.781 79.0714 188.619V188.585C79.0714 188.165 78.9563 187.838 78.7262 187.605C78.4989 187.372 78.1538 187.256 77.6907 187.256C77.2106 187.256 76.8342 187.361 76.5614 187.571C76.2887 187.781 76.0969 188.006 75.9862 188.244L75.0316 187.903C75.2021 187.506 75.4293 187.196 75.7134 186.974C76.0004 186.75 76.3129 186.594 76.6509 186.506C76.9918 186.415 77.3271 186.369 77.6566 186.369C77.8668 186.369 78.1083 186.395 78.381 186.446C78.6566 186.494 78.9222 186.595 79.1779 186.749C79.4364 186.902 79.6509 187.134 79.8214 187.443C79.9918 187.753 80.0771 188.168 80.0771 188.688V193H79.0714V192.114H79.0202C78.9521 192.256 78.8384 192.408 78.6793 192.57C78.5202 192.732 78.3086 192.869 78.0444 192.983C77.7802 193.097 77.4577 193.153 77.0771 193.153ZM77.2305 192.25C77.6282 192.25 77.9634 192.172 78.2362 192.016C78.5117 191.859 78.7191 191.658 78.8583 191.411C79.0004 191.163 79.0714 190.903 79.0714 190.631V189.71C79.0288 189.761 78.935 189.808 78.7901 189.851C78.6481 189.891 78.4833 189.926 78.2958 189.957C78.1112 189.986 77.9308 190.011 77.7546 190.034C77.5813 190.054 77.4407 190.071 77.3327 190.085C77.0714 190.119 76.8271 190.175 76.5998 190.251C76.3754 190.325 76.1935 190.437 76.0543 190.588C75.918 190.736 75.8498 190.937 75.8498 191.193C75.8498 191.543 75.979 191.807 76.2376 191.986C76.4989 192.162 76.8299 192.25 77.2305 192.25ZM81.9126 193V186.455H82.9183V189.301H83.5831L85.9354 186.455H87.2308L84.5888 189.608L87.2649 193H85.9695L83.8217 190.239H82.9183V193H81.9126ZM89.6705 190.545V190.494C89.6761 189.952 89.733 189.52 89.8409 189.199C89.9489 188.878 90.1023 188.618 90.3011 188.419C90.5 188.22 90.7386 188.037 91.017 187.869C91.1847 187.767 91.3352 187.646 91.4688 187.507C91.6023 187.365 91.7074 187.202 91.7841 187.017C91.8636 186.832 91.9034 186.628 91.9034 186.403C91.9034 186.125 91.8381 185.884 91.7074 185.679C91.5767 185.474 91.402 185.317 91.1832 185.206C90.9645 185.095 90.7216 185.04 90.4545 185.04C90.2216 185.04 89.9972 185.088 89.7812 185.185C89.5653 185.281 89.3849 185.433 89.2401 185.641C89.0952 185.848 89.0114 186.119 88.9886 186.455H87.9148C87.9375 185.972 88.0625 185.558 88.2898 185.214C88.5199 184.871 88.8224 184.608 89.1974 184.426C89.5753 184.244 89.9943 184.153 90.4545 184.153C90.9545 184.153 91.3892 184.253 91.7585 184.452C92.1307 184.651 92.4176 184.923 92.6193 185.27C92.8239 185.616 92.9261 186.011 92.9261 186.455C92.9261 186.767 92.8778 187.05 92.7812 187.303C92.6875 187.555 92.5511 187.781 92.3722 187.98C92.196 188.179 91.983 188.355 91.733 188.509C91.483 188.665 91.2827 188.83 91.1321 189.003C90.9815 189.173 90.8722 189.376 90.804 189.612C90.7358 189.848 90.6989 190.142 90.6932 190.494V190.545H89.6705ZM90.2159 193.068C90.0057 193.068 89.8253 192.993 89.6747 192.842C89.5241 192.692 89.4489 192.511 89.4489 192.301C89.4489 192.091 89.5241 191.911 89.6747 191.76C89.8253 191.609 90.0057 191.534 90.2159 191.534C90.4261 191.534 90.6065 191.609 90.7571 191.76C90.9077 191.911 90.983 192.091 90.983 192.301C90.983 192.44 90.9474 192.568 90.8764 192.685C90.8082 192.801 90.7159 192.895 90.5994 192.966C90.4858 193.034 90.358 193.068 90.2159 193.068Z" fill="black"/>
</svg>
