<svg width="668" height="550" viewBox="0 0 668 550" fill="none" xmlns="http://www.w3.org/2000/svg">
<path d="M492.566 145.366C494.087 143.051 495.464 137.937 495.27 133.143C495.046 127.614 492.098 119.742 491.158 113.742C490.888 112.019 488.401 110.584 485.729 109.324C481.407 107.286 476.34 110.65 472.51 112.144C468.265 113.8 463.613 117.309 461.181 119.722C458.703 122.181 454.1 127.703 452.712 133.35C451.414 138.634 454.012 143.047 454.392 147.308C454.787 151.736 456.954 155.335 458.147 159.624C459.396 164.117 461.453 169.307 463.464 174.134C464.928 178.27 465.951 181.285 466.965 182.783C467.438 183.595 467.827 184.511 469.167 187.074" stroke="#A6300A" stroke-width="2" stroke-linecap="round"/>
<path d="M495.824 146.505C497.042 144.652 500.415 141.53 504.389 139.3C507.718 137.432 510.824 135.351 515.564 133.458C520.796 131.367 524.968 133.609 528.504 135.101C532.238 136.677 533.996 140.201 535.353 145.254C536.393 149.126 533.705 152.348 532.218 155.382C529.991 159.923 525.447 164.948 521.738 166.522C517.883 168.159 513.478 168.44 508.03 169.362C503.158 170.187 498.87 170.859 495.661 172.42C492.108 174.149 488.377 175.641 484.669 177.215C480.961 178.79 477.728 180.661 475.534 183.231C474.957 183.858 474.271 184.399 473.575 184.948C472.878 185.497 472.193 186.037 470.787 186.135" stroke="#A6300A" stroke-width="2" stroke-linecap="round"/>
<path d="M476.821 172.493C478.365 173.177 483.138 172.999 487.356 170.923C493.713 167.795 498.116 165.475 501.663 163.629C505.654 161.552 512.416 157.886 517.514 155.012C517.906 154.791 516.798 154.356 515.754 154.666C509.953 156.387 501.638 161.7 496.668 164.654C495.7 165.229 494.366 165.635 494.498 165.411C497.027 161.125 502.956 161.645 515.125 157.323C520.814 155.302 523.809 153.305 525.151 152.024C525.867 151.34 526.414 150.36 526.265 149.581C526.116 148.802 525.193 148.195 523.952 148.041C517.692 147.263 511.452 151.825 507.548 153.941C504.841 155.409 502.023 155.994 500.63 156.086C499.253 156.177 501.658 151.458 504.53 147.842C507.888 143.614 514.224 145.014 518.895 143.241C520.025 142.812 520.939 142.416 520.992 142.601C521.899 145.744 516.357 147.377 514.009 149.685C513.86 149.832 514.261 149.044 513.961 148.997C510.111 148.397 505.417 151.865 499.78 154.34C495.054 156.415 492.295 158.606 488.94 160.412C485.558 162.233 483.126 164.939 481.966 165.684C479.664 167.161 487.647 162.601 492.309 159.827C496.679 157.226 499.905 155.635 501.875 154.42C504.257 152.951 494.242 158.203 489.136 159.87C483.895 161.581 480.659 164.64 474.871 166.85C473.556 167.352 472.629 167.716 471.887 167.573C471.144 167.431 470.603 166.745 470.397 165.778C469.469 161.423 470.914 157.616 474.615 151.716C476.117 149.322 478.045 148.271 478.781 147.913C481.68 146.504 473.45 152.232 469.331 154.698C464.554 157.557 462.115 158.814 461.105 158.827C457.209 158.875 466.305 152.925 470.341 149.068C474.633 144.967 477.375 142.173 479.541 139.906C479.815 139.619 478.628 139.291 477.544 139.409C472.879 139.92 469.607 143.357 464.703 145.989C462.875 146.97 468.717 142.152 472.541 137.344C477.541 131.06 479.29 125.054 479.085 123.087C478.983 122.101 478.498 121.199 477.955 120.997C472.135 118.836 461.785 128.864 459.02 130.748C456.268 132.623 465.119 124.766 467.616 122.231C470.473 119.329 472.571 116.974 473.539 116.264C477.812 113.125 466.754 122.796 461.979 125.497C459.792 126.735 458.427 128.351 457.962 129.051C455.893 132.166 465.822 127.231 470.103 125.037C472.506 123.805 474.627 122.992 475.478 122.71C479.382 121.417 470.751 130.429 467.717 133.774C465.501 136.217 462.743 137.526 462.012 138.387C461.922 138.493 462.263 137.25 462.915 136.502C465.499 133.536 469.578 132.703 473.088 131.164C476.71 129.575 479.774 129.378 480.404 129.942C483.181 132.428 476.353 136.123 475.736 137.055C475.517 137.386 476.649 137.67 477.618 137.475C481.984 136.599 485.367 134.064 488.04 132.801C492.046 130.908 482.902 142.419 478.899 145.462C475.753 147.855 472.762 152.761 470.538 156.648C469.275 158.857 476.215 154.089 479.303 151.942C482.973 149.391 485.23 146.984 486.507 146.816C489.947 146.365 481.676 154.953 479.094 158.113C477.75 159.759 476.134 161.346 475.749 162.435C474.588 165.719 483.884 158.146 488.49 155.48C491.764 153.585 494.783 152.259 495.984 152.207C496.424 152.188 495.892 153.619 495.356 154.443C493.305 157.593 488.578 158.166 484.726 160.477C481.291 162.538 478.103 164.963 474.605 168.503C473.137 169.989 471.522 172.937 471.082 174.36C470.643 175.784 471.639 175.777 472.801 175.54C478.435 174.389 483.069 171.611 486.424 169.805C489.67 168.057 494.152 164.893 498.214 162.53C501.401 160.675 508.237 157.144 513.796 155.573C517.639 154.487 520.323 153.017 521.599 152.849C524.777 152.432 517.835 159.364 515.06 161.551C511.805 164.118 507.441 166.555 503.733 168.129C502.803 168.524 501.886 168.913 501.717 168.652C499.975 165.958 508.156 164.401 511.793 162.439C515.482 160.45 521.098 157.903 525.211 155.232C528.174 153.308 530.215 151.175 531.062 149.894C531.343 149.469 530.227 149.16 529.334 149.239C524.13 149.7 517.792 152.326 513.082 153.908C511.018 154.601 508.825 154.786 507.701 155.224C503.772 156.755 514.962 150.506 519.431 148.27C523.982 145.992 526.053 142.772 527.939 139.665C528.304 139.063 527.213 138.507 526.398 138.467C522.633 138.283 519.111 141.175 515.029 144.331C510.765 147.628 506.623 148.993 502.735 151.61C498.545 154.431 495.309 156.58 492.257 158.916C487.353 162.669 482.823 165.401 480.088 167.78C477.016 170.452 474.447 173.577 471.179 177.278C470.47 178.08 469.294 177.882 468.587 177.427C467.879 176.972 467.49 176.056 468.048 174.429C470.766 166.504 476.294 165.156 479.526 162.273C482.763 159.384 484.84 157.743 485.536 157.194C487.683 155.502 480.005 160.545 476.153 162.856C475.182 163.438 474.228 163.759 474.286 163.151C474.795 157.882 480.096 155.317 485.562 148.263C494.538 136.678 498.355 128.548 496.706 129.793C492.47 132.991 486.887 134.342 482.744 136.312C478.629 138.268 474.309 141.78 471.752 142.624C466.595 144.325 478.648 134.657 481.3 132.389C484.296 129.827 487.183 127.246 488.655 125.524C491.193 122.556 483.521 130.808 477.684 134.129C464.407 141.681 459.024 143.735 455.519 144.977C443.709 149.162 469.739 119.76 469.172 121.386C468.067 124.553 464.152 126.755 460.565 128.914C458.682 130.048 457.288 131.608 456.707 132.233C454.035 135.108 465.824 128.234 470.343 126.196C475.249 124.071 478.948 122.496 481.609 121.746C482.74 121.312 483.426 120.772 484.132 120.214" stroke="#A6300A" stroke-width="2" stroke-linecap="round"/>
<path d="M459 302C459 359.438 399.902 406 327 406C254.098 406 195 359.438 195 302C195 244.562 260.606 239 333.508 239C406.409 239 459 244.562 459 302Z" fill="#EA7C7C"/>
<path d="M459 302C459 359.438 399.902 406 327 406C254.098 406 195 359.438 195 302C195 244.562 260.606 239 333.508 239C406.409 239 459 244.562 459 302Z" fill="#FF9822" fill-opacity="0.2"/>
<path d="M459.008 302.5C459.008 320.725 403.98 273 380.508 273C357.036 273 332.008 258.725 332.008 240.5C332.008 222.275 424.536 180 448.008 180C471.48 180 459.008 284.275 459.008 302.5Z" fill="#EE816A"/>
<path d="M195.316 302.5C195.316 320.725 250.344 273 273.816 273C297.289 273 322.316 258.725 322.316 240.5C322.316 222.275 229.789 180 206.316 180C182.844 180 195.316 284.275 195.316 302.5Z" fill="#EE816A"/>
<circle cx="265.508" cy="315.5" r="8.5" fill="black"/>
<circle cx="392.508" cy="315.5" r="8.5" fill="black"/>
<path d="M338.009 341.5C340.174 348.658 337.166 352.243 329.509 349.5C318.007 352.5 321.009 346.194 321.009 341.5C321.009 336.806 324.815 333 329.509 333C334.204 333 338.009 336.806 338.009 341.5Z" fill="black"/>
<ellipse cx="108.5" cy="255.5" rx="71.5" ry="50.5" fill="#D9D9D9"/>
<path d="M223.131 280.289C222.67 291.601 125.073 289.824 103.528 288.946C81.9834 288.067 64.8916 278.185 65.3527 266.873C65.8137 255.56 83.6531 247.102 105.198 247.98C126.743 248.858 223.592 268.976 223.131 280.289Z" fill="#D9D9D9"/>
<path d="M79.9886 242H78.9318V234.21H77.0739C76.6023 234.21 76.223 234.283 75.9361 234.428C75.6491 234.57 75.4403 234.771 75.3097 235.033C75.179 235.294 75.1136 235.599 75.1136 235.949C75.1136 236.298 75.1776 236.599 75.3054 236.852C75.4361 237.102 75.6435 237.295 75.9276 237.432C76.2145 237.568 76.5909 237.636 77.0568 237.636H79.4091V238.591H77.0227C76.3466 238.591 75.7912 238.479 75.3565 238.254C74.9219 238.027 74.5994 237.714 74.3892 237.317C74.179 236.919 74.0739 236.463 74.0739 235.949C74.0739 235.435 74.179 234.976 74.3892 234.572C74.5994 234.169 74.9233 233.852 75.3608 233.622C75.7983 233.389 76.358 233.273 77.0398 233.273H79.9886V242ZM75.8807 238.08H77.0739L74.9602 242H73.733L75.8807 238.08ZM84.9712 236.392V235.455H90.2894V236.392H88.1417V242H87.136V236.392H84.9712ZM94.1609 242.136C93.5302 242.136 92.9862 241.997 92.5288 241.719C92.0742 241.438 91.7234 241.045 91.4762 240.543C91.2319 240.037 91.1097 239.449 91.1097 238.778C91.1097 238.108 91.2319 237.517 91.4762 237.006C91.7234 236.491 92.0671 236.091 92.5075 235.804C92.9506 235.514 93.4677 235.369 94.0586 235.369C94.3995 235.369 94.7362 235.426 95.0685 235.54C95.4009 235.653 95.7035 235.838 95.9762 236.094C96.2489 236.347 96.4663 236.682 96.6282 237.099C96.7901 237.517 96.8711 238.031 96.8711 238.642V239.068H91.8256V238.199H95.8484C95.8484 237.83 95.7745 237.5 95.6268 237.21C95.4819 236.92 95.2745 236.692 95.0046 236.524C94.7376 236.357 94.4222 236.273 94.0586 236.273C93.658 236.273 93.3114 236.372 93.0188 236.571C92.729 236.767 92.506 237.023 92.3498 237.338C92.1935 237.653 92.1154 237.991 92.1154 238.352V238.932C92.1154 239.426 92.2006 239.845 92.3711 240.189C92.5444 240.53 92.7844 240.79 93.0913 240.969C93.3981 241.145 93.7546 241.233 94.1609 241.233C94.4251 241.233 94.6637 241.196 94.8768 241.122C95.0927 241.045 95.2788 240.932 95.435 240.781C95.5913 240.628 95.712 240.437 95.7972 240.21L96.7688 240.483C96.6665 240.812 96.4947 241.102 96.2532 241.352C96.0117 241.599 95.7134 241.793 95.3583 241.932C95.0032 242.068 94.604 242.136 94.1609 242.136ZM103.259 233L103.77 233.614C103.571 233.807 103.341 233.942 103.08 234.018C102.819 234.095 102.523 234.142 102.194 234.159C101.864 234.176 101.498 234.193 101.094 234.21C100.64 234.227 100.263 234.338 99.9648 234.543C99.6665 234.747 99.4364 235.043 99.2745 235.429C99.1126 235.815 99.0089 236.29 98.9634 236.852H99.0487C99.2702 236.443 99.5771 236.142 99.9691 235.949C100.361 235.756 100.782 235.659 101.23 235.659C101.742 235.659 102.202 235.778 102.611 236.017C103.02 236.256 103.344 236.609 103.583 237.078C103.821 237.547 103.941 238.125 103.941 238.812C103.941 239.497 103.819 240.088 103.574 240.585C103.333 241.082 102.993 241.466 102.556 241.736C102.121 242.003 101.611 242.136 101.026 242.136C100.441 242.136 99.9279 241.999 99.4876 241.723C99.0472 241.445 98.7049 241.033 98.4606 240.487C98.2163 239.939 98.0941 239.261 98.0941 238.455V237.756C98.0941 236.298 98.3413 235.193 98.8356 234.44C99.3327 233.687 100.08 233.298 101.077 233.273C101.429 233.261 101.743 233.259 102.019 233.264C102.294 233.27 102.534 233.257 102.739 233.226C102.944 233.195 103.117 233.119 103.259 233ZM101.026 241.233C101.421 241.233 101.76 241.134 102.044 240.935C102.331 240.736 102.551 240.456 102.705 240.095C102.858 239.732 102.935 239.304 102.935 238.812C102.935 238.335 102.857 237.929 102.701 237.594C102.547 237.259 102.327 237.003 102.04 236.827C101.753 236.651 101.409 236.562 101.009 236.562C100.716 236.562 100.453 236.612 100.221 236.712C99.9876 236.811 99.7887 236.957 99.6239 237.151C99.4592 237.344 99.3313 237.58 99.2404 237.858C99.1523 238.136 99.1055 238.455 99.0998 238.812C99.0998 239.545 99.2717 240.132 99.6154 240.572C99.9592 241.013 100.429 241.233 101.026 241.233ZM109.417 242V236.375H107.678C107.286 236.375 106.978 236.466 106.753 236.648C106.529 236.83 106.417 237.08 106.417 237.398C106.417 237.71 106.517 237.956 106.719 238.135C106.924 238.314 107.203 238.403 107.559 238.403H109.672V239.341H107.559C107.115 239.341 106.733 239.263 106.412 239.107C106.091 238.95 105.844 238.727 105.671 238.438C105.498 238.145 105.411 237.798 105.411 237.398C105.411 236.994 105.502 236.648 105.684 236.358C105.865 236.068 106.125 235.845 106.463 235.689C106.804 235.533 107.209 235.455 107.678 235.455H110.371V242H109.417ZM105.053 242L106.911 238.744H108.002L106.144 242H105.053ZM74.5682 259.455C74.3977 259.455 74.2457 259.44 74.1122 259.412C73.9787 259.386 73.8864 259.361 73.8352 259.335L74.0909 258.449C74.3352 258.511 74.5511 258.534 74.7386 258.517C74.9261 258.5 75.0923 258.416 75.2372 258.266C75.3849 258.118 75.5199 257.878 75.642 257.545L75.8295 257.034L73.4091 250.455H74.5L76.3068 255.67H76.375L78.1818 250.455H79.2727L76.4943 257.955C76.3693 258.293 76.2145 258.572 76.0298 258.794C75.8452 259.018 75.6307 259.185 75.3864 259.293C75.1449 259.401 74.8722 259.455 74.5682 259.455ZM83.0249 257.136C82.4112 257.136 81.8828 256.991 81.4396 256.702C80.9964 256.412 80.6555 256.013 80.4169 255.504C80.1783 254.996 80.0589 254.415 80.0589 253.761C80.0589 253.097 80.1811 252.51 80.4254 252.001C80.6726 251.49 81.0163 251.091 81.4567 250.804C81.8999 250.514 82.4169 250.369 83.0078 250.369C83.468 250.369 83.8828 250.455 84.2521 250.625C84.6214 250.795 84.924 251.034 85.1598 251.341C85.3956 251.648 85.5419 252.006 85.5987 252.415H84.593C84.5163 252.116 84.3459 251.852 84.0817 251.622C83.8203 251.389 83.468 251.273 83.0249 251.273C82.6328 251.273 82.2891 251.375 81.9936 251.58C81.701 251.781 81.4723 252.067 81.3075 252.436C81.1456 252.803 81.0646 253.233 81.0646 253.727C81.0646 254.233 81.1442 254.673 81.3033 255.048C81.4652 255.423 81.6925 255.714 81.9851 255.922C82.2805 256.129 82.6271 256.233 83.0249 256.233C83.2862 256.233 83.5234 256.188 83.7365 256.097C83.9496 256.006 84.13 255.875 84.2777 255.705C84.4254 255.534 84.5305 255.33 84.593 255.091H85.5987C85.5419 255.477 85.4013 255.825 85.1768 256.135C84.9553 256.442 84.6612 256.686 84.2947 256.868C83.9311 257.047 83.5078 257.136 83.0249 257.136ZM86.4893 257V256.062H86.728C86.924 256.062 87.0874 256.024 87.218 255.947C87.3487 255.868 87.4538 255.73 87.5334 255.534C87.6158 255.335 87.6783 255.06 87.7209 254.707C87.7663 254.352 87.799 253.901 87.8189 253.352L87.9382 250.455H92.3018V257H91.2962V251.392H88.8928L88.7905 253.727C88.7678 254.264 88.7195 254.737 88.6456 255.146C88.5746 255.553 88.4652 255.893 88.3175 256.169C88.1726 256.445 87.9794 256.652 87.7379 256.791C87.4964 256.93 87.1939 257 86.8303 257H86.4893ZM95.0163 252.824H96.8913C97.6584 252.824 98.245 253.018 98.6513 253.408C99.0575 253.797 99.2607 254.29 99.2607 254.886C99.2607 255.278 99.1697 255.635 98.9879 255.956C98.8061 256.274 98.5391 256.528 98.1868 256.719C97.8345 256.906 97.4027 257 96.8913 257H94.147V250.455H95.1527V256.062H96.8913C97.2891 256.062 97.6158 255.957 97.8714 255.747C98.1271 255.537 98.255 255.267 98.255 254.938C98.255 254.591 98.1271 254.308 97.8714 254.089C97.6158 253.871 97.2891 253.761 96.8913 253.761H95.0163V252.824ZM100.3 257V250.455H101.306V257H100.3ZM103.147 250.455H104.153V256.062H106.624V250.455H107.63V256.062H110.102V250.455H111.107V257H103.147V250.455ZM114.87 257.153C114.455 257.153 114.079 257.075 113.741 256.919C113.403 256.76 113.134 256.531 112.935 256.233C112.737 255.932 112.637 255.568 112.637 255.142C112.637 254.767 112.711 254.463 112.859 254.23C113.006 253.994 113.204 253.81 113.451 253.676C113.698 253.543 113.971 253.443 114.269 253.378C114.57 253.31 114.873 253.256 115.177 253.216C115.575 253.165 115.897 253.126 116.144 253.101C116.394 253.072 116.576 253.026 116.69 252.96C116.806 252.895 116.864 252.781 116.864 252.619V252.585C116.864 252.165 116.749 251.838 116.519 251.605C116.292 251.372 115.947 251.256 115.484 251.256C115.004 251.256 114.627 251.361 114.354 251.571C114.082 251.781 113.89 252.006 113.779 252.244L112.825 251.903C112.995 251.506 113.222 251.196 113.506 250.974C113.793 250.75 114.106 250.594 114.444 250.506C114.785 250.415 115.12 250.369 115.45 250.369C115.66 250.369 115.901 250.395 116.174 250.446C116.45 250.494 116.715 250.595 116.971 250.749C117.229 250.902 117.444 251.134 117.614 251.443C117.785 251.753 117.87 252.168 117.87 252.688V257H116.864V256.114H116.813C116.745 256.256 116.631 256.408 116.472 256.57C116.313 256.732 116.102 256.869 115.837 256.983C115.573 257.097 115.251 257.153 114.87 257.153ZM115.023 256.25C115.421 256.25 115.756 256.172 116.029 256.016C116.305 255.859 116.512 255.658 116.651 255.411C116.793 255.163 116.864 254.903 116.864 254.631V253.71C116.822 253.761 116.728 253.808 116.583 253.851C116.441 253.891 116.276 253.926 116.089 253.957C115.904 253.986 115.724 254.011 115.548 254.034C115.374 254.054 115.234 254.071 115.126 254.085C114.864 254.119 114.62 254.175 114.393 254.251C114.168 254.325 113.987 254.437 113.847 254.588C113.711 254.736 113.643 254.937 113.643 255.193C113.643 255.543 113.772 255.807 114.031 255.986C114.292 256.162 114.623 256.25 115.023 256.25ZM119.126 257V256.062H119.365C119.561 256.062 119.724 256.024 119.855 255.947C119.985 255.868 120.091 255.73 120.17 255.534C120.252 255.335 120.315 255.06 120.358 254.707C120.403 254.352 120.436 253.901 120.456 253.352L120.575 250.455H124.939V257H123.933V251.392H121.529L121.427 253.727C121.404 254.264 121.356 254.737 121.282 255.146C121.211 255.553 121.102 255.893 120.954 256.169C120.809 256.445 120.616 256.652 120.375 256.791C120.133 256.93 119.831 257 119.467 257H119.126ZM127.517 257.068C127.306 257.068 127.126 256.993 126.975 256.842C126.825 256.692 126.75 256.511 126.75 256.301C126.75 256.091 126.825 255.911 126.975 255.76C127.126 255.609 127.306 255.534 127.517 255.534C127.727 255.534 127.907 255.609 128.058 255.76C128.208 255.911 128.284 256.091 128.284 256.301C128.284 256.44 128.248 256.568 128.177 256.685C128.109 256.801 128.017 256.895 127.9 256.966C127.787 257.034 127.659 257.068 127.517 257.068ZM133.958 257H132.85L136.054 248.273H137.145L140.35 257H139.242L136.634 249.653H136.566L133.958 257ZM134.367 253.591H138.833V254.528H134.367V253.591ZM76.6648 272.136C76.0341 272.136 75.4901 271.997 75.0327 271.719C74.5781 271.438 74.2273 271.045 73.9801 270.543C73.7358 270.037 73.6136 269.449 73.6136 268.778C73.6136 268.108 73.7358 267.517 73.9801 267.006C74.2273 266.491 74.571 266.091 75.0114 265.804C75.4545 265.514 75.9716 265.369 76.5625 265.369C76.9034 265.369 77.2401 265.426 77.5724 265.54C77.9048 265.653 78.2074 265.838 78.4801 266.094C78.7528 266.347 78.9702 266.682 79.1321 267.099C79.294 267.517 79.375 268.031 79.375 268.642V269.068H74.3295V268.199H78.3523C78.3523 267.83 78.2784 267.5 78.1307 267.21C77.9858 266.92 77.7784 266.692 77.5085 266.524C77.2415 266.357 76.9261 266.273 76.5625 266.273C76.1619 266.273 75.8153 266.372 75.5227 266.571C75.233 266.767 75.0099 267.023 74.8537 267.338C74.6974 267.653 74.6193 267.991 74.6193 268.352V268.932C74.6193 269.426 74.7045 269.845 74.875 270.189C75.0483 270.53 75.2884 270.79 75.5952 270.969C75.902 271.145 76.2585 271.233 76.6648 271.233C76.929 271.233 77.1676 271.196 77.3807 271.122C77.5966 271.045 77.7827 270.932 77.9389 270.781C78.0952 270.628 78.2159 270.437 78.3011 270.21L79.2727 270.483C79.1705 270.812 78.9986 271.102 78.7571 271.352C78.5156 271.599 78.2173 271.793 77.8622 271.932C77.5071 272.068 77.108 272.136 76.6648 272.136ZM83.5639 272.136C82.9503 272.136 82.4219 271.991 81.9787 271.702C81.5355 271.412 81.1946 271.013 80.956 270.504C80.7173 269.996 80.598 269.415 80.598 268.761C80.598 268.097 80.7202 267.51 80.9645 267.001C81.2116 266.49 81.5554 266.091 81.9957 265.804C82.4389 265.514 82.956 265.369 83.5469 265.369C84.0071 265.369 84.4219 265.455 84.7912 265.625C85.1605 265.795 85.4631 266.034 85.6989 266.341C85.9347 266.648 86.081 267.006 86.1378 267.415H85.1321C85.0554 267.116 84.8849 266.852 84.6207 266.622C84.3594 266.389 84.0071 266.273 83.5639 266.273C83.1719 266.273 82.8281 266.375 82.5327 266.58C82.2401 266.781 82.0114 267.067 81.8466 267.436C81.6847 267.803 81.6037 268.233 81.6037 268.727C81.6037 269.233 81.6832 269.673 81.8423 270.048C82.0043 270.423 82.2315 270.714 82.5241 270.922C82.8196 271.129 83.1662 271.233 83.5639 271.233C83.8253 271.233 84.0625 271.188 84.2756 271.097C84.4886 271.006 84.669 270.875 84.8168 270.705C84.9645 270.534 85.0696 270.33 85.1321 270.091H86.1378C86.081 270.477 85.9403 270.825 85.7159 271.135C85.4943 271.442 85.2003 271.686 84.8338 271.868C84.4702 272.047 84.0469 272.136 83.5639 272.136ZM87.0284 272V271.062H87.267C87.4631 271.062 87.6264 271.024 87.7571 270.947C87.8878 270.868 87.9929 270.73 88.0724 270.534C88.1548 270.335 88.2173 270.06 88.2599 269.707C88.3054 269.352 88.3381 268.901 88.358 268.352L88.4773 265.455H92.8409V272H91.8352V266.392H89.4318L89.3295 268.727C89.3068 269.264 89.2585 269.737 89.1847 270.146C89.1136 270.553 89.0043 270.893 88.8565 271.169C88.7116 271.445 88.5185 271.652 88.277 271.791C88.0355 271.93 87.733 272 87.3693 272H87.0284ZM95.6918 270.517L98.8452 265.455H100.004V272H98.9986V266.938L95.8622 272H94.6861V265.455H95.6918V270.517ZM104.846 266.392V265.455H110.164V266.392H108.017V272H107.011V266.392H104.846ZM113.218 272.153C112.803 272.153 112.426 272.075 112.088 271.919C111.75 271.76 111.482 271.531 111.283 271.233C111.084 270.932 110.985 270.568 110.985 270.142C110.985 269.767 111.059 269.463 111.206 269.23C111.354 268.994 111.551 268.81 111.799 268.676C112.046 268.543 112.319 268.443 112.617 268.378C112.918 268.31 113.221 268.256 113.525 268.216C113.922 268.165 114.245 268.126 114.492 268.101C114.742 268.072 114.924 268.026 115.037 267.96C115.154 267.895 115.212 267.781 115.212 267.619V267.585C115.212 267.165 115.097 266.838 114.867 266.605C114.64 266.372 114.294 266.256 113.831 266.256C113.351 266.256 112.975 266.361 112.702 266.571C112.429 266.781 112.238 267.006 112.127 267.244L111.172 266.903C111.343 266.506 111.57 266.196 111.854 265.974C112.141 265.75 112.453 265.594 112.792 265.506C113.132 265.415 113.468 265.369 113.797 265.369C114.007 265.369 114.249 265.395 114.522 265.446C114.797 265.494 115.063 265.595 115.319 265.749C115.577 265.902 115.792 266.134 115.962 266.443C116.132 266.753 116.218 267.168 116.218 267.688V272H115.212V271.114H115.161C115.093 271.256 114.979 271.408 114.82 271.57C114.661 271.732 114.449 271.869 114.185 271.983C113.921 272.097 113.598 272.153 113.218 272.153ZM113.371 271.25C113.769 271.25 114.104 271.172 114.377 271.016C114.652 270.859 114.86 270.658 114.999 270.411C115.141 270.163 115.212 269.903 115.212 269.631V268.71C115.169 268.761 115.076 268.808 114.931 268.851C114.789 268.891 114.624 268.926 114.436 268.957C114.252 268.986 114.071 269.011 113.895 269.034C113.722 269.054 113.581 269.071 113.473 269.085C113.212 269.119 112.968 269.175 112.74 269.251C112.516 269.325 112.334 269.437 112.195 269.588C112.059 269.736 111.99 269.937 111.99 270.193C111.99 270.543 112.12 270.807 112.378 270.986C112.64 271.162 112.971 271.25 113.371 271.25ZM118.053 272V265.455H119.059V268.301H119.724L122.076 265.455H123.371L120.729 268.608L123.406 272H122.11L119.962 269.239H119.059V272H118.053ZM125.811 269.545V269.494C125.817 268.952 125.874 268.52 125.982 268.199C126.089 267.878 126.243 267.618 126.442 267.419C126.641 267.22 126.879 267.037 127.158 266.869C127.325 266.767 127.476 266.646 127.609 266.507C127.743 266.365 127.848 266.202 127.925 266.017C128.004 265.832 128.044 265.628 128.044 265.403C128.044 265.125 127.979 264.884 127.848 264.679C127.717 264.474 127.543 264.317 127.324 264.206C127.105 264.095 126.862 264.04 126.595 264.04C126.362 264.04 126.138 264.088 125.922 264.185C125.706 264.281 125.526 264.433 125.381 264.641C125.236 264.848 125.152 265.119 125.129 265.455H124.055C124.078 264.972 124.203 264.558 124.43 264.214C124.661 263.871 124.963 263.608 125.338 263.426C125.716 263.244 126.135 263.153 126.595 263.153C127.095 263.153 127.53 263.253 127.899 263.452C128.271 263.651 128.558 263.923 128.76 264.27C128.964 264.616 129.067 265.011 129.067 265.455C129.067 265.767 129.018 266.05 128.922 266.303C128.828 266.555 128.692 266.781 128.513 266.98C128.337 267.179 128.124 267.355 127.874 267.509C127.624 267.665 127.423 267.83 127.273 268.003C127.122 268.173 127.013 268.376 126.945 268.612C126.876 268.848 126.839 269.142 126.834 269.494V269.545H125.811ZM126.357 272.068C126.146 272.068 125.966 271.993 125.815 271.842C125.665 271.692 125.589 271.511 125.589 271.301C125.589 271.091 125.665 270.911 125.815 270.76C125.966 270.609 126.146 270.534 126.357 270.534C126.567 270.534 126.747 270.609 126.898 270.76C127.048 270.911 127.124 271.091 127.124 271.301C127.124 271.44 127.088 271.568 127.017 271.685C126.949 271.801 126.857 271.895 126.74 271.966C126.626 272.034 126.499 272.068 126.357 272.068Z" fill="black"/>
<ellipse cx="133.5" cy="243" rx="110.5" ry="78" fill="#D9D9D9"/>
<path d="M225.832 321.549C219.876 331.177 135.818 281.765 117.5 270.434C99.1827 259.103 89.1617 242.111 95.1178 232.483C101.074 222.854 120.752 224.235 139.069 235.566C157.387 246.897 231.788 311.92 225.832 321.549Z" fill="#D9D9D9"/>
<path d="M53.6477 231H51.8864V218.017H48.7898C48.0038 218.017 47.3717 218.138 46.8935 218.379C46.4152 218.616 46.0672 218.952 45.8494 219.388C45.6316 219.823 45.5227 220.332 45.5227 220.915C45.5227 221.497 45.6293 221.999 45.8423 222.42C46.0601 222.837 46.4058 223.159 46.8793 223.386C47.3575 223.614 47.9848 223.727 48.7614 223.727H52.6818V225.318H48.7045C47.5777 225.318 46.652 225.131 45.9276 224.757C45.2031 224.378 44.6657 223.857 44.3153 223.195C43.965 222.532 43.7898 221.772 43.7898 220.915C43.7898 220.058 43.965 219.293 44.3153 218.621C44.6657 217.948 45.2055 217.42 45.9347 217.037C46.6638 216.649 47.5966 216.455 48.733 216.455H53.6477V231ZM46.8011 224.466H48.7898L45.267 231H43.2216L46.8011 224.466ZM61.9521 221.653V220.091H70.8157V221.653H67.2362V231H65.56V221.653H61.9521ZM77.2681 231.227C76.217 231.227 75.3103 230.995 74.5479 230.531C73.7904 230.062 73.2056 229.409 72.7937 228.571C72.3865 227.728 72.1829 226.748 72.1829 225.631C72.1829 224.513 72.3865 223.528 72.7937 222.676C73.2056 221.819 73.7785 221.152 74.5124 220.673C75.2511 220.19 76.1128 219.949 77.0977 219.949C77.6658 219.949 78.2269 220.044 78.7809 220.233C79.3349 220.422 79.8391 220.73 80.2937 221.156C80.7482 221.578 81.1104 222.136 81.3803 222.832C81.6502 223.528 81.7852 224.385 81.7852 225.403V226.114H73.3761V224.665H80.0806C80.0806 224.049 79.9575 223.5 79.7113 223.017C79.4698 222.534 79.1242 222.153 78.6744 221.874C78.2293 221.594 77.7037 221.455 77.0977 221.455C76.43 221.455 75.8524 221.62 75.3647 221.952C74.8817 222.278 74.5101 222.705 74.2496 223.23C73.9892 223.756 73.859 224.319 73.859 224.92V225.886C73.859 226.71 74.0011 227.409 74.2852 227.982C74.574 228.55 74.9741 228.983 75.4854 229.281C75.9968 229.575 76.591 229.722 77.2681 229.722C77.7085 229.722 78.1062 229.66 78.4613 229.537C78.8211 229.409 79.1313 229.22 79.3917 228.969C79.6521 228.713 79.8533 228.396 79.9954 228.017L81.6147 228.472C81.4442 229.021 81.1578 229.504 80.7553 229.92C80.3529 230.332 79.8557 230.654 79.2638 230.886C78.672 231.114 78.0067 231.227 77.2681 231.227ZM92.4315 216L93.2837 217.023C92.9523 217.345 92.5688 217.57 92.1332 217.697C91.6976 217.825 91.2051 217.903 90.6559 217.932C90.1067 217.96 89.4959 217.989 88.8235 218.017C88.0659 218.045 87.4386 218.23 86.9414 218.571C86.4442 218.912 86.0607 219.404 85.7908 220.048C85.521 220.692 85.3481 221.483 85.2724 222.42H85.4144C85.7837 221.739 86.2951 221.237 86.9485 220.915C87.6019 220.593 88.3027 220.432 89.0508 220.432C89.9031 220.432 90.6701 220.631 91.3519 221.028C92.0337 221.426 92.5735 222.016 92.9712 222.797C93.369 223.578 93.5678 224.542 93.5678 225.688C93.5678 226.829 93.3642 227.813 92.957 228.642C92.5546 229.471 91.9888 230.11 91.2596 230.56C90.5352 231.005 89.6853 231.227 88.7099 231.227C87.7345 231.227 86.8799 230.998 86.146 230.538C85.4121 230.074 84.8415 229.388 84.4343 228.479C84.0271 227.565 83.8235 226.436 83.8235 225.091V223.926C83.8235 221.497 84.2354 219.655 85.0593 218.401C85.8879 217.146 87.1332 216.497 88.7951 216.455C89.3822 216.436 89.9054 216.431 90.3647 216.44C90.824 216.45 91.2241 216.429 91.565 216.376C91.9059 216.324 92.1947 216.199 92.4315 216ZM88.7099 229.722C89.368 229.722 89.9338 229.556 90.4073 229.224C90.8855 228.893 91.2525 228.427 91.5082 227.825C91.7638 227.219 91.8917 226.507 91.8917 225.688C91.8917 224.892 91.7615 224.215 91.5011 223.656C91.2454 223.098 90.8784 222.671 90.4002 222.378C89.922 222.084 89.3491 221.938 88.6815 221.938C88.1938 221.938 87.7558 222.02 87.3675 222.186C86.9793 222.352 86.6478 222.596 86.3732 222.918C86.0986 223.24 85.8855 223.633 85.734 224.097C85.5872 224.561 85.5091 225.091 85.4996 225.688C85.4996 226.909 85.7861 227.887 86.359 228.621C86.9319 229.355 87.7156 229.722 88.7099 229.722ZM102.694 231V221.625H99.7965C99.1431 221.625 98.6294 221.777 98.2553 222.08C97.8813 222.383 97.6942 222.799 97.6942 223.33C97.6942 223.85 97.8623 224.26 98.1985 224.558C98.5394 224.857 99.0058 225.006 99.5977 225.006H103.12V226.568H99.5977C98.859 226.568 98.2222 226.438 97.6871 226.178C97.1521 225.917 96.7402 225.545 96.4513 225.062C96.1625 224.575 96.0181 223.997 96.0181 223.33C96.0181 222.657 96.1696 222.08 96.4727 221.597C96.7757 221.114 97.2089 220.742 97.7724 220.482C98.3406 220.221 99.0153 220.091 99.7965 220.091H104.285V231H102.694ZM95.4215 231L98.5181 225.574H100.336L97.2397 231H95.4215ZM114.067 235.091C113.783 235.091 113.529 235.067 113.307 235.02C113.084 234.977 112.93 234.935 112.845 234.892L113.271 233.415C113.679 233.519 114.038 233.557 114.351 233.528C114.663 233.5 114.94 233.36 115.182 233.109C115.428 232.863 115.653 232.463 115.857 231.909L116.169 231.057L112.135 220.091H113.953L116.964 228.784H117.078L120.089 220.091H121.908L117.277 232.591C117.069 233.154 116.811 233.621 116.503 233.99C116.195 234.364 115.838 234.641 115.43 234.821C115.028 235.001 114.573 235.091 114.067 235.091ZM128.161 231.227C127.138 231.227 126.258 230.986 125.519 230.503C124.781 230.02 124.212 229.355 123.815 228.507C123.417 227.66 123.218 226.691 123.218 225.602C123.218 224.494 123.422 223.517 123.829 222.669C124.241 221.817 124.814 221.152 125.548 220.673C126.286 220.19 127.148 219.949 128.133 219.949C128.9 219.949 129.591 220.091 130.207 220.375C130.822 220.659 131.326 221.057 131.719 221.568C132.112 222.08 132.356 222.676 132.451 223.358H130.775C130.647 222.861 130.363 222.42 129.923 222.037C129.487 221.649 128.9 221.455 128.161 221.455C127.508 221.455 126.935 221.625 126.442 221.966C125.955 222.302 125.574 222.778 125.299 223.393C125.029 224.004 124.894 224.722 124.894 225.545C124.894 226.388 125.027 227.122 125.292 227.747C125.562 228.372 125.941 228.857 126.428 229.203C126.921 229.549 127.498 229.722 128.161 229.722C128.597 229.722 128.992 229.646 129.347 229.494C129.702 229.343 130.003 229.125 130.249 228.841C130.496 228.557 130.671 228.216 130.775 227.818H132.451C132.356 228.462 132.122 229.042 131.748 229.558C131.379 230.07 130.888 230.477 130.278 230.78C129.672 231.078 128.966 231.227 128.161 231.227ZM133.935 231V229.438H134.333C134.66 229.438 134.932 229.374 135.15 229.246C135.368 229.113 135.543 228.884 135.675 228.557C135.813 228.225 135.917 227.766 135.988 227.179C136.064 226.587 136.118 225.834 136.151 224.92L136.35 220.091H143.623V231H141.947V221.653H137.941L137.771 225.545C137.733 226.44 137.652 227.229 137.529 227.911C137.411 228.588 137.228 229.156 136.982 229.615C136.741 230.074 136.419 230.42 136.016 230.652C135.614 230.884 135.11 231 134.504 231H133.935ZM148.147 224.04H151.272C152.55 224.04 153.528 224.364 154.205 225.013C154.882 225.661 155.221 226.483 155.221 227.477C155.221 228.131 155.069 228.725 154.766 229.26C154.463 229.79 154.018 230.214 153.431 230.531C152.844 230.844 152.124 231 151.272 231H146.698V220.091H148.374V229.438H151.272C151.935 229.438 152.479 229.262 152.906 228.912C153.332 228.562 153.545 228.112 153.545 227.562C153.545 226.985 153.332 226.514 152.906 226.149C152.479 225.785 151.935 225.602 151.272 225.602H148.147V224.04ZM156.954 231V220.091H158.63V231H156.954ZM161.698 220.091H163.374V229.438H167.494V220.091H169.17V229.438H173.289V220.091H174.965V231H161.698V220.091ZM181.237 231.256C180.545 231.256 179.918 231.125 179.354 230.865C178.791 230.6 178.344 230.219 178.012 229.722C177.681 229.22 177.515 228.614 177.515 227.903C177.515 227.278 177.638 226.772 177.884 226.384C178.13 225.991 178.46 225.683 178.871 225.46C179.283 225.238 179.738 225.072 180.235 224.963C180.737 224.849 181.241 224.759 181.748 224.693C182.411 224.608 182.948 224.544 183.36 224.501C183.777 224.454 184.08 224.376 184.269 224.267C184.463 224.158 184.56 223.969 184.56 223.699V223.642C184.56 222.941 184.369 222.397 183.985 222.009C183.606 221.62 183.031 221.426 182.259 221.426C181.459 221.426 180.832 221.601 180.377 221.952C179.923 222.302 179.603 222.676 179.418 223.074L177.827 222.506C178.112 221.843 178.49 221.327 178.964 220.957C179.442 220.583 179.963 220.323 180.526 220.176C181.094 220.025 181.653 219.949 182.202 219.949C182.553 219.949 182.955 219.991 183.41 220.077C183.869 220.157 184.312 220.325 184.738 220.581C185.169 220.837 185.526 221.223 185.81 221.739C186.094 222.255 186.237 222.946 186.237 223.812V231H184.56V229.523H184.475C184.362 229.759 184.172 230.013 183.907 230.283C183.642 230.553 183.289 230.782 182.849 230.972C182.408 231.161 181.871 231.256 181.237 231.256ZM181.492 229.75C182.155 229.75 182.714 229.62 183.168 229.359C183.628 229.099 183.973 228.763 184.205 228.351C184.442 227.939 184.56 227.506 184.56 227.051V225.517C184.489 225.602 184.333 225.68 184.092 225.751C183.855 225.818 183.58 225.877 183.268 225.929C182.96 225.976 182.659 226.019 182.366 226.057C182.077 226.09 181.843 226.118 181.663 226.142C181.227 226.199 180.82 226.291 180.441 226.419C180.067 226.542 179.764 226.729 179.532 226.98C179.305 227.226 179.191 227.562 179.191 227.989C179.191 228.571 179.406 229.011 179.837 229.31C180.273 229.603 180.825 229.75 181.492 229.75ZM188.33 231V229.438H188.728C189.054 229.438 189.327 229.374 189.544 229.246C189.762 229.113 189.937 228.884 190.07 228.557C190.207 228.225 190.311 227.766 190.382 227.179C190.458 226.587 190.513 225.834 190.546 224.92L190.745 220.091H198.017V231H196.341V221.653H192.336L192.165 225.545C192.127 226.44 192.047 227.229 191.924 227.911C191.805 228.588 191.623 229.156 191.377 229.615C191.135 230.074 190.813 230.42 190.411 230.652C190.008 230.884 189.504 231 188.898 231H188.33ZM43.5341 259.091V244.091H45.1534V245.824H45.3523C45.4754 245.634 45.6458 245.393 45.8636 245.099C46.0862 244.801 46.4034 244.536 46.8153 244.304C47.232 244.067 47.7955 243.949 48.5057 243.949C49.4242 243.949 50.2339 244.179 50.9347 244.638C51.6354 245.097 52.1823 245.748 52.5753 246.591C52.9683 247.434 53.1648 248.428 53.1648 249.574C53.1648 250.729 52.9683 251.731 52.5753 252.578C52.1823 253.421 51.6378 254.074 50.9418 254.538C50.2457 254.998 49.4432 255.227 48.5341 255.227C47.8333 255.227 47.2723 255.111 46.8509 254.879C46.4295 254.643 46.1051 254.375 45.8778 254.077C45.6506 253.774 45.4754 253.523 45.3523 253.324H45.2102V259.091H43.5341ZM45.1818 249.545C45.1818 250.369 45.3026 251.096 45.544 251.726C45.7855 252.351 46.1383 252.841 46.6023 253.196C47.0663 253.546 47.6345 253.722 48.3068 253.722C49.0076 253.722 49.5923 253.537 50.0611 253.168C50.5346 252.794 50.8897 252.292 51.1264 251.662C51.3679 251.027 51.4886 250.322 51.4886 249.545C51.4886 248.778 51.3703 248.087 51.1335 247.472C50.9015 246.851 50.5488 246.361 50.0753 246.001C49.6065 245.637 49.017 245.455 48.3068 245.455C47.625 245.455 47.0521 245.627 46.5881 245.973C46.1241 246.314 45.7737 246.792 45.5369 247.408C45.3002 248.018 45.1818 248.731 45.1818 249.545ZM60.1534 255.227C59.1686 255.227 58.3045 254.993 57.5611 254.524C56.8224 254.055 56.2448 253.4 55.8281 252.557C55.4162 251.714 55.2102 250.729 55.2102 249.602C55.2102 248.466 55.4162 247.474 55.8281 246.626C56.2448 245.779 56.8224 245.121 57.5611 244.652C58.3045 244.183 59.1686 243.949 60.1534 243.949C61.1383 243.949 62 244.183 62.7386 244.652C63.482 245.121 64.0597 245.779 64.4716 246.626C64.8883 247.474 65.0966 248.466 65.0966 249.602C65.0966 250.729 64.8883 251.714 64.4716 252.557C64.0597 253.4 63.482 254.055 62.7386 254.524C62 254.993 61.1383 255.227 60.1534 255.227ZM60.1534 253.722C60.9015 253.722 61.517 253.53 62 253.146C62.483 252.763 62.8404 252.259 63.0724 251.634C63.3045 251.009 63.4205 250.331 63.4205 249.602C63.4205 248.873 63.3045 248.194 63.0724 247.564C62.8404 246.934 62.483 246.425 62 246.037C61.517 245.649 60.9015 245.455 60.1534 245.455C59.4053 245.455 58.7898 245.649 58.3068 246.037C57.8239 246.425 57.4664 246.934 57.2344 247.564C57.0024 248.194 56.8864 248.873 56.8864 249.602C56.8864 250.331 57.0024 251.009 57.2344 251.634C57.4664 252.259 57.8239 252.763 58.3068 253.146C58.7898 253.53 59.4053 253.722 60.1534 253.722ZM66.4904 258.125V253.438H67.3995C67.622 253.205 67.8138 252.955 67.9748 252.685C68.1358 252.415 68.2754 252.095 68.3938 251.726C68.5169 251.352 68.6211 250.897 68.7063 250.362C68.7915 249.822 68.8673 249.171 68.9336 248.409L69.3029 244.091H76.2347V253.438H77.9109V258.125H76.2347V255H68.1665V258.125H66.4904ZM69.3029 253.438H74.5586V245.653H70.8654L70.5813 248.409C70.4629 249.55 70.3162 250.547 70.141 251.399C69.9658 252.251 69.6864 252.931 69.3029 253.438ZM87.4368 248.778V250.341H81.4141V248.778H87.4368ZM81.8118 244.091V255H80.1357V244.091H81.8118ZM88.7152 244.091V255H87.0391V244.091H88.7152ZM94.9865 255.256C94.2952 255.256 93.6679 255.125 93.1044 254.865C92.541 254.6 92.0935 254.219 91.7621 253.722C91.4306 253.22 91.2649 252.614 91.2649 251.903C91.2649 251.278 91.388 250.772 91.6342 250.384C91.8804 249.991 92.2095 249.683 92.6214 249.46C93.0334 249.238 93.4879 249.072 93.9851 248.963C94.487 248.849 94.9912 248.759 95.4979 248.693C96.1607 248.608 96.6982 248.544 97.1101 248.501C97.5268 248.454 97.8298 248.376 98.0192 248.267C98.2133 248.158 98.3104 247.969 98.3104 247.699V247.642C98.3104 246.941 98.1186 246.397 97.7351 246.009C97.3563 245.62 96.781 245.426 96.0092 245.426C95.209 245.426 94.5817 245.601 94.1271 245.952C93.6726 246.302 93.353 246.676 93.1683 247.074L91.5774 246.506C91.8615 245.843 92.2403 245.327 92.7138 244.957C93.192 244.583 93.7128 244.323 94.2763 244.176C94.8445 244.025 95.4032 243.949 95.9524 243.949C96.3028 243.949 96.7053 243.991 97.1598 244.077C97.6191 244.157 98.0618 244.325 98.4879 244.581C98.9188 244.837 99.2763 245.223 99.5604 245.739C99.8445 246.255 99.9865 246.946 99.9865 247.812V255H98.3104V253.523H98.2251C98.1115 253.759 97.9221 254.013 97.657 254.283C97.3918 254.553 97.0391 254.782 96.5987 254.972C96.1584 255.161 95.621 255.256 94.9865 255.256ZM95.2422 253.75C95.9051 253.75 96.4638 253.62 96.9183 253.359C97.3776 253.099 97.7232 252.763 97.9553 252.351C98.192 251.939 98.3104 251.506 98.3104 251.051V249.517C98.2393 249.602 98.0831 249.68 97.8416 249.751C97.6049 249.818 97.3303 249.877 97.0178 249.929C96.71 249.976 96.4093 250.019 96.1158 250.057C95.8269 250.09 95.5926 250.118 95.4126 250.142C94.977 250.199 94.5698 250.291 94.1911 250.419C93.817 250.542 93.514 250.729 93.282 250.98C93.0547 251.226 92.9411 251.562 92.9411 251.989C92.9411 252.571 93.1565 253.011 93.5874 253.31C94.023 253.603 94.5746 253.75 95.2422 253.75ZM109.608 255V245.625H106.711C106.057 245.625 105.543 245.777 105.169 246.08C104.795 246.383 104.608 246.799 104.608 247.33C104.608 247.85 104.776 248.26 105.113 248.558C105.453 248.857 105.92 249.006 106.512 249.006H110.034V250.568H106.512C105.773 250.568 105.136 250.438 104.601 250.178C104.066 249.917 103.654 249.545 103.365 249.062C103.077 248.575 102.932 247.997 102.932 247.33C102.932 246.657 103.084 246.08 103.387 245.597C103.69 245.114 104.123 244.742 104.686 244.482C105.255 244.221 105.929 244.091 106.711 244.091H111.199V255H109.608ZM102.336 255L105.432 249.574H107.25L104.154 255H102.336ZM115.498 255.114C115.147 255.114 114.847 254.988 114.596 254.737C114.345 254.486 114.219 254.186 114.219 253.835C114.219 253.485 114.345 253.184 114.596 252.933C114.847 252.682 115.147 252.557 115.498 252.557C115.848 252.557 116.149 252.682 116.4 252.933C116.651 253.184 116.776 253.485 116.776 253.835C116.776 254.067 116.717 254.28 116.599 254.474C116.485 254.669 116.331 254.825 116.137 254.943C115.948 255.057 115.735 255.114 115.498 255.114ZM126.233 255H124.386L129.727 240.455H131.545L136.886 255H135.04L130.693 242.756H130.58L126.233 255ZM126.915 249.318H134.358V250.881H126.915V249.318ZM149.124 255.227C148.072 255.227 147.166 254.995 146.403 254.531C145.646 254.062 145.061 253.409 144.649 252.571C144.242 251.728 144.038 250.748 144.038 249.631C144.038 248.513 144.242 247.528 144.649 246.676C145.061 245.819 145.634 245.152 146.368 244.673C147.107 244.19 147.968 243.949 148.953 243.949C149.521 243.949 150.082 244.044 150.636 244.233C151.19 244.422 151.695 244.73 152.149 245.156C152.604 245.578 152.966 246.136 153.236 246.832C153.506 247.528 153.641 248.385 153.641 249.403V250.114H145.232V248.665H151.936C151.936 248.049 151.813 247.5 151.567 247.017C151.325 246.534 150.98 246.153 150.53 245.874C150.085 245.594 149.559 245.455 148.953 245.455C148.286 245.455 147.708 245.62 147.22 245.952C146.737 246.278 146.366 246.705 146.105 247.23C145.845 247.756 145.714 248.319 145.714 248.92V249.886C145.714 250.71 145.857 251.409 146.141 251.982C146.429 252.55 146.83 252.983 147.341 253.281C147.852 253.575 148.446 253.722 149.124 253.722C149.564 253.722 149.962 253.66 150.317 253.537C150.677 253.409 150.987 253.22 151.247 252.969C151.508 252.713 151.709 252.396 151.851 252.017L153.47 252.472C153.3 253.021 153.013 253.504 152.611 253.92C152.208 254.332 151.711 254.654 151.119 254.886C150.527 255.114 149.862 255.227 149.124 255.227ZM160.622 255.227C159.599 255.227 158.719 254.986 157.98 254.503C157.241 254.02 156.673 253.355 156.276 252.507C155.878 251.66 155.679 250.691 155.679 249.602C155.679 248.494 155.883 247.517 156.29 246.669C156.702 245.817 157.275 245.152 158.009 244.673C158.747 244.19 159.609 243.949 160.594 243.949C161.361 243.949 162.052 244.091 162.668 244.375C163.283 244.659 163.787 245.057 164.18 245.568C164.573 246.08 164.817 246.676 164.912 247.358H163.236C163.108 246.861 162.824 246.42 162.384 246.037C161.948 245.649 161.361 245.455 160.622 245.455C159.969 245.455 159.396 245.625 158.903 245.966C158.416 246.302 158.035 246.778 157.76 247.393C157.49 248.004 157.355 248.722 157.355 249.545C157.355 250.388 157.488 251.122 157.753 251.747C158.023 252.372 158.402 252.857 158.889 253.203C159.382 253.549 159.959 253.722 160.622 253.722C161.058 253.722 161.453 253.646 161.808 253.494C162.163 253.343 162.464 253.125 162.71 252.841C162.956 252.557 163.132 252.216 163.236 251.818H164.912C164.817 252.462 164.583 253.042 164.209 253.558C163.839 254.07 163.349 254.477 162.739 254.78C162.133 255.078 161.427 255.227 160.622 255.227ZM166.396 255V253.438H166.794C167.121 253.438 167.393 253.374 167.611 253.246C167.829 253.113 168.004 252.884 168.136 252.557C168.274 252.225 168.378 251.766 168.449 251.179C168.525 250.587 168.579 249.834 168.612 248.92L168.811 244.091H176.084V255H174.408V245.653H170.402L170.232 249.545C170.194 250.44 170.113 251.229 169.99 251.911C169.872 252.588 169.689 253.156 169.443 253.615C169.202 254.074 168.88 254.42 168.477 254.652C168.075 254.884 167.571 255 166.964 255H166.396ZM180.835 252.528L186.091 244.091H188.023V255H186.347V246.562L181.119 255H179.159V244.091H180.835V252.528ZM196.093 245.653V244.091H204.956V245.653H201.377V255H199.701V245.653H196.093ZM210.045 255.256C209.354 255.256 208.726 255.125 208.163 254.865C207.6 254.6 207.152 254.219 206.821 253.722C206.489 253.22 206.324 252.614 206.324 251.903C206.324 251.278 206.447 250.772 206.693 250.384C206.939 249.991 207.268 249.683 207.68 249.46C208.092 249.238 208.547 249.072 209.044 248.963C209.546 248.849 210.05 248.759 210.556 248.693C211.219 248.608 211.757 248.544 212.169 248.501C212.585 248.454 212.888 248.376 213.078 248.267C213.272 248.158 213.369 247.969 213.369 247.699V247.642C213.369 246.941 213.177 246.397 212.794 246.009C212.415 245.62 211.84 245.426 211.068 245.426C210.268 245.426 209.64 245.601 209.186 245.952C208.731 246.302 208.412 246.676 208.227 247.074L206.636 246.506C206.92 245.843 207.299 245.327 207.772 244.957C208.251 244.583 208.771 244.323 209.335 244.176C209.903 244.025 210.462 243.949 211.011 243.949C211.361 243.949 211.764 243.991 212.218 244.077C212.678 244.157 213.12 244.325 213.547 244.581C213.977 244.837 214.335 245.223 214.619 245.739C214.903 246.255 215.045 246.946 215.045 247.812V255H213.369V253.523H213.284C213.17 253.759 212.981 254.013 212.716 254.283C212.45 254.553 212.098 254.782 211.657 254.972C211.217 255.161 210.68 255.256 210.045 255.256ZM210.301 253.75C210.964 253.75 211.522 253.62 211.977 253.359C212.436 253.099 212.782 252.763 213.014 252.351C213.251 251.939 213.369 251.506 213.369 251.051V249.517C213.298 249.602 213.142 249.68 212.9 249.751C212.663 249.818 212.389 249.877 212.076 249.929C211.769 249.976 211.468 250.019 211.174 250.057C210.886 250.09 210.651 250.118 210.471 250.142C210.036 250.199 209.628 250.291 209.25 250.419C208.876 250.542 208.573 250.729 208.341 250.98C208.113 251.226 208 251.562 208 251.989C208 252.571 208.215 253.011 208.646 253.31C209.082 253.603 209.633 253.75 210.301 253.75ZM218.104 255V244.091H219.781V248.835H220.888L224.809 244.091H226.968L222.565 249.347L227.025 255H224.866L221.286 250.398H219.781V255H218.104ZM231.034 250.909V250.824C231.044 249.92 231.138 249.2 231.318 248.665C231.498 248.13 231.754 247.696 232.085 247.365C232.417 247.034 232.814 246.728 233.278 246.449C233.558 246.278 233.809 246.077 234.031 245.845C234.254 245.608 234.429 245.336 234.557 245.028C234.689 244.721 234.756 244.38 234.756 244.006C234.756 243.542 234.647 243.139 234.429 242.798C234.211 242.457 233.92 242.195 233.555 242.01C233.191 241.825 232.786 241.733 232.341 241.733C231.953 241.733 231.579 241.813 231.219 241.974C230.859 242.135 230.558 242.389 230.317 242.734C230.075 243.08 229.936 243.532 229.898 244.091H228.108C228.146 243.286 228.354 242.597 228.733 242.024C229.116 241.451 229.621 241.013 230.246 240.71C230.875 240.407 231.574 240.256 232.341 240.256C233.174 240.256 233.899 240.421 234.514 240.753C235.134 241.084 235.613 241.539 235.949 242.116C236.29 242.694 236.46 243.352 236.46 244.091C236.46 244.612 236.38 245.083 236.219 245.504C236.062 245.926 235.835 246.302 235.537 246.634C235.243 246.965 234.888 247.259 234.472 247.514C234.055 247.775 233.721 248.049 233.47 248.338C233.219 248.622 233.037 248.961 232.923 249.354C232.81 249.747 232.748 250.237 232.739 250.824V250.909H231.034ZM231.943 255.114C231.593 255.114 231.292 254.988 231.041 254.737C230.79 254.486 230.665 254.186 230.665 253.835C230.665 253.485 230.79 253.184 231.041 252.933C231.292 252.682 231.593 252.557 231.943 252.557C232.294 252.557 232.594 252.682 232.845 252.933C233.096 253.184 233.222 253.485 233.222 253.835C233.222 254.067 233.162 254.28 233.044 254.474C232.93 254.669 232.777 254.825 232.582 254.943C232.393 255.057 232.18 255.114 231.943 255.114Z" fill="black"/>
</svg>
