<svg width="668" height="550" viewBox="0 0 668 550" fill="none" xmlns="http://www.w3.org/2000/svg">
<path d="M492.562 145.366C494.083 143.051 495.461 137.937 495.266 133.143C495.042 127.614 492.094 119.742 491.154 113.742C490.885 112.019 488.398 110.584 485.725 109.324C481.403 107.286 476.336 110.65 472.506 112.144C468.261 113.8 463.609 117.309 461.177 119.722C458.699 122.181 454.096 127.703 452.708 133.35C451.41 138.634 454.008 143.047 454.388 147.308C454.783 151.736 456.95 155.335 458.143 159.624C459.392 164.117 461.449 169.307 463.46 174.134C464.924 178.27 465.947 181.285 466.961 182.783C467.434 183.595 467.823 184.511 469.163 187.074" stroke="#A6300A" stroke-width="2" stroke-linecap="round"/>
<path d="M495.82 146.505C497.038 144.652 500.411 141.53 504.385 139.3C507.714 137.432 510.821 135.351 515.56 133.458C520.792 131.367 524.964 133.609 528.5 135.101C532.234 136.677 533.992 140.201 535.349 145.254C536.389 149.126 533.701 152.348 532.214 155.382C529.987 159.923 525.443 164.948 521.735 166.522C517.879 168.159 513.474 168.44 508.026 169.362C503.154 170.187 498.866 170.859 495.657 172.42C492.104 174.149 488.373 175.641 484.665 177.215C480.957 178.79 477.724 180.661 475.53 183.231C474.953 183.858 474.267 184.399 473.571 184.948C472.874 185.497 472.189 186.037 470.783 186.135" stroke="#A6300A" stroke-width="2" stroke-linecap="round"/>
<path d="M476.821 172.493C478.365 173.177 483.138 172.999 487.356 170.923C493.713 167.795 498.116 165.475 501.663 163.629C505.654 161.552 512.416 157.886 517.514 155.012C517.906 154.791 516.798 154.356 515.754 154.666C509.953 156.387 501.638 161.7 496.668 164.654C495.7 165.229 494.366 165.635 494.498 165.411C497.027 161.125 502.956 161.645 515.125 157.323C520.814 155.302 523.809 153.305 525.151 152.024C525.867 151.34 526.414 150.36 526.265 149.581C526.116 148.802 525.193 148.195 523.952 148.041C517.692 147.263 511.452 151.825 507.548 153.941C504.841 155.409 502.023 155.994 500.63 156.086C499.253 156.177 501.658 151.458 504.53 147.842C507.888 143.614 514.224 145.014 518.895 143.241C520.025 142.812 520.939 142.416 520.992 142.601C521.899 145.744 516.357 147.377 514.009 149.685C513.86 149.832 514.261 149.044 513.961 148.997C510.111 148.397 505.417 151.865 499.78 154.34C495.054 156.415 492.295 158.606 488.94 160.412C485.558 162.233 483.126 164.939 481.966 165.684C479.664 167.161 487.647 162.601 492.309 159.827C496.679 157.226 499.905 155.635 501.875 154.42C504.257 152.951 494.242 158.203 489.136 159.87C483.895 161.581 480.659 164.64 474.871 166.85C473.556 167.352 472.629 167.716 471.887 167.573C471.144 167.431 470.603 166.745 470.397 165.778C469.469 161.423 470.914 157.616 474.615 151.716C476.117 149.322 478.045 148.271 478.781 147.913C481.68 146.504 473.45 152.232 469.331 154.698C464.554 157.557 462.115 158.814 461.105 158.827C457.209 158.875 466.305 152.925 470.341 149.068C474.633 144.967 477.375 142.173 479.541 139.906C479.815 139.619 478.628 139.291 477.544 139.409C472.879 139.92 469.607 143.357 464.703 145.989C462.875 146.97 468.717 142.152 472.541 137.344C477.541 131.06 479.29 125.054 479.085 123.087C478.983 122.101 478.498 121.199 477.955 120.997C472.135 118.836 461.785 128.864 459.02 130.748C456.268 132.623 465.119 124.766 467.616 122.231C470.473 119.329 472.571 116.974 473.539 116.264C477.812 113.125 466.754 122.796 461.979 125.497C459.792 126.735 458.427 128.351 457.962 129.051C455.893 132.166 465.822 127.231 470.103 125.037C472.506 123.805 474.627 122.992 475.478 122.71C479.382 121.417 470.751 130.429 467.717 133.774C465.501 136.217 462.743 137.526 462.012 138.387C461.922 138.493 462.263 137.25 462.915 136.502C465.499 133.536 469.578 132.703 473.088 131.164C476.71 129.575 479.774 129.378 480.404 129.942C483.181 132.428 476.353 136.123 475.736 137.055C475.517 137.386 476.649 137.67 477.618 137.475C481.984 136.599 485.367 134.064 488.04 132.801C492.046 130.908 482.902 142.419 478.899 145.462C475.753 147.855 472.762 152.761 470.538 156.648C469.275 158.857 476.215 154.089 479.303 151.942C482.973 149.391 485.23 146.984 486.507 146.816C489.947 146.365 481.676 154.953 479.094 158.113C477.75 159.759 476.134 161.346 475.749 162.435C474.588 165.719 483.884 158.146 488.49 155.48C491.764 153.585 494.783 152.259 495.984 152.207C496.424 152.188 495.892 153.619 495.356 154.443C493.305 157.593 488.578 158.166 484.726 160.477C481.291 162.538 478.103 164.963 474.605 168.503C473.137 169.989 471.522 172.937 471.082 174.36C470.643 175.784 471.639 175.777 472.801 175.54C478.435 174.389 483.069 171.611 486.424 169.805C489.67 168.057 494.152 164.893 498.214 162.53C501.401 160.675 508.237 157.144 513.796 155.573C517.639 154.487 520.323 153.017 521.599 152.849C524.777 152.432 517.835 159.364 515.06 161.551C511.805 164.118 507.441 166.555 503.733 168.129C502.803 168.524 501.886 168.913 501.717 168.652C499.975 165.958 508.156 164.401 511.793 162.439C515.482 160.45 521.098 157.903 525.211 155.232C528.174 153.308 530.215 151.175 531.062 149.894C531.343 149.469 530.227 149.16 529.334 149.239C524.13 149.7 517.792 152.326 513.082 153.908C511.018 154.601 508.825 154.786 507.701 155.224C503.772 156.755 514.962 150.506 519.431 148.27C523.982 145.992 526.053 142.772 527.939 139.665C528.304 139.063 527.213 138.507 526.398 138.467C522.633 138.283 519.111 141.175 515.029 144.331C510.765 147.628 506.623 148.993 502.735 151.61C498.545 154.431 495.309 156.58 492.257 158.916C487.353 162.669 482.823 165.401 480.088 167.78C477.016 170.452 474.447 173.577 471.179 177.278C470.47 178.08 469.294 177.882 468.587 177.427C467.879 176.972 467.49 176.056 468.048 174.429C470.766 166.504 476.294 165.156 479.526 162.273C482.763 159.384 484.84 157.743 485.536 157.194C487.683 155.502 480.005 160.545 476.153 162.856C475.182 163.438 474.228 163.759 474.286 163.151C474.795 157.882 480.096 155.317 485.562 148.263C494.538 136.678 498.355 128.548 496.706 129.793C492.47 132.991 486.887 134.342 482.744 136.312C478.629 138.268 474.309 141.78 471.752 142.624C466.595 144.325 478.648 134.657 481.3 132.389C484.296 129.827 487.183 127.246 488.655 125.524C491.193 122.556 483.521 130.808 477.684 134.129C464.407 141.681 459.024 143.735 455.519 144.977C443.709 149.162 469.739 119.76 469.172 121.386C468.067 124.553 464.152 126.755 460.565 128.914C458.682 130.048 457.288 131.608 456.707 132.233C454.035 135.108 465.824 128.234 470.343 126.196C475.249 124.071 478.948 122.496 481.609 121.746C482.74 121.312 483.426 120.772 484.132 120.214" stroke="#A6300A" stroke-width="2" stroke-linecap="round"/>
<path d="M459 302C459 359.438 399.902 406 327 406C254.098 406 195 359.438 195 302C195 244.562 260.606 239 333.508 239C406.409 239 459 244.562 459 302Z" fill="#EA7C7C"/>
<path d="M459 302C459 359.438 399.902 406 327 406C254.098 406 195 359.438 195 302C195 244.562 260.606 239 333.508 239C406.409 239 459 244.562 459 302Z" fill="#FF9822" fill-opacity="0.2"/>
<path d="M459.008 302.5C459.008 320.725 403.98 273 380.508 273C357.036 273 332.008 258.725 332.008 240.5C332.008 222.275 424.536 180 448.008 180C471.48 180 459.008 284.275 459.008 302.5Z" fill="#EE816A"/>
<path d="M195.316 302.5C195.316 320.725 250.344 273 273.816 273C297.289 273 322.316 258.725 322.316 240.5C322.316 222.275 229.789 180 206.316 180C182.844 180 195.316 284.275 195.316 302.5Z" fill="#EE816A"/>
<circle cx="265.508" cy="315.5" r="8.5" fill="black"/>
<circle cx="392.508" cy="315.5" r="8.5" fill="black"/>
<path d="M338.009 341.5C340.174 348.658 337.166 352.243 329.509 349.5C318.007 352.5 321.009 346.194 321.009 341.5C321.009 336.806 324.815 333 329.509 333C334.204 333 338.009 336.806 338.009 341.5Z" fill="black"/>
<ellipse cx="155.5" cy="149" rx="110.5" ry="78" fill="#D9D9D9"/>
<path d="M247.832 227.549C241.876 237.177 157.818 187.765 139.5 176.434C121.183 165.103 111.162 148.111 117.118 138.483C123.074 128.854 142.752 130.235 161.069 141.566C179.387 152.897 253.788 217.92 247.832 227.549Z" fill="#D9D9D9"/>
<path d="M82.1591 126.42V124.545H95.25V126.42H89.7614V142H87.6477V126.42H82.1591ZM99.978 133.648H103.728C105.262 133.648 106.435 134.037 107.248 134.815C108.06 135.594 108.467 136.58 108.467 137.773C108.467 138.557 108.285 139.27 107.921 139.912C107.558 140.548 107.023 141.057 106.319 141.438C105.614 141.812 104.751 142 103.728 142H98.2393V128.909H100.251V140.125H103.728C104.523 140.125 105.177 139.915 105.688 139.494C106.2 139.074 106.455 138.534 106.455 137.875C106.455 137.182 106.2 136.616 105.688 136.179C105.177 135.741 104.523 135.523 103.728 135.523H99.978V133.648ZM110.546 142V128.909H112.558V142H110.546ZM128.308 142.273C127.08 142.273 126.023 141.983 125.137 141.403C124.251 140.824 123.569 140.026 123.092 139.009C122.614 137.991 122.376 136.83 122.376 135.523C122.376 134.193 122.62 133.02 123.109 132.003C123.603 130.98 124.29 130.182 125.171 129.608C126.058 129.028 127.092 128.739 128.273 128.739C129.194 128.739 130.023 128.909 130.762 129.25C131.501 129.591 132.106 130.068 132.577 130.682C133.049 131.295 133.342 132.011 133.455 132.83H131.444C131.29 132.233 130.95 131.705 130.421 131.244C129.898 130.778 129.194 130.545 128.308 130.545C127.523 130.545 126.836 130.75 126.245 131.159C125.66 131.562 125.202 132.134 124.873 132.872C124.549 133.605 124.387 134.466 124.387 135.455C124.387 136.466 124.546 137.347 124.864 138.097C125.188 138.847 125.643 139.429 126.228 139.844C126.819 140.259 127.512 140.466 128.308 140.466C128.83 140.466 129.305 140.375 129.731 140.193C130.157 140.011 130.518 139.75 130.813 139.409C131.109 139.068 131.319 138.659 131.444 138.182H133.455C133.342 138.955 133.06 139.651 132.612 140.27C132.168 140.884 131.58 141.372 130.847 141.736C130.12 142.094 129.273 142.273 128.308 142.273ZM135.237 142V140.125H135.714C136.106 140.125 136.433 140.048 136.694 139.895C136.955 139.736 137.165 139.46 137.325 139.068C137.489 138.67 137.614 138.119 137.7 137.415C137.79 136.705 137.856 135.801 137.896 134.705L138.134 128.909H146.862V142H144.85V130.784H140.043L139.839 135.455C139.793 136.528 139.697 137.474 139.549 138.293C139.407 139.105 139.188 139.787 138.893 140.338C138.603 140.889 138.217 141.304 137.734 141.582C137.251 141.861 136.646 142 135.918 142H135.237ZM151.379 146.909C151.038 146.909 150.734 146.881 150.467 146.824C150.2 146.773 150.015 146.722 149.913 146.67L150.424 144.898C150.913 145.023 151.344 145.068 151.719 145.034C152.094 145 152.427 144.832 152.717 144.531C153.012 144.236 153.282 143.756 153.526 143.091L153.901 142.068L149.06 128.909H151.242L154.856 139.341H154.992L158.606 128.909H160.788L155.231 143.909C154.981 144.585 154.671 145.145 154.302 145.588C153.933 146.037 153.504 146.369 153.015 146.585C152.532 146.801 151.987 146.909 151.379 146.909ZM173.135 128.909V142H171.124V128.909H173.135ZM172.351 135.148V137.023C171.896 137.193 171.445 137.344 170.996 137.474C170.547 137.599 170.075 137.699 169.581 137.773C169.087 137.841 168.544 137.875 167.953 137.875C166.47 137.875 165.28 137.474 164.382 136.673C163.49 135.872 163.044 134.67 163.044 133.068V128.875H165.055V133.068C165.055 133.739 165.183 134.29 165.439 134.722C165.695 135.153 166.041 135.474 166.479 135.685C166.916 135.895 167.408 136 167.953 136C168.805 136 169.575 135.923 170.263 135.77C170.956 135.611 171.652 135.403 172.351 135.148ZM180.678 142.307C179.848 142.307 179.095 142.151 178.419 141.838C177.743 141.52 177.206 141.062 176.808 140.466C176.411 139.864 176.212 139.136 176.212 138.284C176.212 137.534 176.359 136.926 176.655 136.46C176.95 135.989 177.345 135.619 177.839 135.352C178.334 135.085 178.879 134.886 179.476 134.756C180.078 134.619 180.683 134.511 181.291 134.432C182.087 134.33 182.732 134.253 183.226 134.202C183.726 134.145 184.089 134.051 184.317 133.92C184.55 133.79 184.666 133.562 184.666 133.239V133.17C184.666 132.33 184.436 131.676 183.976 131.21C183.521 130.744 182.831 130.511 181.905 130.511C180.945 130.511 180.192 130.722 179.646 131.142C179.101 131.562 178.717 132.011 178.496 132.489L176.587 131.807C176.928 131.011 177.382 130.392 177.95 129.949C178.524 129.5 179.149 129.187 179.825 129.011C180.507 128.83 181.178 128.739 181.837 128.739C182.257 128.739 182.74 128.79 183.286 128.892C183.837 128.989 184.368 129.19 184.879 129.497C185.396 129.804 185.825 130.267 186.166 130.886C186.507 131.506 186.678 132.335 186.678 133.375V142H184.666V140.227H184.564C184.428 140.511 184.2 140.815 183.882 141.139C183.564 141.463 183.141 141.739 182.612 141.966C182.084 142.193 181.439 142.307 180.678 142.307ZM180.984 140.5C181.78 140.5 182.45 140.344 182.996 140.031C183.547 139.719 183.962 139.315 184.24 138.821C184.524 138.327 184.666 137.807 184.666 137.261V135.42C184.581 135.523 184.393 135.616 184.104 135.702C183.82 135.781 183.49 135.852 183.115 135.915C182.746 135.972 182.385 136.023 182.033 136.068C181.686 136.108 181.405 136.142 181.189 136.17C180.666 136.239 180.178 136.349 179.723 136.503C179.274 136.651 178.911 136.875 178.632 137.176C178.359 137.472 178.223 137.875 178.223 138.386C178.223 139.085 178.482 139.614 178.999 139.972C179.521 140.324 180.183 140.5 180.984 140.5ZM195.837 142.273C194.576 142.273 193.488 141.994 192.573 141.438C191.664 140.875 190.962 140.091 190.468 139.085C189.979 138.074 189.735 136.898 189.735 135.557C189.735 134.216 189.979 133.034 190.468 132.011C190.962 130.983 191.65 130.182 192.531 129.608C193.417 129.028 194.451 128.739 195.633 128.739C196.315 128.739 196.988 128.852 197.653 129.08C198.317 129.307 198.923 129.676 199.468 130.188C200.013 130.693 200.448 131.364 200.772 132.199C201.096 133.034 201.258 134.062 201.258 135.284V136.136H191.167V134.398H199.212C199.212 133.659 199.065 133 198.769 132.42C198.479 131.841 198.065 131.384 197.525 131.048C196.991 130.713 196.36 130.545 195.633 130.545C194.832 130.545 194.138 130.744 193.553 131.142C192.974 131.534 192.528 132.045 192.215 132.676C191.903 133.307 191.746 133.983 191.746 134.705V135.864C191.746 136.852 191.917 137.69 192.258 138.378C192.604 139.06 193.085 139.58 193.698 139.938C194.312 140.29 195.025 140.466 195.837 140.466C196.366 140.466 196.843 140.392 197.269 140.244C197.701 140.091 198.073 139.864 198.386 139.562C198.698 139.256 198.94 138.875 199.11 138.42L201.053 138.966C200.849 139.625 200.505 140.205 200.022 140.705C199.539 141.199 198.942 141.585 198.232 141.864C197.522 142.136 196.724 142.273 195.837 142.273ZM211.477 139.273L216.045 128.909H217.954L212.295 142H210.658L205.102 128.909H206.977L211.477 139.273ZM206.329 128.909V142H204.317V128.909H206.329ZM216.624 142V128.909H218.636V142H216.624ZM91.6023 163.534V165.409H84.375V163.534H91.6023ZM84.8523 157.909V171H82.8409V157.909H84.8523ZM93.1364 157.909V171H91.125V157.909H93.1364ZM102.298 171.273C101.037 171.273 99.9489 170.994 99.0341 170.438C98.125 169.875 97.4233 169.091 96.929 168.085C96.4403 167.074 96.196 165.898 96.196 164.557C96.196 163.216 96.4403 162.034 96.929 161.011C97.4233 159.983 98.1108 159.182 98.9915 158.608C99.8778 158.028 100.912 157.739 102.094 157.739C102.776 157.739 103.449 157.852 104.114 158.08C104.778 158.307 105.384 158.676 105.929 159.188C106.474 159.693 106.909 160.364 107.233 161.199C107.557 162.034 107.719 163.062 107.719 164.284V165.136H97.6278V163.398H105.673C105.673 162.659 105.526 162 105.23 161.42C104.94 160.841 104.526 160.384 103.986 160.048C103.452 159.713 102.821 159.545 102.094 159.545C101.293 159.545 100.599 159.744 100.014 160.142C99.4347 160.534 98.9886 161.045 98.6761 161.676C98.3636 162.307 98.2074 162.983 98.2074 163.705V164.864C98.2074 165.852 98.3778 166.69 98.7188 167.378C99.0653 168.06 99.5455 168.58 100.159 168.938C100.773 169.29 101.486 169.466 102.298 169.466C102.827 169.466 103.304 169.392 103.73 169.244C104.162 169.091 104.534 168.864 104.847 168.562C105.159 168.256 105.401 167.875 105.571 167.42L107.514 167.966C107.31 168.625 106.966 169.205 106.483 169.705C106 170.199 105.403 170.585 104.693 170.864C103.983 171.136 103.185 171.273 102.298 171.273ZM122.847 171.273C121.665 171.273 120.628 170.991 119.736 170.429C118.849 169.866 118.156 169.08 117.656 168.068C117.162 167.057 116.915 165.875 116.915 164.523C116.915 163.159 117.162 161.969 117.656 160.952C118.156 159.935 118.849 159.145 119.736 158.582C120.628 158.02 121.665 157.739 122.847 157.739C124.028 157.739 125.063 158.02 125.949 158.582C126.841 159.145 127.534 159.935 128.028 160.952C128.528 161.969 128.778 163.159 128.778 164.523C128.778 165.875 128.528 167.057 128.028 168.068C127.534 169.08 126.841 169.866 125.949 170.429C125.063 170.991 124.028 171.273 122.847 171.273ZM122.847 169.466C123.744 169.466 124.483 169.236 125.062 168.776C125.642 168.315 126.071 167.71 126.349 166.96C126.628 166.21 126.767 165.398 126.767 164.523C126.767 163.648 126.628 162.832 126.349 162.077C126.071 161.321 125.642 160.71 125.062 160.244C124.483 159.778 123.744 159.545 122.847 159.545C121.949 159.545 121.21 159.778 120.631 160.244C120.051 160.71 119.622 161.321 119.344 162.077C119.065 162.832 118.926 163.648 118.926 164.523C118.926 165.398 119.065 166.21 119.344 166.96C119.622 167.71 120.051 168.315 120.631 168.776C121.21 169.236 121.949 169.466 122.847 169.466ZM132.81 157.909L135.946 163.261L139.082 157.909H141.401L137.173 164.455L141.401 171H139.082L135.946 165.92L132.81 171H130.491L134.651 164.455L130.491 157.909H132.81ZM145.566 175.909C145.225 175.909 144.921 175.881 144.654 175.824C144.387 175.773 144.202 175.722 144.1 175.67L144.612 173.898C145.1 174.023 145.532 174.068 145.907 174.034C146.282 174 146.614 173.832 146.904 173.531C147.2 173.236 147.469 172.756 147.714 172.091L148.089 171.068L143.248 157.909H145.43L149.043 168.341H149.18L152.793 157.909H154.975L149.418 172.909C149.168 173.585 148.859 174.145 148.489 174.588C148.12 175.037 147.691 175.369 147.202 175.585C146.719 175.801 146.174 175.909 145.566 175.909ZM162.65 171.273C161.388 171.273 160.3 170.994 159.386 170.438C158.477 169.875 157.775 169.091 157.281 168.085C156.792 167.074 156.548 165.898 156.548 164.557C156.548 163.216 156.792 162.034 157.281 161.011C157.775 159.983 158.462 159.182 159.343 158.608C160.229 158.028 161.263 157.739 162.445 157.739C163.127 157.739 163.8 157.852 164.465 158.08C165.13 158.307 165.735 158.676 166.281 159.188C166.826 159.693 167.261 160.364 167.585 161.199C167.908 162.034 168.07 163.062 168.07 164.284V165.136H157.979V163.398H166.025C166.025 162.659 165.877 162 165.582 161.42C165.292 160.841 164.877 160.384 164.337 160.048C163.803 159.713 163.173 159.545 162.445 159.545C161.644 159.545 160.951 159.744 160.366 160.142C159.786 160.534 159.34 161.045 159.028 161.676C158.715 162.307 158.559 162.983 158.559 163.705V164.864C158.559 165.852 158.729 166.69 159.07 167.378C159.417 168.06 159.897 168.58 160.511 168.938C161.124 169.29 161.837 169.466 162.65 169.466C163.178 169.466 163.656 169.392 164.082 169.244C164.513 169.091 164.886 168.864 165.198 168.562C165.511 168.256 165.752 167.875 165.923 167.42L167.866 167.966C167.661 168.625 167.317 169.205 166.835 169.705C166.352 170.199 165.755 170.585 165.045 170.864C164.335 171.136 163.536 171.273 162.65 171.273ZM169.971 171V169.125H170.448C170.84 169.125 171.167 169.048 171.428 168.895C171.69 168.736 171.9 168.46 172.059 168.068C172.224 167.67 172.349 167.119 172.434 166.415C172.525 165.705 172.59 164.801 172.63 163.705L172.869 157.909H181.596V171H179.585V159.784H174.778L174.573 164.455C174.528 165.528 174.431 166.474 174.283 167.293C174.141 168.105 173.923 168.787 173.627 169.338C173.337 169.889 172.951 170.304 172.468 170.582C171.985 170.861 171.38 171 170.653 171H169.971ZM189.138 171.307C188.309 171.307 187.556 171.151 186.88 170.838C186.204 170.52 185.667 170.062 185.269 169.466C184.871 168.864 184.673 168.136 184.673 167.284C184.673 166.534 184.82 165.926 185.116 165.46C185.411 164.989 185.806 164.619 186.3 164.352C186.795 164.085 187.34 163.886 187.937 163.756C188.539 163.619 189.144 163.511 189.752 163.432C190.548 163.33 191.192 163.253 191.687 163.202C192.187 163.145 192.55 163.051 192.778 162.92C193.011 162.79 193.127 162.562 193.127 162.239V162.17C193.127 161.33 192.897 160.676 192.437 160.21C191.982 159.744 191.292 159.511 190.366 159.511C189.406 159.511 188.653 159.722 188.107 160.142C187.562 160.562 187.178 161.011 186.957 161.489L185.048 160.807C185.388 160.011 185.843 159.392 186.411 158.949C186.985 158.5 187.61 158.187 188.286 158.011C188.968 157.83 189.638 157.739 190.298 157.739C190.718 157.739 191.201 157.79 191.746 157.892C192.298 157.989 192.829 158.19 193.34 158.497C193.857 158.804 194.286 159.267 194.627 159.886C194.968 160.506 195.138 161.335 195.138 162.375V171H193.127V169.227H193.025C192.888 169.511 192.661 169.815 192.343 170.139C192.025 170.463 191.602 170.739 191.073 170.966C190.545 171.193 189.9 171.307 189.138 171.307ZM189.445 169.5C190.241 169.5 190.911 169.344 191.457 169.031C192.008 168.719 192.423 168.315 192.701 167.821C192.985 167.327 193.127 166.807 193.127 166.261V164.42C193.042 164.523 192.854 164.616 192.565 164.702C192.281 164.781 191.951 164.852 191.576 164.915C191.207 164.972 190.846 165.023 190.494 165.068C190.147 165.108 189.866 165.142 189.65 165.17C189.127 165.239 188.638 165.349 188.184 165.503C187.735 165.651 187.371 165.875 187.093 166.176C186.82 166.472 186.684 166.875 186.684 167.386C186.684 168.085 186.942 168.614 187.46 168.972C187.982 169.324 188.644 169.5 189.445 169.5ZM201.435 166.091V165.989C201.446 164.903 201.56 164.04 201.776 163.398C201.991 162.756 202.298 162.236 202.696 161.838C203.094 161.44 203.571 161.074 204.128 160.739C204.463 160.534 204.764 160.293 205.031 160.014C205.298 159.73 205.509 159.403 205.662 159.034C205.821 158.665 205.901 158.256 205.901 157.807C205.901 157.25 205.77 156.767 205.509 156.358C205.247 155.949 204.898 155.634 204.46 155.412C204.023 155.19 203.537 155.08 203.003 155.08C202.537 155.08 202.088 155.176 201.656 155.369C201.224 155.562 200.864 155.866 200.574 156.281C200.284 156.696 200.116 157.239 200.071 157.909H197.923C197.969 156.943 198.219 156.116 198.673 155.429C199.134 154.741 199.739 154.216 200.489 153.852C201.244 153.489 202.082 153.307 203.003 153.307C204.003 153.307 204.872 153.506 205.611 153.903C206.355 154.301 206.929 154.847 207.332 155.54C207.741 156.233 207.946 157.023 207.946 157.909C207.946 158.534 207.849 159.099 207.656 159.605C207.469 160.111 207.196 160.562 206.838 160.96C206.486 161.358 206.06 161.71 205.56 162.017C205.06 162.33 204.659 162.659 204.358 163.006C204.057 163.347 203.838 163.753 203.702 164.224C203.565 164.696 203.491 165.284 203.48 165.989V166.091H201.435ZM202.526 171.136C202.105 171.136 201.744 170.986 201.443 170.685C201.142 170.384 200.991 170.023 200.991 169.602C200.991 169.182 201.142 168.821 201.443 168.52C201.744 168.219 202.105 168.068 202.526 168.068C202.946 168.068 203.307 168.219 203.608 168.52C203.909 168.821 204.06 169.182 204.06 169.602C204.06 169.881 203.989 170.136 203.847 170.369C203.71 170.602 203.526 170.79 203.293 170.932C203.065 171.068 202.81 171.136 202.526 171.136Z" fill="black"/>
</svg>
