<svg width="668" height="550" viewBox="0 0 668 550" fill="none" xmlns="http://www.w3.org/2000/svg">
<path d="M492.562 145.366C494.083 143.051 495.461 137.937 495.266 133.143C495.042 127.614 492.094 119.742 491.154 113.742C490.885 112.019 488.398 110.584 485.725 109.324C481.403 107.286 476.336 110.65 472.506 112.144C468.261 113.8 463.609 117.309 461.177 119.722C458.699 122.181 454.096 127.703 452.708 133.35C451.41 138.634 454.008 143.047 454.388 147.308C454.783 151.736 456.95 155.335 458.143 159.624C459.392 164.117 461.449 169.307 463.46 174.134C464.924 178.27 465.947 181.285 466.961 182.783C467.434 183.595 467.823 184.511 469.163 187.074" stroke="#A6300A" stroke-width="2" stroke-linecap="round"/>
<path d="M495.82 146.504C497.038 144.651 500.411 141.529 504.385 139.299C507.714 137.431 510.821 135.35 515.56 133.457C520.792 131.366 524.964 133.608 528.5 135.1C532.234 136.676 533.992 140.2 535.349 145.253C536.389 149.125 533.701 152.347 532.214 155.381C529.987 159.922 525.443 164.947 521.735 166.521C517.879 168.158 513.474 168.439 508.026 169.361C503.154 170.186 498.866 170.858 495.657 172.419C492.104 174.148 488.373 175.64 484.665 177.214C480.957 178.789 477.724 180.66 475.53 183.23C474.953 183.857 474.267 184.398 473.571 184.947C472.874 185.496 472.189 186.036 470.783 186.134" stroke="#A6300A" stroke-width="2" stroke-linecap="round"/>
<path d="M476.821 172.494C478.365 173.178 483.138 173 487.356 170.924C493.713 167.796 498.116 165.476 501.663 163.63C505.654 161.553 512.416 157.887 517.514 155.013C517.906 154.792 516.798 154.357 515.754 154.667C509.953 156.388 501.638 161.701 496.668 164.655C495.7 165.23 494.366 165.636 494.498 165.412C497.027 161.126 502.956 161.646 515.125 157.324C520.814 155.303 523.809 153.306 525.151 152.024C525.867 151.341 526.414 150.361 526.265 149.582C526.116 148.803 525.193 148.196 523.952 148.042C517.692 147.264 511.452 151.826 507.548 153.942C504.841 155.409 502.023 155.995 500.63 156.087C499.253 156.178 501.658 151.459 504.53 147.843C507.888 143.615 514.224 145.015 518.895 143.242C520.025 142.813 520.939 142.417 520.992 142.602C521.899 145.745 516.357 147.378 514.009 149.686C513.86 149.833 514.261 149.045 513.961 148.998C510.111 148.398 505.417 151.866 499.78 154.341C495.054 156.416 492.295 158.607 488.94 160.413C485.558 162.234 483.126 164.94 481.966 165.685C479.664 167.162 487.647 162.602 492.309 159.828C496.679 157.227 499.905 155.636 501.875 154.421C504.257 152.952 494.242 158.204 489.136 159.871C483.895 161.582 480.659 164.641 474.871 166.851C473.556 167.353 472.629 167.717 471.887 167.574C471.144 167.432 470.603 166.746 470.397 165.779C469.469 161.424 470.914 157.617 474.615 151.717C476.117 149.323 478.045 148.272 478.781 147.914C481.68 146.505 473.45 152.233 469.331 154.699C464.554 157.558 462.115 158.815 461.105 158.828C457.209 158.876 466.305 152.926 470.341 149.069C474.633 144.968 477.375 142.174 479.541 139.906C479.815 139.62 478.628 139.292 477.544 139.41C472.879 139.921 469.607 143.358 464.703 145.99C462.875 146.971 468.717 142.153 472.541 137.345C477.541 131.061 479.29 125.055 479.085 123.088C478.983 122.102 478.498 121.2 477.955 120.998C472.135 118.837 461.785 128.865 459.02 130.749C456.268 132.624 465.119 124.767 467.616 122.232C470.473 119.33 472.571 116.975 473.539 116.264C477.812 113.126 466.754 122.797 461.979 125.498C459.792 126.736 458.427 128.352 457.962 129.052C455.893 132.167 465.822 127.232 470.103 125.038C472.506 123.806 474.627 122.993 475.478 122.711C479.382 121.418 470.751 130.43 467.717 133.775C465.501 136.218 462.743 137.527 462.012 138.388C461.922 138.494 462.263 137.251 462.915 136.503C465.499 133.537 469.578 132.704 473.088 131.165C476.71 129.576 479.774 129.379 480.404 129.943C483.181 132.429 476.353 136.124 475.736 137.056C475.517 137.387 476.649 137.671 477.618 137.476C481.984 136.6 485.367 134.065 488.04 132.802C492.046 130.909 482.902 142.42 478.899 145.463C475.753 147.856 472.762 152.762 470.538 156.649C469.275 158.858 476.215 154.09 479.303 151.943C482.973 149.392 485.23 146.985 486.507 146.817C489.947 146.366 481.676 154.954 479.094 158.114C477.75 159.76 476.134 161.347 475.749 162.436C474.588 165.72 483.884 158.147 488.49 155.481C491.764 153.586 494.783 152.26 495.984 152.208C496.424 152.189 495.892 153.62 495.356 154.444C493.305 157.594 488.578 158.167 484.726 160.478C481.291 162.539 478.103 164.964 474.605 168.504C473.137 169.99 471.522 172.938 471.082 174.361C470.643 175.785 471.639 175.778 472.801 175.541C478.435 174.39 483.069 171.612 486.424 169.806C489.67 168.058 494.152 164.894 498.214 162.531C501.401 160.676 508.237 157.145 513.796 155.574C517.639 154.488 520.323 153.018 521.599 152.85C524.777 152.433 517.835 159.365 515.06 161.552C511.805 164.119 507.441 166.556 503.733 168.13C502.803 168.525 501.886 168.914 501.717 168.653C499.975 165.959 508.156 164.401 511.793 162.44C515.482 160.451 521.098 157.904 525.211 155.233C528.174 153.309 530.215 151.176 531.062 149.895C531.343 149.469 530.227 149.161 529.334 149.24C524.13 149.701 517.792 152.327 513.082 153.909C511.018 154.602 508.825 154.787 507.701 155.225C503.772 156.756 514.962 150.507 519.431 148.271C523.982 145.993 526.053 142.773 527.939 139.666C528.304 139.064 527.213 138.508 526.398 138.468C522.633 138.284 519.111 141.176 515.029 144.332C510.765 147.629 506.623 148.994 502.735 151.611C498.545 154.432 495.309 156.581 492.257 158.917C487.353 162.67 482.823 165.402 480.088 167.781C477.016 170.453 474.447 173.578 471.179 177.279C470.47 178.081 469.294 177.883 468.587 177.428C467.879 176.973 467.49 176.057 468.048 174.43C470.766 166.505 476.294 165.157 479.526 162.274C482.763 159.385 484.84 157.744 485.536 157.195C487.683 155.503 480.005 160.546 476.153 162.857C475.182 163.439 474.228 163.76 474.286 163.152C474.795 157.883 480.096 155.318 485.562 148.264C494.538 136.679 498.355 128.549 496.706 129.794C492.47 132.992 486.887 134.343 482.744 136.313C478.629 138.269 474.309 141.781 471.752 142.625C466.595 144.325 478.648 134.658 481.3 132.39C484.296 129.828 487.183 127.247 488.655 125.525C491.193 122.557 483.521 130.809 477.684 134.13C464.407 141.682 459.024 143.736 455.519 144.978C443.709 149.163 469.739 119.761 469.172 121.387C468.067 124.554 464.152 126.756 460.565 128.915C458.682 130.049 457.288 131.609 456.707 132.234C454.035 135.109 465.824 128.235 470.343 126.197C475.249 124.072 478.948 122.497 481.609 121.747C482.74 121.313 483.426 120.773 484.132 120.215" stroke="#A6300A" stroke-width="2" stroke-linecap="round"/>
<path d="M459 302C459 359.438 399.902 406 327 406C254.098 406 195 359.438 195 302C195 244.562 260.606 239 333.508 239C406.409 239 459 244.562 459 302Z" fill="#EA7C7C"/>
<path d="M459 302C459 359.438 399.902 406 327 406C254.098 406 195 359.438 195 302C195 244.562 260.606 239 333.508 239C406.409 239 459 244.562 459 302Z" fill="#FF9822" fill-opacity="0.2"/>
<path d="M459.008 302.5C459.008 320.725 403.98 273 380.508 273C357.036 273 332.008 258.725 332.008 240.5C332.008 222.275 424.536 180 448.008 180C471.48 180 459.008 284.275 459.008 302.5Z" fill="#EE816A"/>
<path d="M195.316 302.5C195.316 320.725 250.344 273 273.816 273C297.289 273 322.316 258.725 322.316 240.5C322.316 222.275 229.789 180 206.316 180C182.844 180 195.316 284.275 195.316 302.5Z" fill="#EE816A"/>
<circle cx="265.508" cy="315.5" r="8.5" fill="black"/>
<circle cx="392.508" cy="315.5" r="8.5" fill="black"/>
<path d="M338.009 341.5C340.174 348.658 337.166 352.243 329.509 349.5C318.007 352.5 321.009 346.194 321.009 341.5C321.009 336.806 324.815 333 329.509 333C334.204 333 338.009 336.806 338.009 341.5Z" fill="black"/>
<ellipse cx="104" cy="73.5" rx="104" ry="73.5" transform="matrix(-1 0 0 1 641.992 150)" fill="#D9D9D9"/>
<path d="M428.441 285.549C434.398 295.177 518.455 245.765 536.773 234.434C555.091 223.103 565.112 206.111 559.156 196.483C553.199 186.854 533.522 188.235 515.204 199.566C496.886 210.897 422.485 275.92 428.441 285.549Z" fill="#D9D9D9"/>
<path d="M478.102 180.545H480.625L486.556 195.034H486.761L492.693 180.545H495.216V198H493.238V184.739H493.068L487.613 198H485.704L480.25 184.739H480.079V198H478.102V180.545ZM504.499 198.273C503.317 198.273 502.28 197.991 501.388 197.429C500.502 196.866 499.809 196.08 499.309 195.068C498.814 194.057 498.567 192.875 498.567 191.523C498.567 190.159 498.814 188.969 499.309 187.952C499.809 186.935 500.502 186.145 501.388 185.582C502.28 185.02 503.317 184.739 504.499 184.739C505.681 184.739 506.715 185.02 507.601 185.582C508.493 186.145 509.186 186.935 509.681 187.952C510.181 188.969 510.431 190.159 510.431 191.523C510.431 192.875 510.181 194.057 509.681 195.068C509.186 196.08 508.493 196.866 507.601 197.429C506.715 197.991 505.681 198.273 504.499 198.273ZM504.499 196.466C505.397 196.466 506.135 196.236 506.715 195.776C507.294 195.315 507.723 194.71 508.002 193.96C508.28 193.21 508.419 192.398 508.419 191.523C508.419 190.648 508.28 189.832 508.002 189.077C507.723 188.321 507.294 187.71 506.715 187.244C506.135 186.778 505.397 186.545 504.499 186.545C503.601 186.545 502.863 186.778 502.283 187.244C501.703 187.71 501.275 188.321 500.996 189.077C500.718 189.832 500.578 190.648 500.578 191.523C500.578 192.398 500.718 193.21 500.996 193.96C501.275 194.71 501.703 195.315 502.283 195.776C502.863 196.236 503.601 196.466 504.499 196.466ZM512.144 198L517.462 191.352L512.212 184.909H514.598L518.962 190.5H520.053V184.909H522.064V190.5H523.121L527.485 184.909H529.871L524.655 191.352L529.939 198H527.519L523.087 192.375H522.064V198H520.053V192.375H519.03L514.564 198H512.144ZM537.763 198.273C536.502 198.273 535.414 197.994 534.499 197.438C533.59 196.875 532.888 196.091 532.394 195.085C531.905 194.074 531.661 192.898 531.661 191.557C531.661 190.216 531.905 189.034 532.394 188.011C532.888 186.983 533.576 186.182 534.456 185.608C535.343 185.028 536.377 184.739 537.559 184.739C538.24 184.739 538.914 184.852 539.578 185.08C540.243 185.307 540.848 185.676 541.394 186.188C541.939 186.693 542.374 187.364 542.698 188.199C543.022 189.034 543.184 190.062 543.184 191.284V192.136H533.093V190.398H541.138C541.138 189.659 540.99 189 540.695 188.42C540.405 187.841 539.99 187.384 539.451 187.048C538.917 186.713 538.286 186.545 537.559 186.545C536.757 186.545 536.064 186.744 535.479 187.142C534.9 187.534 534.453 188.045 534.141 188.676C533.828 189.307 533.672 189.983 533.672 190.705V191.864C533.672 192.852 533.843 193.69 534.184 194.378C534.53 195.06 535.01 195.58 535.624 195.938C536.238 196.29 536.951 196.466 537.763 196.466C538.292 196.466 538.769 196.392 539.195 196.244C539.627 196.091 539.999 195.864 540.311 195.562C540.624 195.256 540.865 194.875 541.036 194.42L542.979 194.966C542.775 195.625 542.431 196.205 541.948 196.705C541.465 197.199 540.868 197.585 540.158 197.864C539.448 198.136 538.65 198.273 537.763 198.273ZM545.025 186.784V184.909H555.661V186.784H551.365V198H549.354V186.784H545.025ZM477.829 227V213.909H488.125V227H486.113V215.784H479.841V227H477.829ZM491.798 231.909V213.909H493.741V215.989H493.98C494.127 215.761 494.332 215.472 494.593 215.119C494.86 214.761 495.241 214.443 495.735 214.165C496.235 213.881 496.912 213.739 497.764 213.739C498.866 213.739 499.838 214.014 500.679 214.565C501.52 215.116 502.176 215.898 502.647 216.909C503.119 217.92 503.355 219.114 503.355 220.489C503.355 221.875 503.119 223.077 502.647 224.094C502.176 225.105 501.522 225.889 500.687 226.446C499.852 226.997 498.889 227.273 497.798 227.273C496.957 227.273 496.284 227.134 495.778 226.855C495.272 226.571 494.883 226.25 494.61 225.892C494.338 225.528 494.127 225.227 493.98 224.989H493.809V231.909H491.798ZM493.775 220.455C493.775 221.443 493.92 222.315 494.21 223.071C494.5 223.821 494.923 224.409 495.48 224.835C496.037 225.256 496.718 225.466 497.525 225.466C498.366 225.466 499.068 225.244 499.63 224.801C500.199 224.352 500.625 223.75 500.909 222.994C501.199 222.233 501.343 221.386 501.343 220.455C501.343 219.534 501.201 218.705 500.917 217.966C500.639 217.222 500.216 216.634 499.647 216.202C499.085 215.764 498.377 215.545 497.525 215.545C496.707 215.545 496.02 215.753 495.463 216.168C494.906 216.577 494.485 217.151 494.201 217.889C493.917 218.622 493.775 219.477 493.775 220.455ZM511.912 227.273C510.65 227.273 509.562 226.994 508.647 226.438C507.738 225.875 507.037 225.091 506.542 224.085C506.054 223.074 505.809 221.898 505.809 220.557C505.809 219.216 506.054 218.034 506.542 217.011C507.037 215.983 507.724 215.182 508.605 214.608C509.491 214.028 510.525 213.739 511.707 213.739C512.389 213.739 513.062 213.852 513.727 214.08C514.392 214.307 514.997 214.676 515.542 215.188C516.088 215.693 516.522 216.364 516.846 217.199C517.17 218.034 517.332 219.062 517.332 220.284V221.136H507.241V219.398H515.287C515.287 218.659 515.139 218 514.843 217.42C514.554 216.841 514.139 216.384 513.599 216.048C513.065 215.713 512.434 215.545 511.707 215.545C510.906 215.545 510.213 215.744 509.627 216.142C509.048 216.534 508.602 217.045 508.289 217.676C507.977 218.307 507.821 218.983 507.821 219.705V220.864C507.821 221.852 507.991 222.69 508.332 223.378C508.679 224.06 509.159 224.58 509.772 224.938C510.386 225.29 511.099 225.466 511.912 225.466C512.44 225.466 512.917 225.392 513.343 225.244C513.775 225.091 514.147 224.864 514.46 224.562C514.772 224.256 515.014 223.875 515.184 223.42L517.127 223.966C516.923 224.625 516.579 225.205 516.096 225.705C515.613 226.199 515.017 226.585 514.306 226.864C513.596 227.136 512.798 227.273 511.912 227.273ZM520.392 227V213.909H522.403V219.602H523.733L528.437 213.909H531.028L525.744 220.216L531.096 227H528.505L524.21 221.477H522.403V227H520.392ZM533.282 231.909V213.909H535.225V215.989H535.464C535.612 215.761 535.816 215.472 536.078 215.119C536.345 214.761 536.725 214.443 537.22 214.165C537.72 213.881 538.396 213.739 539.248 213.739C540.35 213.739 541.322 214.014 542.163 214.565C543.004 215.116 543.66 215.898 544.132 216.909C544.603 217.92 544.839 219.114 544.839 220.489C544.839 221.875 544.603 223.077 544.132 224.094C543.66 225.105 543.007 225.889 542.172 226.446C541.336 226.997 540.373 227.273 539.282 227.273C538.441 227.273 537.768 227.134 537.262 226.855C536.757 226.571 536.368 226.25 536.095 225.892C535.822 225.528 535.612 225.227 535.464 224.989H535.294V231.909H533.282ZM535.26 220.455C535.26 221.443 535.404 222.315 535.694 223.071C535.984 223.821 536.407 224.409 536.964 224.835C537.521 225.256 538.203 225.466 539.01 225.466C539.85 225.466 540.552 225.244 541.115 224.801C541.683 224.352 542.109 223.75 542.393 222.994C542.683 222.233 542.828 221.386 542.828 220.455C542.828 219.534 542.686 218.705 542.402 217.966C542.123 217.222 541.7 216.634 541.132 216.202C540.569 215.764 539.862 215.545 539.01 215.545C538.191 215.545 537.504 215.753 536.947 216.168C536.39 216.577 535.97 217.151 535.686 217.889C535.402 218.622 535.26 219.477 535.26 220.455ZM551.76 227.307C550.93 227.307 550.177 227.151 549.501 226.838C548.825 226.52 548.288 226.062 547.89 225.466C547.493 224.864 547.294 224.136 547.294 223.284C547.294 222.534 547.441 221.926 547.737 221.46C548.032 220.989 548.427 220.619 548.922 220.352C549.416 220.085 549.961 219.886 550.558 219.756C551.16 219.619 551.765 219.511 552.373 219.432C553.169 219.33 553.814 219.253 554.308 219.202C554.808 219.145 555.172 219.051 555.399 218.92C555.632 218.79 555.748 218.562 555.748 218.239V218.17C555.748 217.33 555.518 216.676 555.058 216.21C554.603 215.744 553.913 215.511 552.987 215.511C552.027 215.511 551.274 215.722 550.728 216.142C550.183 216.562 549.799 217.011 549.578 217.489L547.669 216.807C548.01 216.011 548.464 215.392 549.032 214.949C549.606 214.5 550.231 214.187 550.907 214.011C551.589 213.83 552.26 213.739 552.919 213.739C553.339 213.739 553.822 213.79 554.368 213.892C554.919 213.989 555.45 214.19 555.961 214.497C556.478 214.804 556.907 215.267 557.248 215.886C557.589 216.506 557.76 217.335 557.76 218.375V227H555.748V225.227H555.646C555.51 225.511 555.282 225.815 554.964 226.139C554.646 226.463 554.223 226.739 553.694 226.966C553.166 227.193 552.521 227.307 551.76 227.307ZM552.066 225.5C552.862 225.5 553.532 225.344 554.078 225.031C554.629 224.719 555.044 224.315 555.322 223.821C555.606 223.327 555.748 222.807 555.748 222.261V220.42C555.663 220.523 555.475 220.616 555.186 220.702C554.902 220.781 554.572 220.852 554.197 220.915C553.828 220.972 553.467 221.023 553.115 221.068C552.768 221.108 552.487 221.142 552.271 221.17C551.748 221.239 551.26 221.349 550.805 221.503C550.356 221.651 549.993 221.875 549.714 222.176C549.441 222.472 549.305 222.875 549.305 223.386C549.305 224.085 549.564 224.614 550.081 224.972C550.603 225.324 551.265 225.5 552.066 225.5ZM559.65 215.784V213.909H570.286V215.784H565.99V227H563.979V215.784H559.65ZM575.231 224.034L581.538 213.909H583.856V227H581.845V216.875L575.572 227H573.22V213.909H575.231V224.034ZM587.54 213.909H589.551V225.125H594.495V213.909H596.506V225.125H601.449V213.909H603.461V227H587.54V213.909ZM608.873 218.648H612.623C614.157 218.648 615.33 219.037 616.142 219.815C616.955 220.594 617.361 221.58 617.361 222.773C617.361 223.557 617.179 224.27 616.816 224.912C616.452 225.548 615.918 226.057 615.213 226.438C614.509 226.812 613.645 227 612.623 227H607.134V213.909H609.145V225.125H612.623C613.418 225.125 614.071 224.915 614.583 224.494C615.094 224.074 615.35 223.534 615.35 222.875C615.35 222.182 615.094 221.616 614.583 221.179C614.071 220.741 613.418 220.523 612.623 220.523H608.873V218.648ZM479.125 260.909C478.784 260.909 478.48 260.881 478.213 260.824C477.946 260.773 477.761 260.722 477.659 260.67L478.17 258.898C478.659 259.023 479.091 259.068 479.466 259.034C479.841 259 480.173 258.832 480.463 258.531C480.758 258.236 481.028 257.756 481.272 257.091L481.647 256.068L476.806 242.909H478.988L482.602 253.341H482.738L486.352 242.909H488.534L482.977 257.909C482.727 258.585 482.417 259.145 482.048 259.588C481.679 260.037 481.25 260.369 480.761 260.585C480.278 260.801 479.733 260.909 479.125 260.909ZM490.37 256L495.689 249.352L490.439 242.909H492.825L497.189 248.5H498.279V242.909H500.291V248.5H501.348L505.711 242.909H508.098L502.882 249.352L508.166 256H505.745L501.314 250.375H500.291V256H498.279V250.375H497.257L492.791 256H490.37ZM515.99 256.273C514.728 256.273 513.64 255.994 512.725 255.438C511.816 254.875 511.115 254.091 510.62 253.085C510.132 252.074 509.887 250.898 509.887 249.557C509.887 248.216 510.132 247.034 510.62 246.011C511.115 244.983 511.802 244.182 512.683 243.608C513.569 243.028 514.603 242.739 515.785 242.739C516.467 242.739 517.14 242.852 517.805 243.08C518.47 243.307 519.075 243.676 519.62 244.188C520.166 244.693 520.6 245.364 520.924 246.199C521.248 247.034 521.41 248.062 521.41 249.284V250.136H511.319V248.398H519.365C519.365 247.659 519.217 247 518.922 246.42C518.632 245.841 518.217 245.384 517.677 245.048C517.143 244.713 516.512 244.545 515.785 244.545C514.984 244.545 514.291 244.744 513.706 245.142C513.126 245.534 512.68 246.045 512.368 246.676C512.055 247.307 511.899 247.983 511.899 248.705V249.864C511.899 250.852 512.069 251.69 512.41 252.378C512.757 253.06 513.237 253.58 513.85 253.938C514.464 254.29 515.177 254.466 515.99 254.466C516.518 254.466 516.995 254.392 517.422 254.244C517.853 254.091 518.225 253.864 518.538 253.562C518.85 253.256 519.092 252.875 519.262 252.42L521.206 252.966C521.001 253.625 520.657 254.205 520.174 254.705C519.691 255.199 519.095 255.585 518.385 255.864C517.674 256.136 516.876 256.273 515.99 256.273ZM527.095 251.091V250.989C527.106 249.903 527.22 249.04 527.436 248.398C527.652 247.756 527.958 247.236 528.356 246.838C528.754 246.44 529.231 246.074 529.788 245.739C530.123 245.534 530.424 245.293 530.691 245.014C530.958 244.73 531.169 244.403 531.322 244.034C531.481 243.665 531.561 243.256 531.561 242.807C531.561 242.25 531.43 241.767 531.169 241.358C530.907 240.949 530.558 240.634 530.12 240.412C529.683 240.19 529.197 240.08 528.663 240.08C528.197 240.08 527.748 240.176 527.316 240.369C526.885 240.562 526.524 240.866 526.234 241.281C525.944 241.696 525.777 242.239 525.731 242.909H523.583C523.629 241.943 523.879 241.116 524.333 240.429C524.794 239.741 525.399 239.216 526.149 238.852C526.904 238.489 527.743 238.307 528.663 238.307C529.663 238.307 530.532 238.506 531.271 238.903C532.015 239.301 532.589 239.847 532.993 240.54C533.402 241.233 533.606 242.023 533.606 242.909C533.606 243.534 533.51 244.099 533.316 244.605C533.129 245.111 532.856 245.562 532.498 245.96C532.146 246.358 531.72 246.71 531.22 247.017C530.72 247.33 530.319 247.659 530.018 248.006C529.717 248.347 529.498 248.753 529.362 249.224C529.225 249.696 529.152 250.284 529.14 250.989V251.091H527.095ZM528.186 256.136C527.765 256.136 527.404 255.986 527.103 255.685C526.802 255.384 526.652 255.023 526.652 254.602C526.652 254.182 526.802 253.821 527.103 253.52C527.404 253.219 527.765 253.068 528.186 253.068C528.606 253.068 528.967 253.219 529.268 253.52C529.569 253.821 529.72 254.182 529.72 254.602C529.72 254.881 529.649 255.136 529.507 255.369C529.37 255.602 529.186 255.79 528.953 255.932C528.725 256.068 528.47 256.136 528.186 256.136Z" fill="black"/>
</svg>
