<svg width="429" height="307" viewBox="0 0 429 307" fill="none" xmlns="http://www.w3.org/2000/svg">
<path d="M300.558 46.3664C302.079 44.0512 303.457 38.9374 303.262 34.1429C303.038 28.614 300.09 20.7422 299.15 14.7421C298.881 13.0193 296.394 11.5837 293.722 10.3237C289.399 8.28554 284.333 11.6503 280.502 13.1442C276.257 14.7995 271.605 18.3093 269.173 20.7223C266.695 23.1812 262.092 28.7027 260.705 34.3504C259.406 39.6341 262.004 44.0472 262.384 48.3077C262.779 52.7356 264.946 56.3351 266.139 60.6239C267.388 65.1165 269.445 70.3073 271.456 75.1338C272.92 79.2699 273.943 82.2854 274.957 83.7829C275.43 84.5945 275.819 85.5111 277.159 88.0742" stroke="#A6300A" stroke-width="2" stroke-linecap="round"/>
<path d="M303.816 47.5053C305.034 45.6518 308.407 42.5303 312.382 40.2997C315.71 38.4315 318.817 36.3511 323.556 34.4577C328.788 32.3672 332.96 34.6085 336.496 36.1007C340.231 37.6765 341.988 41.2011 343.345 46.2537C344.385 50.1262 341.698 53.3482 340.21 56.3816C337.983 60.9227 333.439 65.9477 329.731 67.522C325.876 69.1585 321.47 69.44 316.023 70.3619C311.15 71.1865 306.862 71.8588 303.653 73.4205C300.1 75.1494 296.369 76.6412 292.661 78.2154C288.953 79.7897 285.72 81.6613 283.526 84.2306C282.949 84.8577 282.263 85.3985 281.567 85.9475C280.871 86.4965 280.185 87.0373 278.779 87.1349" stroke="#A6300A" stroke-width="2" stroke-linecap="round"/>
<path d="M284.817 73.4929C286.361 74.1767 291.135 73.9986 295.352 71.923C301.709 68.7949 306.113 66.475 309.659 64.6291C313.65 62.5516 320.412 58.8863 325.51 56.0121C325.902 55.7911 324.795 55.3565 323.75 55.6664C317.949 57.3868 309.634 62.7002 304.664 65.6536C303.696 66.229 302.362 66.6347 302.494 66.4109C305.023 62.1249 310.952 62.645 323.121 58.3227C328.81 56.3018 331.805 54.3046 333.147 53.0235C333.863 52.3404 334.411 51.36 334.261 50.581C334.112 49.802 333.189 49.1954 331.948 49.0412C325.688 48.263 319.448 52.8248 315.544 54.9412C312.837 56.4085 310.019 56.9942 308.626 57.0859C307.249 57.1766 309.654 52.4584 312.526 48.8424C315.884 44.6142 322.22 46.0141 326.891 44.2408C328.021 43.8117 328.935 43.4159 328.988 43.6012C329.895 46.7439 324.353 48.3769 322.006 50.6849C321.856 50.8323 322.257 50.0437 321.957 49.997C318.108 49.3967 313.413 52.8651 307.776 55.3401C303.05 57.4149 300.291 59.6056 296.936 61.412C293.555 63.2326 291.122 65.939 289.962 66.6838C287.66 68.1612 295.643 63.6015 300.305 60.8265C304.675 58.2259 307.902 56.6346 309.871 55.4202C312.253 53.9514 302.238 59.2026 297.132 60.8698C291.891 62.581 288.655 65.6398 282.867 67.8501C281.552 68.3522 280.625 68.7158 279.883 68.5733C279.14 68.4309 278.599 67.7451 278.393 66.7785C277.465 62.4228 278.91 58.6156 282.611 52.7156C284.113 50.3218 286.041 49.2711 286.777 48.9133C289.676 47.5039 281.446 53.2318 277.327 55.6978C272.551 58.5575 270.111 59.8141 269.101 59.8266C265.205 59.875 274.301 53.9248 278.337 50.0677C282.629 45.9665 285.371 43.1728 287.537 40.9055C287.811 40.6187 286.624 40.2907 285.54 40.4093C280.875 40.9198 277.603 44.3575 272.699 46.9889C270.871 47.9702 276.713 43.1517 280.538 38.3443C285.538 32.0597 287.286 26.0543 287.081 24.0871C286.979 23.1012 286.494 22.1992 285.951 21.9974C280.131 19.8358 269.781 29.8643 267.016 31.748C264.264 33.6225 273.115 25.7659 275.612 23.2306C278.469 20.3292 280.568 17.9745 281.535 17.2635C285.808 14.1251 274.75 23.7957 269.975 26.4971C267.788 27.7349 266.423 29.3505 265.958 30.0512C263.889 33.1664 273.818 28.231 278.099 26.0367C280.502 24.8051 282.623 23.9916 283.474 23.7096C287.378 22.4166 278.747 31.4294 275.713 34.7738C273.497 37.2165 270.739 38.5257 270.008 39.3872C269.918 39.4932 270.259 38.2504 270.911 37.5021C273.496 34.5357 277.574 33.7028 281.084 32.1636C284.706 30.5751 287.77 30.378 288.4 30.9425C291.177 33.4284 284.349 37.1233 283.732 38.0548C283.513 38.3855 284.645 38.6697 285.614 38.4752C289.981 37.5987 293.363 35.0645 296.036 33.8013C300.042 31.9076 290.898 43.4191 286.895 46.4624C283.749 48.8548 280.758 53.761 278.534 57.6478C277.271 59.8566 284.211 55.0889 287.3 52.942C290.969 50.391 293.226 47.9835 294.503 47.816C297.943 47.3647 289.672 55.9531 287.09 59.1134C285.746 60.7588 284.13 62.3459 283.745 63.4349C282.584 66.719 291.88 59.1465 296.487 56.4798C299.76 54.5849 302.779 53.2588 303.98 53.2067C304.42 53.1875 303.888 54.6186 303.352 55.4428C301.301 58.5929 296.574 59.1662 292.722 61.4772C289.287 63.5381 286.099 65.9633 282.602 69.5034C281.133 70.9893 279.518 73.9369 279.079 75.3604C278.639 76.784 279.635 76.7774 280.797 76.5398C286.431 75.3885 291.065 72.6109 294.42 70.8046C297.666 69.0567 302.148 65.8933 306.21 63.5298C309.397 61.6753 316.234 58.1435 321.792 56.5732C325.635 55.4873 328.319 54.0168 329.595 53.8492C332.773 53.4322 325.831 60.3636 323.056 62.5514C319.801 65.1183 315.437 67.5548 311.729 69.1291C310.799 69.5241 309.882 69.9132 309.713 69.6521C307.971 66.9579 316.152 65.4005 319.789 63.4391C323.478 61.45 329.094 58.9026 333.207 56.2323C336.17 54.3083 338.211 52.1749 339.058 50.8937C339.339 50.4685 338.223 50.1599 337.33 50.239C332.126 50.6999 325.788 53.3257 321.079 54.9078C319.014 55.6011 316.821 55.7858 315.697 56.2239C311.768 57.7553 322.958 51.5061 327.427 49.2698C331.978 46.9925 334.049 43.7717 335.935 40.6648C336.3 40.063 335.209 39.5066 334.394 39.4668C330.629 39.2829 327.107 42.1745 323.025 45.3309C318.761 48.6284 314.619 49.9926 310.731 52.6103C306.541 55.4314 303.305 57.5799 300.253 59.9158C295.349 63.6689 290.819 66.4007 288.084 68.7797C285.012 71.4525 282.443 74.5766 279.175 78.2777C278.466 79.0805 277.29 78.8822 276.583 78.4273C275.875 77.9724 275.486 77.0558 276.044 75.4294C278.763 67.504 284.29 66.1564 287.522 63.2727C290.76 60.3835 292.836 58.7431 293.533 58.1941C295.679 56.5016 288.001 61.5447 284.149 63.8558C283.179 64.4382 282.224 64.7589 282.283 64.1515C282.791 58.8823 288.092 56.3165 293.558 49.2627C302.535 37.6781 306.351 29.5482 304.702 30.793C300.466 33.9906 294.883 35.3422 290.74 37.3116C286.625 39.2677 282.305 42.7801 279.748 43.6236C274.591 45.3245 286.644 35.6572 289.296 33.389C292.292 30.8271 295.179 28.2463 296.651 26.5245C299.189 23.5556 291.517 31.8084 285.68 35.1286C272.403 42.6806 267.02 44.7346 263.515 45.9767C251.705 50.1619 277.736 20.7604 277.168 22.3856C276.063 25.553 272.148 27.7547 268.561 29.9143C266.678 31.048 265.284 32.608 264.703 33.2328C262.031 36.1082 273.82 29.2338 278.339 27.1957C283.245 25.0715 286.944 23.4961 289.605 22.746C290.736 22.3125 291.422 21.7717 292.128 21.2145" stroke="#A6300A" stroke-width="2" stroke-linecap="round"/>
<path d="M266.996 203C266.996 260.438 207.898 307 134.996 307C62.0945 307 2.99609 260.438 2.99609 203C2.99609 145.562 68.6023 140 141.504 140C214.405 140 266.996 145.562 266.996 203Z" fill="#EA7C7C"/>
<path d="M266.996 203C266.996 260.438 207.898 307 134.996 307C62.0945 307 2.99609 260.438 2.99609 203C2.99609 145.562 68.6023 140 141.504 140C214.405 140 266.996 145.562 266.996 203Z" fill="#FF9822" fill-opacity="0.2"/>
<path d="M267.004 203.5C267.004 221.725 211.976 174 188.504 174C165.032 174 140.004 159.725 140.004 141.5C140.004 123.275 232.532 81 256.004 81C279.476 81 267.004 185.275 267.004 203.5Z" fill="#EE816A"/>
<path d="M3.3125 203.5C3.3125 221.725 58.3404 174 81.8125 174C105.285 174 130.312 159.725 130.312 141.5C130.312 123.275 37.7846 81 14.3125 81C-9.1596 81 3.3125 185.275 3.3125 203.5Z" fill="#EE816A"/>
<circle cx="73.5039" cy="216.5" r="8.5" fill="black"/>
<circle cx="200.504" cy="216.5" r="8.5" fill="black"/>
<path d="M146.006 242.5C148.17 249.658 145.162 253.243 137.506 250.5C126.003 253.5 129.006 247.194 129.006 242.5C129.006 237.806 132.811 234 137.506 234C142.2 234 146.006 237.806 146.006 242.5Z" fill="black"/>
<ellipse cx="71.5" cy="50.5" rx="71.5" ry="50.5" transform="matrix(-1 0 0 1 428.289 84)" fill="#D9D9D9"/>
<path d="M257.457 196.549C263.413 206.177 347.471 156.765 365.789 145.434C384.106 134.103 394.127 117.111 388.171 107.483C382.215 97.8543 362.537 99.2346 344.22 110.566C325.902 121.897 251.501 186.92 257.457 196.549Z" fill="#D9D9D9"/>
<path d="M327.057 116.273H328.318L331.284 123.517H331.386L334.352 116.273H335.614V125H334.625V118.369H334.54L331.812 125H330.858L328.131 118.369H328.045V125H327.057V116.273ZM340.255 125.136C339.664 125.136 339.146 124.996 338.7 124.714C338.257 124.433 337.91 124.04 337.66 123.534C337.413 123.028 337.289 122.437 337.289 121.761C337.289 121.08 337.413 120.484 337.66 119.976C337.91 119.467 338.257 119.072 338.7 118.791C339.146 118.51 339.664 118.369 340.255 118.369C340.846 118.369 341.363 118.51 341.806 118.791C342.252 119.072 342.599 119.467 342.846 119.976C343.096 120.484 343.221 121.08 343.221 121.761C343.221 122.437 343.096 123.028 342.846 123.534C342.599 124.04 342.252 124.433 341.806 124.714C341.363 124.996 340.846 125.136 340.255 125.136ZM340.255 124.233C340.704 124.233 341.074 124.118 341.363 123.888C341.653 123.658 341.868 123.355 342.007 122.98C342.146 122.605 342.216 122.199 342.216 121.761C342.216 121.324 342.146 120.916 342.007 120.538C341.868 120.161 341.653 119.855 341.363 119.622C341.074 119.389 340.704 119.273 340.255 119.273C339.806 119.273 339.437 119.389 339.147 119.622C338.858 119.855 338.643 120.161 338.504 120.538C338.365 120.916 338.295 121.324 338.295 121.761C338.295 122.199 338.365 122.605 338.504 122.98C338.643 123.355 338.858 123.658 339.147 123.888C339.437 124.118 339.806 124.233 340.255 124.233ZM344.078 125L346.737 121.676L344.112 118.455H345.305L347.487 121.25H348.032V118.455H349.038V121.25H349.566L351.748 118.455H352.941L350.333 121.676L352.975 125H351.765L349.549 122.188H349.038V125H348.032V122.188H347.521L345.288 125H344.078ZM356.887 125.136C356.257 125.136 355.713 124.997 355.255 124.719C354.801 124.438 354.45 124.045 354.203 123.543C353.958 123.037 353.836 122.449 353.836 121.778C353.836 121.108 353.958 120.517 354.203 120.006C354.45 119.491 354.794 119.091 355.234 118.804C355.677 118.514 356.194 118.369 356.785 118.369C357.126 118.369 357.463 118.426 357.795 118.54C358.127 118.653 358.43 118.838 358.703 119.094C358.975 119.347 359.193 119.682 359.355 120.099C359.517 120.517 359.598 121.031 359.598 121.642V122.068H354.552V121.199H358.575C358.575 120.83 358.501 120.5 358.353 120.21C358.208 119.92 358.001 119.692 357.731 119.524C357.464 119.357 357.149 119.273 356.785 119.273C356.385 119.273 356.038 119.372 355.745 119.571C355.456 119.767 355.233 120.023 355.076 120.338C354.92 120.653 354.842 120.991 354.842 121.352V121.932C354.842 122.426 354.927 122.845 355.098 123.189C355.271 123.53 355.511 123.79 355.818 123.969C356.125 124.145 356.481 124.233 356.887 124.233C357.152 124.233 357.39 124.196 357.603 124.122C357.819 124.045 358.005 123.932 358.162 123.781C358.318 123.628 358.439 123.437 358.524 123.21L359.495 123.483C359.393 123.812 359.221 124.102 358.98 124.352C358.738 124.599 358.44 124.793 358.085 124.932C357.73 125.068 357.331 125.136 356.887 125.136ZM360.518 119.392V118.455H365.836V119.392H363.689V125H362.683V119.392H360.518ZM326.92 140V133.455H332.068V140H331.062V134.392H327.926V140H326.92ZM333.905 142.455V133.455H334.876V134.494H334.996C335.07 134.381 335.172 134.236 335.303 134.06C335.436 133.881 335.626 133.722 335.874 133.582C336.124 133.44 336.462 133.369 336.888 133.369C337.439 133.369 337.925 133.507 338.345 133.783C338.766 134.058 339.094 134.449 339.33 134.955C339.565 135.46 339.683 136.057 339.683 136.744C339.683 137.438 339.565 138.038 339.33 138.547C339.094 139.053 338.767 139.445 338.349 139.723C337.932 139.999 337.45 140.136 336.905 140.136C336.484 140.136 336.148 140.067 335.895 139.928C335.642 139.786 335.447 139.625 335.311 139.446C335.175 139.264 335.07 139.114 334.996 138.994H334.911V142.455H333.905ZM334.893 136.727C334.893 137.222 334.966 137.658 335.111 138.036C335.256 138.411 335.467 138.705 335.746 138.918C336.024 139.128 336.365 139.233 336.768 139.233C337.189 139.233 337.54 139.122 337.821 138.901C338.105 138.676 338.318 138.375 338.46 137.997C338.605 137.616 338.678 137.193 338.678 136.727C338.678 136.267 338.607 135.852 338.464 135.483C338.325 135.111 338.114 134.817 337.83 134.601C337.548 134.382 337.195 134.273 336.768 134.273C336.359 134.273 336.016 134.376 335.737 134.584C335.459 134.788 335.249 135.075 335.107 135.445C334.964 135.811 334.893 136.239 334.893 136.727ZM343.962 140.136C343.331 140.136 342.787 139.997 342.33 139.719C341.875 139.438 341.524 139.045 341.277 138.543C341.033 138.037 340.911 137.449 340.911 136.778C340.911 136.108 341.033 135.517 341.277 135.006C341.524 134.491 341.868 134.091 342.308 133.804C342.751 133.514 343.268 133.369 343.859 133.369C344.2 133.369 344.537 133.426 344.869 133.54C345.202 133.653 345.504 133.838 345.777 134.094C346.05 134.347 346.267 134.682 346.429 135.099C346.591 135.517 346.672 136.031 346.672 136.642V137.068H341.626V136.199H345.649C345.649 135.83 345.575 135.5 345.428 135.21C345.283 134.92 345.075 134.692 344.805 134.524C344.538 134.357 344.223 134.273 343.859 134.273C343.459 134.273 343.112 134.372 342.82 134.571C342.53 134.767 342.307 135.023 342.151 135.338C341.994 135.653 341.916 135.991 341.916 136.352V136.932C341.916 137.426 342.001 137.845 342.172 138.189C342.345 138.53 342.585 138.79 342.892 138.969C343.199 139.145 343.555 139.233 343.962 139.233C344.226 139.233 344.464 139.196 344.678 139.122C344.893 139.045 345.08 138.932 345.236 138.781C345.392 138.628 345.513 138.437 345.598 138.21L346.57 138.483C346.467 138.812 346.295 139.102 346.054 139.352C345.813 139.599 345.514 139.793 345.159 139.932C344.804 140.068 344.405 140.136 343.962 140.136ZM348.202 140V133.455H349.207V136.301H349.872L352.224 133.455H353.52L350.878 136.608L353.554 140H352.259L350.111 137.239H349.207V140H348.202ZM354.647 142.455V133.455H355.619V134.494H355.738C355.812 134.381 355.914 134.236 356.045 134.06C356.178 133.881 356.369 133.722 356.616 133.582C356.866 133.44 357.204 133.369 357.63 133.369C358.181 133.369 358.667 133.507 359.087 133.783C359.508 134.058 359.836 134.449 360.072 134.955C360.308 135.46 360.425 136.057 360.425 136.744C360.425 137.438 360.308 138.038 360.072 138.547C359.836 139.053 359.509 139.445 359.092 139.723C358.674 139.999 358.192 140.136 357.647 140.136C357.227 140.136 356.89 140.067 356.637 139.928C356.384 139.786 356.19 139.625 356.053 139.446C355.917 139.264 355.812 139.114 355.738 138.994H355.653V142.455H354.647ZM355.636 136.727C355.636 137.222 355.708 137.658 355.853 138.036C355.998 138.411 356.21 138.705 356.488 138.918C356.766 139.128 357.107 139.233 357.511 139.233C357.931 139.233 358.282 139.122 358.563 138.901C358.847 138.676 359.06 138.375 359.202 137.997C359.347 137.616 359.42 137.193 359.42 136.727C359.42 136.267 359.349 135.852 359.207 135.483C359.067 135.111 358.856 134.817 358.572 134.601C358.29 134.382 357.937 134.273 357.511 134.273C357.102 134.273 356.758 134.376 356.479 134.584C356.201 134.788 355.991 135.075 355.849 135.445C355.707 135.811 355.636 136.239 355.636 136.727ZM363.886 140.153C363.471 140.153 363.094 140.075 362.756 139.919C362.418 139.76 362.15 139.531 361.951 139.233C361.752 138.932 361.653 138.568 361.653 138.142C361.653 137.767 361.727 137.463 361.874 137.23C362.022 136.994 362.219 136.81 362.467 136.676C362.714 136.543 362.987 136.443 363.285 136.378C363.586 136.31 363.888 136.256 364.192 136.216C364.59 136.165 364.913 136.126 365.16 136.101C365.41 136.072 365.592 136.026 365.705 135.96C365.822 135.895 365.88 135.781 365.88 135.619V135.585C365.88 135.165 365.765 134.838 365.535 134.605C365.308 134.372 364.962 134.256 364.499 134.256C364.019 134.256 363.643 134.361 363.37 134.571C363.097 134.781 362.906 135.006 362.795 135.244L361.84 134.903C362.011 134.506 362.238 134.196 362.522 133.974C362.809 133.75 363.121 133.594 363.46 133.506C363.8 133.415 364.136 133.369 364.465 133.369C364.675 133.369 364.917 133.395 365.19 133.446C365.465 133.494 365.731 133.595 365.987 133.749C366.245 133.902 366.46 134.134 366.63 134.443C366.8 134.753 366.886 135.168 366.886 135.688V140H365.88V139.114H365.829C365.761 139.256 365.647 139.408 365.488 139.57C365.329 139.732 365.117 139.869 364.853 139.983C364.589 140.097 364.266 140.153 363.886 140.153ZM364.039 139.25C364.437 139.25 364.772 139.172 365.045 139.016C365.32 138.859 365.528 138.658 365.667 138.411C365.809 138.163 365.88 137.903 365.88 137.631V136.71C365.837 136.761 365.744 136.808 365.599 136.851C365.457 136.891 365.292 136.926 365.104 136.957C364.92 136.986 364.739 137.011 364.563 137.034C364.39 137.054 364.249 137.071 364.141 137.085C363.88 137.119 363.636 137.175 363.408 137.251C363.184 137.325 363.002 137.437 362.863 137.588C362.727 137.736 362.658 137.937 362.658 138.193C362.658 138.543 362.788 138.807 363.046 138.986C363.308 139.162 363.638 139.25 364.039 139.25ZM367.831 134.392V133.455H373.149V134.392H371.001V140H369.995V134.392H367.831ZM375.621 138.517L378.775 133.455H379.934V140H378.928V134.938L375.792 140H374.616V133.455H375.621V138.517ZM381.776 133.455H382.782V139.062H385.253V133.455H386.259V139.062H388.73V133.455H389.736V140H381.776V133.455ZM392.442 135.824H394.317C395.084 135.824 395.671 136.018 396.077 136.408C396.483 136.797 396.686 137.29 396.686 137.886C396.686 138.278 396.596 138.635 396.414 138.956C396.232 139.274 395.965 139.528 395.613 139.719C395.26 139.906 394.828 140 394.317 140H391.573V133.455H392.578V139.062H394.317C394.715 139.062 395.042 138.957 395.297 138.747C395.553 138.537 395.681 138.267 395.681 137.938C395.681 137.591 395.553 137.308 395.297 137.089C395.042 136.871 394.715 136.761 394.317 136.761H392.442V135.824ZM327.568 157.455C327.398 157.455 327.246 157.44 327.112 157.412C326.979 157.386 326.886 157.361 326.835 157.335L327.091 156.449C327.335 156.511 327.551 156.534 327.739 156.517C327.926 156.5 328.092 156.416 328.237 156.266C328.385 156.118 328.52 155.878 328.642 155.545L328.83 155.034L326.409 148.455H327.5L329.307 153.67H329.375L331.182 148.455H332.273L329.494 155.955C329.369 156.293 329.214 156.572 329.03 156.794C328.845 157.018 328.631 157.185 328.386 157.293C328.145 157.401 327.872 157.455 327.568 157.455ZM333.191 155L335.85 151.676L333.225 148.455H334.418L336.6 151.25H337.146V148.455H338.151V151.25H338.68L340.862 148.455H342.055L339.447 151.676L342.089 155H340.879L338.663 152.188H338.151V155H337.146V152.188H336.634L334.401 155H333.191ZM346.001 155.136C345.37 155.136 344.826 154.997 344.369 154.719C343.914 154.438 343.563 154.045 343.316 153.543C343.072 153.037 342.95 152.449 342.95 151.778C342.95 151.108 343.072 150.517 343.316 150.006C343.563 149.491 343.907 149.091 344.347 148.804C344.79 148.514 345.308 148.369 345.898 148.369C346.239 148.369 346.576 148.426 346.908 148.54C347.241 148.653 347.543 148.838 347.816 149.094C348.089 149.347 348.306 149.682 348.468 150.099C348.63 150.517 348.711 151.031 348.711 151.642V152.068H343.665V151.199H347.688C347.688 150.83 347.614 150.5 347.467 150.21C347.322 149.92 347.114 149.692 346.844 149.524C346.577 149.357 346.262 149.273 345.898 149.273C345.498 149.273 345.151 149.372 344.859 149.571C344.569 149.767 344.346 150.023 344.19 150.338C344.033 150.653 343.955 150.991 343.955 151.352V151.932C343.955 152.426 344.04 152.845 344.211 153.189C344.384 153.53 344.624 153.79 344.931 153.969C345.238 154.145 345.594 154.233 346.001 154.233C346.265 154.233 346.504 154.196 346.717 154.122C346.933 154.045 347.119 153.932 347.275 153.781C347.431 153.628 347.552 153.437 347.637 153.21L348.609 153.483C348.506 153.812 348.335 154.102 348.093 154.352C347.852 154.599 347.553 154.793 347.198 154.932C346.843 155.068 346.444 155.136 346.001 155.136ZM351.553 152.545V152.494C351.559 151.952 351.616 151.52 351.724 151.199C351.832 150.878 351.985 150.618 352.184 150.419C352.383 150.22 352.621 150.037 352.9 149.869C353.067 149.767 353.218 149.646 353.352 149.507C353.485 149.365 353.59 149.202 353.667 149.017C353.746 148.832 353.786 148.628 353.786 148.403C353.786 148.125 353.721 147.884 353.59 147.679C353.46 147.474 353.285 147.317 353.066 147.206C352.847 147.095 352.604 147.04 352.337 147.04C352.104 147.04 351.88 147.088 351.664 147.185C351.448 147.281 351.268 147.433 351.123 147.641C350.978 147.848 350.894 148.119 350.871 148.455H349.798C349.82 147.972 349.945 147.558 350.173 147.214C350.403 146.871 350.705 146.608 351.08 146.426C351.458 146.244 351.877 146.153 352.337 146.153C352.837 146.153 353.272 146.253 353.641 146.452C354.013 146.651 354.3 146.923 354.502 147.27C354.707 147.616 354.809 148.011 354.809 148.455C354.809 148.767 354.761 149.05 354.664 149.303C354.57 149.555 354.434 149.781 354.255 149.98C354.079 150.179 353.866 150.355 353.616 150.509C353.366 150.665 353.165 150.83 353.015 151.003C352.864 151.173 352.755 151.376 352.687 151.612C352.619 151.848 352.582 152.142 352.576 152.494V152.545H351.553ZM352.099 155.068C351.888 155.068 351.708 154.993 351.558 154.842C351.407 154.692 351.332 154.511 351.332 154.301C351.332 154.091 351.407 153.911 351.558 153.76C351.708 153.609 351.888 153.534 352.099 153.534C352.309 153.534 352.489 153.609 352.64 153.76C352.79 153.911 352.866 154.091 352.866 154.301C352.866 154.44 352.83 154.568 352.759 154.685C352.691 154.801 352.599 154.895 352.482 154.966C352.369 155.034 352.241 155.068 352.099 155.068Z" fill="black"/>
</svg>
