<svg width="100" height="111" viewBox="0 0 100 111" fill="none" xmlns="http://www.w3.org/2000/svg">
<path d="M39.4676 48.4335C39.4676 44.006 38.9153 34.5067 37.7979 30.8702C36.683 27.2413 35.5675 22.7895 34.3121 18.4583C33.1782 14.5465 30.5458 11.6247 27.6249 7.43993C24.3997 2.81938 20.2347 1.29676 14.7987 1.00383C13.5029 0.934005 12.7022 1.83241 12.1372 2.53126C9.77522 5.45315 9.06983 9.91729 8.36262 13.2693C7.57032 17.0244 5.4375 21.3499 4.45827 24.9865C3.57995 28.2483 3.47905 34.9921 2.78438 42.3991C1.97073 51.0748 2.91829 57.6315 3.33677 66.4822C3.47905 74.5043 3.47905 89.6948 3.34095 97.9345C3.20285 106.174 2.92666 107.003 2.6421 109.53" stroke="#A6300A" stroke-width="2" stroke-linecap="round"/>
<path d="M41.1419 45.0861C42.5313 43.4206 44.7576 40.0812 47.963 35.7583C51.9779 30.3441 56.7426 26.69 60.3791 23.4762C63.4582 20.755 67.0705 18.873 72.6362 17.6092C83.5409 15.1331 87.1571 19.4086 90.5091 21.0867C92.449 22.0579 93.8611 23.6017 95.5308 24.8488C100.237 28.3637 98.8911 39.9807 98.0583 47.4421C97.5443 52.0476 93.6016 56.7866 91.9235 60.2766C89.8159 64.6601 85.5167 66.2775 82.1648 68.236C78.4294 70.4184 72.9626 71.5837 68.2213 72.8391C63.9321 73.9749 59.856 77.1578 52.3403 80.221C38.9047 85.697 35.3001 88.0381 31.9481 89.578C28.3575 91.2276 25.2568 93.8967 21.9048 96.1313C18.2336 98.5788 14.3765 101.429 11.0245 102.969C9.35481 103.94 7.67255 105.061 6.14094 106.313C5.43791 107.012 4.88553 107.84 4.31641 108.694" stroke="#A6300A" stroke-width="2" stroke-linecap="round"/>
<path d="M81.3131 53.4552C76.2998 55.4053 65.7794 59.8327 58.3139 64.1848C53.1784 67.1786 47.8688 68.788 42.1358 70.8846C37.8162 72.4642 33.3562 74.6467 27.3511 78.1325C23.4922 80.3726 19.6806 84.9578 16.7387 89.289C14.1849 93.0488 11.2944 94.4571 11.0098 95.2982C9.61848 99.4109 18.7934 88.0712 25.899 81.9406C37.798 71.6744 42.5124 69.9263 46.1489 66.997C49.5268 64.276 55.3344 60.1843 59.8162 56.3971C64.5864 52.3663 67.3529 51.5051 68.6125 51.6391C69.0484 51.6854 67.9388 53.1539 66.9595 53.8611C65.0914 55.2103 62.9087 55.1291 55.3009 57.3386C35.5368 63.0787 21.6223 69.0726 18.9817 70.6C12.5039 74.3471 9.62885 76.5967 7.95078 78.6891C7.46844 79.2905 8.48224 79.4005 9.46147 78.9862C14.2716 76.9511 18.7934 72.7217 22.7145 69.6459C25.7674 67.2512 29.9582 64.9046 33.7328 63.2265C38.0898 61.2896 41.6754 58.4936 45.7263 56.3929C51.6782 53.3063 55.9035 50.1242 59.4019 48.2955C60.0355 47.9643 60.6573 49.2538 60.6657 50.0949C60.7043 53.9684 52.0703 58.4434 46.7348 62.6491C41.9904 66.3888 38.6373 68.2357 37.9343 68.5202C31.4769 71.1339 49.4925 57.9245 52.9826 55.2798C57.0279 52.2142 65.0764 48.1825 70.6965 44.6799C75.9859 41.3833 77.1117 37.8378 80.4636 36.7205C81.3048 36.4401 82.1333 36.164 82.0078 36.2979C78.8161 39.7023 72.408 42.0058 66.2774 43.822C56.5703 46.6977 50.6642 49.5383 46.8645 50.3878C43.6885 51.0979 53.3927 44.5501 57.0292 41.8845C60.1023 39.6318 64.2729 37.2855 66.9428 35.1847C70.3461 32.5069 59.8539 40.3319 53.4429 44.2321C46.0653 48.7203 38.6792 52.317 32.0924 55.6773C27.9514 57.7899 25.2462 58.7531 24.4051 59.0335C21.6951 59.9368 30.7952 54.3089 35.1264 51.095C36.0972 50.3747 36.9383 49.8396 36.9509 49.6932C37.1797 47.0242 30.5608 52.8861 26.6481 55.2588C21.9945 58.0809 19.3876 59.0293 18.4084 59.3138C14.7657 60.3724 22.9949 52.635 30.9249 44.4204C32.7293 42.5512 33.5906 41.7547 33.6031 41.1898C33.6157 40.6249 32.7871 40.3487 31.5317 40.4826C25.8235 41.0915 19.9819 45.069 13.1231 48.1448C11.0619 49.0691 9.34429 49.8229 7.95078 50.2455C7.39609 50.4138 7.10965 49.2872 7.51976 48.308C9.50344 43.5715 15.4456 40.65 20.0614 37.4236C21.0502 36.7324 21.8733 35.8961 21.8859 35.7455C21.8985 35.5948 21.0699 36.1472 20.643 36.0175C20.2162 35.8878 20.2162 35.0592 20.4924 34.2181C21.7022 30.5337 24.3925 28.3553 25.2337 27.2379C26.9346 24.9785 18.559 30.004 15.2071 32.3852C14.4397 32.9303 13.5374 33.084 13.3867 32.6739C12.0353 28.9951 19.078 25.3004 21.3251 21.6639C24.3714 16.7343 27.1879 11.6164 27.1921 10.9133C27.2163 6.8508 22.4592 17.4499 18.8352 21.4965C17.9701 22.4625 17.4375 23.3085 17.8435 23.7353C20.6277 26.663 24.3925 21.9359 25.2337 21.5132C28.4818 19.8811 19.396 26.9408 13.4118 31.3934C7.88972 35.5021 3.20949 37.8295 2.08799 37.8337C-2.8248 37.852 10.1561 30.0375 16.0106 22.5176C19.1702 18.4591 20.7686 14.1356 20.777 10.9175C20.7849 7.85919 16.6006 16.6129 15.1987 19.9649C14.8566 20.7829 14.6422 21.6346 14.9142 22.4757C16.1904 26.4223 20.2078 26.9492 21.6013 27.782C22.9924 28.6133 22.727 31.1256 22.3127 33.3518C20.1022 45.2306 5.43576 57.6316 5.01311 58.887C4.87076 59.3098 5.97141 59.3138 6.81254 59.0376C10.8568 57.7097 14.8932 53.472 19.3625 50.12C24.2787 46.4329 28.0165 41.7547 31.0881 38.5367C33.2357 36.2867 26.0915 45.6214 20.6556 52.7313C17.5042 56.8531 15.2113 60.134 8.38599 70.1523C6.71184 72.6096 6.00489 74.3453 6.13043 75.199C6.25597 76.0527 7.36074 76.0527 8.20605 75.6384C13.2598 73.1616 19.6136 62.4273 23.6937 57.7906C24.9998 56.3063 27.1796 54.8613 28.5773 54.016C32.8648 51.4229 24.1331 63.1973 21.8985 66.9719C19.3499 71.2768 15.4958 77.961 12.8302 82.7357C12.3713 83.5577 12.1313 84.4054 11.989 85.2465C11.8468 86.0877 11.8468 86.9163 12.6753 87.0669C18.1802 88.0678 22.9781 81.3757 28.5647 76.7683C34.895 71.5476 40.8385 65.7583 45.0316 61.1426C45.9036 60.1827 46.4293 59.3306 46.5758 59.4561C49.7746 62.198 41.4411 70.1606 37.3945 76.58C28.9785 89.9306 22.7354 93.0678 21.6181 92.9339C18.1185 92.5145 23.2794 85.5604 24.811 81.3673C26.4062 77.0003 31.6321 74.9479 37.7669 71.324C43.271 68.0726 49.7436 65.4737 54.5184 62.8081C57.8717 60.9359 62.0467 60.4353 65.679 60.5651C66.3825 60.5902 66.2481 61.8079 65.9719 62.7872C65.3631 64.9456 64.0219 66.838 63.5992 67.9553C62.4962 70.8711 71.5209 62.9629 76.4128 59.883C82.0403 56.3399 84.9287 53.179 86.1883 53.1748C90.0188 53.1621 79.656 58.7447 77.1326 60.2889C74.3348 62.001 81.2964 54.3089 83.9537 50.8188C87.2603 46.4759 88.8372 42.3071 89.2641 41.0475C91.1195 35.5722 78.5512 48.6846 74.7682 51.9111C73.2639 53.1941 71.0103 56.2255 68.4953 58.8786C66.5444 60.9367 74.6008 52.635 77.2581 49.2831C80.8813 44.7127 85.4811 39.2439 87.5818 35.0592C88.1737 33.8802 89.3813 32.8329 89.5361 32.4019C90.3653 30.0936 82.7359 35.3103 73.3998 40.3236C66.639 43.954 62.9171 44.8012 60.5444 45.0858C57.2053 45.4862 64.8253 36.1974 69.4411 30.3179C72.4396 26.4984 74.6092 24.1705 75.8646 23.3294C76.2194 23.0917 76.2915 24.1454 76.0153 24.9866C74.8055 28.671 70.1818 32.7827 66.3988 36.0091C63.2304 38.7114 61.2348 41.4534 61.0842 41.1856C57.069 34.0475 73.178 31.7282 77.9528 28.3553C79.5918 27.1975 81.3048 26.3968 82.8364 26.3926C84.5059 26.3881 84.9371 29.1755 85.3556 30.8452C86.1765 34.1208 83.2716 37.5365 81.3215 40.8885C80.7607 41.7296 80.2084 42.5582 80.3381 42.7089C80.4678 42.8595 81.2964 42.3071 82.1501 40.9011" stroke="#A6300A" stroke-width="2" stroke-linecap="round"/>
</svg>
