<svg width="349" height="307" viewBox="0 0 349 307" fill="none" xmlns="http://www.w3.org/2000/svg">
<path d="M300.558 46.3664C302.079 44.0512 303.457 38.9374 303.262 34.1429C303.038 28.614 300.09 20.7422 299.15 14.7421C298.881 13.0193 296.394 11.5837 293.722 10.3237C289.399 8.28554 284.333 11.6503 280.502 13.1442C276.257 14.7995 271.605 18.3093 269.173 20.7223C266.695 23.1812 262.092 28.7027 260.705 34.3504C259.406 39.6341 262.004 44.0472 262.384 48.3077C262.779 52.7356 264.946 56.3351 266.139 60.6239C267.388 65.1165 269.445 70.3073 271.456 75.1338C272.92 79.2699 273.943 82.2854 274.957 83.7829C275.43 84.5945 275.819 85.5111 277.159 88.0742" stroke="#A6300A" stroke-width="2" stroke-linecap="round"/>
<path d="M303.816 47.5053C305.034 45.6518 308.407 42.5303 312.382 40.2997C315.71 38.4315 318.817 36.3511 323.556 34.4577C328.788 32.3672 332.96 34.6085 336.496 36.1007C340.231 37.6765 341.988 41.2011 343.345 46.2537C344.385 50.1262 341.698 53.3482 340.21 56.3816C337.983 60.9227 333.439 65.9477 329.731 67.522C325.876 69.1585 321.47 69.44 316.023 70.3619C311.15 71.1865 306.862 71.8588 303.653 73.4205C300.1 75.1494 296.369 76.6412 292.661 78.2154C288.953 79.7897 285.72 81.6613 283.526 84.2306C282.949 84.8577 282.263 85.3985 281.567 85.9475C280.871 86.4965 280.185 87.0373 278.779 87.1349" stroke="#A6300A" stroke-width="2" stroke-linecap="round"/>
<path d="M284.817 73.4929C286.361 74.1767 291.135 73.9986 295.352 71.923C301.709 68.7949 306.113 66.475 309.659 64.6291C313.65 62.5516 320.412 58.8863 325.51 56.0121C325.902 55.7911 324.795 55.3565 323.75 55.6664C317.949 57.3868 309.634 62.7002 304.664 65.6536C303.696 66.229 302.362 66.6347 302.494 66.4109C305.023 62.1249 310.952 62.645 323.121 58.3227C328.81 56.3018 331.805 54.3046 333.147 53.0235C333.863 52.3404 334.411 51.36 334.261 50.581C334.112 49.802 333.189 49.1954 331.948 49.0412C325.688 48.263 319.448 52.8248 315.544 54.9412C312.837 56.4085 310.019 56.9942 308.626 57.0859C307.249 57.1766 309.654 52.4584 312.526 48.8424C315.884 44.6142 322.22 46.0141 326.891 44.2408C328.021 43.8117 328.935 43.4159 328.988 43.6012C329.895 46.7439 324.353 48.3769 322.006 50.6849C321.856 50.8323 322.257 50.0437 321.957 49.997C318.108 49.3967 313.413 52.8651 307.776 55.3401C303.05 57.4149 300.291 59.6056 296.936 61.412C293.555 63.2326 291.122 65.939 289.962 66.6838C287.66 68.1612 295.643 63.6015 300.305 60.8265C304.675 58.2259 307.902 56.6346 309.871 55.4202C312.253 53.9514 302.238 59.2026 297.132 60.8698C291.891 62.581 288.655 65.6398 282.867 67.8501C281.552 68.3522 280.625 68.7158 279.883 68.5733C279.14 68.4309 278.599 67.7451 278.393 66.7785C277.465 62.4228 278.91 58.6156 282.611 52.7156C284.113 50.3218 286.041 49.2711 286.777 48.9133C289.676 47.5039 281.446 53.2318 277.327 55.6978C272.551 58.5575 270.111 59.8141 269.101 59.8266C265.205 59.875 274.301 53.9248 278.337 50.0677C282.629 45.9665 285.371 43.1728 287.537 40.9055C287.811 40.6187 286.624 40.2907 285.54 40.4093C280.875 40.9198 277.603 44.3575 272.699 46.9889C270.871 47.9702 276.713 43.1517 280.538 38.3443C285.538 32.0597 287.286 26.0543 287.081 24.0871C286.979 23.1012 286.494 22.1992 285.951 21.9974C280.131 19.8358 269.781 29.8643 267.016 31.748C264.264 33.6225 273.115 25.7659 275.612 23.2306C278.469 20.3292 280.568 17.9745 281.535 17.2635C285.808 14.1251 274.75 23.7957 269.975 26.4971C267.788 27.7349 266.423 29.3505 265.958 30.0512C263.889 33.1664 273.818 28.231 278.099 26.0367C280.502 24.8051 282.623 23.9916 283.474 23.7096C287.378 22.4166 278.747 31.4294 275.713 34.7738C273.497 37.2165 270.739 38.5257 270.008 39.3872C269.918 39.4932 270.259 38.2504 270.911 37.5021C273.496 34.5357 277.574 33.7028 281.084 32.1636C284.706 30.5751 287.77 30.378 288.4 30.9425C291.177 33.4284 284.349 37.1233 283.732 38.0548C283.513 38.3855 284.645 38.6697 285.614 38.4752C289.981 37.5987 293.363 35.0645 296.036 33.8013C300.042 31.9076 290.898 43.4191 286.895 46.4624C283.749 48.8548 280.758 53.761 278.534 57.6478C277.271 59.8566 284.211 55.0889 287.3 52.942C290.969 50.391 293.226 47.9835 294.503 47.816C297.943 47.3647 289.672 55.9531 287.09 59.1134C285.746 60.7588 284.13 62.3459 283.745 63.4349C282.584 66.719 291.88 59.1465 296.487 56.4798C299.76 54.5849 302.779 53.2588 303.98 53.2067C304.42 53.1875 303.888 54.6186 303.352 55.4428C301.301 58.5929 296.574 59.1662 292.722 61.4772C289.287 63.5381 286.099 65.9633 282.602 69.5034C281.133 70.9893 279.518 73.9369 279.079 75.3604C278.639 76.784 279.635 76.7774 280.797 76.5398C286.431 75.3885 291.065 72.6109 294.42 70.8046C297.666 69.0567 302.148 65.8933 306.21 63.5298C309.397 61.6753 316.234 58.1435 321.792 56.5732C325.635 55.4873 328.319 54.0168 329.595 53.8492C332.773 53.4322 325.831 60.3636 323.056 62.5514C319.801 65.1183 315.437 67.5548 311.729 69.1291C310.799 69.5241 309.882 69.9132 309.713 69.6521C307.971 66.9579 316.152 65.4005 319.789 63.4391C323.478 61.45 329.094 58.9026 333.207 56.2323C336.17 54.3083 338.211 52.1749 339.058 50.8937C339.339 50.4685 338.223 50.1599 337.33 50.239C332.126 50.6999 325.788 53.3257 321.079 54.9078C319.014 55.6011 316.821 55.7858 315.697 56.2239C311.768 57.7553 322.958 51.5061 327.427 49.2698C331.978 46.9925 334.049 43.7717 335.935 40.6648C336.3 40.063 335.209 39.5066 334.394 39.4668C330.629 39.2829 327.107 42.1745 323.025 45.3309C318.761 48.6284 314.619 49.9926 310.731 52.6103C306.541 55.4314 303.305 57.5799 300.253 59.9158C295.349 63.6689 290.819 66.4007 288.084 68.7797C285.012 71.4525 282.443 74.5766 279.175 78.2777C278.466 79.0805 277.29 78.8822 276.583 78.4273C275.875 77.9724 275.486 77.0558 276.044 75.4294C278.763 67.504 284.29 66.1564 287.522 63.2727C290.76 60.3835 292.836 58.7431 293.533 58.1941C295.679 56.5016 288.001 61.5447 284.149 63.8558C283.179 64.4382 282.224 64.7589 282.283 64.1515C282.791 58.8823 288.092 56.3165 293.558 49.2627C302.535 37.6781 306.351 29.5482 304.702 30.793C300.466 33.9906 294.883 35.3422 290.74 37.3116C286.625 39.2677 282.305 42.7801 279.748 43.6236C274.591 45.3245 286.644 35.6572 289.296 33.389C292.292 30.8271 295.179 28.2463 296.651 26.5245C299.189 23.5556 291.517 31.8084 285.68 35.1286C272.403 42.6806 267.02 44.7346 263.515 45.9767C251.705 50.1619 277.736 20.7604 277.168 22.3856C276.063 25.553 272.148 27.7547 268.561 29.9143C266.678 31.048 265.284 32.608 264.703 33.2328C262.031 36.1082 273.82 29.2338 278.339 27.1957C283.245 25.0715 286.944 23.4961 289.605 22.746C290.736 22.3125 291.422 21.7717 292.128 21.2145" stroke="#A6300A" stroke-width="2" stroke-linecap="round"/>
<path d="M266.996 203C266.996 260.438 207.898 307 134.996 307C62.0945 307 2.99609 260.438 2.99609 203C2.99609 145.562 68.6023 140 141.504 140C214.405 140 266.996 145.562 266.996 203Z" fill="#EA7C7C"/>
<path d="M266.996 203C266.996 260.438 207.898 307 134.996 307C62.0945 307 2.99609 260.438 2.99609 203C2.99609 145.562 68.6023 140 141.504 140C214.405 140 266.996 145.562 266.996 203Z" fill="#FF9822" fill-opacity="0.2"/>
<path d="M267.004 203.5C267.004 221.725 211.976 174 188.504 174C165.032 174 140.004 159.725 140.004 141.5C140.004 123.275 232.532 81 256.004 81C279.476 81 267.004 185.275 267.004 203.5Z" fill="#EE816A"/>
<path d="M3.3125 203.5C3.3125 221.725 58.3404 174 81.8125 174C105.285 174 130.312 159.725 130.312 141.5C130.312 123.275 37.7846 81 14.3125 81C-9.1596 81 3.3125 185.275 3.3125 203.5Z" fill="#EE816A"/>
<circle cx="73.5039" cy="216.5" r="8.5" fill="black"/>
<circle cx="200.504" cy="216.5" r="8.5" fill="black"/>
<path d="M146.006 242.5C148.17 249.658 145.162 253.243 137.506 250.5C126.003 253.5 129.006 247.194 129.006 242.5C129.006 237.806 132.811 234 137.506 234C142.2 234 146.006 237.806 146.006 242.5Z" fill="black"/>
</svg>
