<svg width="186" height="125" viewBox="0 0 186 125" fill="none" xmlns="http://www.w3.org/2000/svg">
<ellipse cx="71.5" cy="50.5" rx="71.5" ry="50.5" fill="#D9D9D9"/>
<path d="M170.832 112.549C164.876 122.177 80.818 72.7649 62.5003 61.4337C44.1827 50.1025 34.1617 33.1113 40.1178 23.4828C46.0739 13.8543 65.7518 15.2346 84.0694 26.5658C102.387 37.897 176.788 102.92 170.832 112.549Z" fill="#D9D9D9"/>
<path d="M37.5795 38.2102V37.2727H44.125V38.2102H41.3807V46H40.3239V38.2102H37.5795ZM46.489 41.8239H48.364C49.131 41.8239 49.7177 42.0185 50.1239 42.4077C50.5302 42.7969 50.7333 43.2898 50.7333 43.8864C50.7333 44.2784 50.6424 44.6349 50.4606 44.956C50.2788 45.2741 50.0117 45.5284 49.6594 45.7188C49.3072 45.9062 48.8754 46 48.364 46H45.6197V39.4545H46.6254V45.0625H48.364C48.7617 45.0625 49.0884 44.9574 49.3441 44.7472C49.5998 44.5369 49.7276 44.267 49.7276 43.9375C49.7276 43.5909 49.5998 43.3082 49.3441 43.0895C49.0884 42.8707 48.7617 42.7614 48.364 42.7614H46.489V41.8239ZM51.7731 46V39.4545H52.7788V46H51.7731ZM60.6538 46.1364C60.0401 46.1364 59.5117 45.9915 59.0685 45.7017C58.6254 45.4119 58.2844 45.0128 58.0458 44.5043C57.8072 43.9957 57.6879 43.4148 57.6879 42.7614C57.6879 42.0966 57.81 41.5099 58.0543 41.0014C58.3015 40.4901 58.6452 40.0909 59.0856 39.804C59.5288 39.5142 60.0458 39.3693 60.6367 39.3693C61.0969 39.3693 61.5117 39.4545 61.881 39.625C62.2504 39.7955 62.5529 40.0341 62.7887 40.3409C63.0245 40.6477 63.1708 41.0057 63.2276 41.4148H62.2219C62.1452 41.1165 61.9748 40.8523 61.7106 40.6222C61.4492 40.3892 61.0969 40.2727 60.6538 40.2727C60.2617 40.2727 59.918 40.375 59.6225 40.5795C59.3299 40.7812 59.1012 41.0668 58.9364 41.4361C58.7745 41.8026 58.6935 42.233 58.6935 42.7273C58.6935 43.233 58.7731 43.6733 58.9322 44.0483C59.0941 44.4233 59.3214 44.7145 59.614 44.9219C59.9094 45.1293 60.256 45.233 60.6538 45.233C60.9151 45.233 61.1523 45.1875 61.3654 45.0966C61.5785 45.0057 61.7589 44.875 61.9066 44.7045C62.0543 44.5341 62.1594 44.3295 62.2219 44.0909H63.2276C63.1708 44.4773 63.0302 44.8253 62.8058 45.1349C62.5842 45.4418 62.2901 45.6861 61.9237 45.8679C61.56 46.0469 61.1367 46.1364 60.6538 46.1364ZM64.1183 46V45.0625H64.3569C64.5529 45.0625 64.7163 45.0241 64.8469 44.9474C64.9776 44.8679 65.0827 44.7301 65.1623 44.5341C65.2447 44.3352 65.3072 44.0597 65.3498 43.7074C65.3952 43.3523 65.4279 42.9006 65.4478 42.3523L65.5671 39.4545H69.9308V46H68.9251V40.392H66.5217L66.4194 42.7273C66.3967 43.2642 66.3484 43.7372 66.2745 44.1463C66.2035 44.5526 66.0941 44.8935 65.9464 45.169C65.8015 45.4446 65.6083 45.652 65.3668 45.7912C65.1254 45.9304 64.8228 46 64.4592 46H64.1183ZM72.1893 48.4545C72.0188 48.4545 71.8668 48.4403 71.7333 48.4119C71.5998 48.3864 71.5075 48.3608 71.4563 48.3352L71.712 47.4489C71.9563 47.5114 72.1722 47.5341 72.3597 47.517C72.5472 47.5 72.7134 47.4162 72.8583 47.2656C73.006 47.1179 73.141 46.8778 73.2631 46.5455L73.4506 46.0341L71.0302 39.4545H72.1211L73.9279 44.6705H73.9961L75.8029 39.4545H76.8938L74.1154 46.9545C73.9904 47.2926 73.8356 47.5724 73.6509 47.794C73.4663 48.0185 73.2518 48.1847 73.0075 48.2926C72.766 48.4006 72.4933 48.4545 72.1893 48.4545ZM83.0675 39.4545V46H82.0618V39.4545H83.0675ZM82.6754 42.5739V43.5114C82.4482 43.5966 82.2223 43.6719 81.9979 43.7372C81.7734 43.7997 81.5376 43.8494 81.2905 43.8864C81.0433 43.9205 80.772 43.9375 80.4766 43.9375C79.7351 43.9375 79.1399 43.7372 78.6911 43.3366C78.245 42.9361 78.022 42.3352 78.022 41.5341V39.4375H79.0277V41.5341C79.0277 41.8693 79.0916 42.1449 79.2195 42.3608C79.3473 42.5767 79.5206 42.7372 79.7393 42.8423C79.9581 42.9474 80.2038 43 80.4766 43C80.9027 43 81.2876 42.9616 81.6314 42.8849C81.978 42.8054 82.326 42.7017 82.6754 42.5739ZM86.8388 46.1534C86.424 46.1534 86.0476 46.0753 85.7095 45.919C85.3714 45.7599 85.103 45.5312 84.9041 45.233C84.7053 44.9318 84.6058 44.5682 84.6058 44.142C84.6058 43.767 84.6797 43.4631 84.8274 43.2301C84.9751 42.9943 85.1726 42.8097 85.4197 42.6761C85.6669 42.5426 85.9396 42.4432 86.2379 42.3778C86.5391 42.3097 86.8416 42.2557 87.1456 42.2159C87.5433 42.1648 87.8658 42.1264 88.1129 42.1009C88.3629 42.0724 88.5447 42.0256 88.6584 41.9602C88.7749 41.8949 88.8331 41.7812 88.8331 41.6193V41.5852C88.8331 41.1648 88.718 40.8381 88.4879 40.6051C88.2607 40.3722 87.9155 40.2557 87.4524 40.2557C86.9723 40.2557 86.5959 40.3608 86.3232 40.571C86.0504 40.7812 85.8587 41.0057 85.7479 41.2443L84.7933 40.9034C84.9638 40.5057 85.1911 40.196 85.4751 39.9744C85.7621 39.75 86.0746 39.5937 86.4126 39.5057C86.7536 39.4148 87.0888 39.3693 87.4183 39.3693C87.6286 39.3693 87.87 39.3949 88.1428 39.446C88.4183 39.4943 88.6839 39.5952 88.9396 39.7486C89.1982 39.902 89.4126 40.1335 89.5831 40.4432C89.7536 40.7528 89.8388 41.1676 89.8388 41.6875V46H88.8331V45.1136H88.782C88.7138 45.2557 88.6001 45.4077 88.4411 45.5696C88.282 45.7315 88.0703 45.8693 87.8061 45.983C87.5419 46.0966 87.2195 46.1534 86.8388 46.1534ZM86.9922 45.25C87.3899 45.25 87.7251 45.1719 87.9979 45.0156C88.2734 44.8594 88.4808 44.6577 88.62 44.4105C88.7621 44.1634 88.8331 43.9034 88.8331 43.6307V42.7102C88.7905 42.7614 88.6967 42.8082 88.5518 42.8509C88.4098 42.8906 88.245 42.9261 88.0575 42.9574C87.8729 42.9858 87.6925 43.0114 87.5163 43.0341C87.343 43.054 87.2024 43.071 87.0945 43.0852C86.8331 43.1193 86.5888 43.1747 86.3615 43.2514C86.1371 43.3253 85.9553 43.4375 85.8161 43.5881C85.6797 43.7358 85.6115 43.9375 85.6115 44.1932C85.6115 44.5426 85.7408 44.8068 85.9993 44.9858C86.2607 45.1619 86.5916 45.25 86.9922 45.25ZM94.4187 46.1364C93.788 46.1364 93.244 45.9972 92.7866 45.7188C92.332 45.4375 91.9812 45.0455 91.734 44.5426C91.4897 44.0369 91.3675 43.4489 91.3675 42.7784C91.3675 42.108 91.4897 41.517 91.734 41.0057C91.9812 40.4915 92.3249 40.0909 92.7653 39.804C93.2085 39.5142 93.7255 39.3693 94.3164 39.3693C94.6573 39.3693 94.994 39.4261 95.3263 39.5398C95.6587 39.6534 95.9613 39.8381 96.234 40.0938C96.5067 40.3466 96.7241 40.6818 96.886 41.0994C97.0479 41.517 97.1289 42.0312 97.1289 42.642V43.0682H92.0835V42.1989H96.1062C96.1062 41.8295 96.0323 41.5 95.8846 41.2102C95.7397 40.9205 95.5323 40.6918 95.2624 40.5241C94.9954 40.3565 94.68 40.2727 94.3164 40.2727C93.9158 40.2727 93.5692 40.3722 93.2766 40.571C92.9869 40.767 92.7638 41.0227 92.6076 41.3381C92.4513 41.6534 92.3732 41.9915 92.3732 42.3523V42.9318C92.3732 43.4261 92.4585 43.8452 92.6289 44.1889C92.8022 44.5298 93.0423 44.7898 93.3491 44.9688C93.6559 45.1449 94.0124 45.233 94.4187 45.233C94.6829 45.233 94.9215 45.196 95.1346 45.1222C95.3505 45.0455 95.5366 44.9318 95.6928 44.7812C95.8491 44.6278 95.9698 44.4375 96.055 44.2102L97.0266 44.483C96.9244 44.8125 96.7525 45.1023 96.511 45.3523C96.2695 45.5994 95.9712 45.7926 95.6161 45.9318C95.261 46.0682 94.8619 46.1364 94.4187 46.1364ZM102.238 44.6364L104.522 39.4545H105.477L102.647 46H101.829L99.0508 39.4545H99.9883L102.238 44.6364ZM99.6644 39.4545V46H98.6587V39.4545H99.6644ZM104.812 46V39.4545H105.818V46H104.812ZM42.3011 57.267V58.2045H38.6875V57.267H42.3011ZM38.9261 54.4545V61H37.9205V54.4545H38.9261ZM43.0682 54.4545V61H42.0625V54.4545H43.0682ZM47.6491 61.1364C47.0185 61.1364 46.4744 60.9972 46.017 60.7188C45.5625 60.4375 45.2116 60.0455 44.9645 59.5426C44.7202 59.0369 44.598 58.4489 44.598 57.7784C44.598 57.108 44.7202 56.517 44.9645 56.0057C45.2116 55.4915 45.5554 55.0909 45.9957 54.804C46.4389 54.5142 46.956 54.3693 47.5469 54.3693C47.8878 54.3693 48.2244 54.4261 48.5568 54.5398C48.8892 54.6534 49.1918 54.8381 49.4645 55.0938C49.7372 55.3466 49.9545 55.6818 50.1165 56.0994C50.2784 56.517 50.3594 57.0312 50.3594 57.642V58.0682H45.3139V57.1989H49.3366C49.3366 56.8295 49.2628 56.5 49.1151 56.2102C48.9702 55.9205 48.7628 55.6918 48.4929 55.5241C48.2259 55.3565 47.9105 55.2727 47.5469 55.2727C47.1463 55.2727 46.7997 55.3722 46.5071 55.571C46.2173 55.767 45.9943 56.0227 45.8381 56.3381C45.6818 56.6534 45.6037 56.9915 45.6037 57.3523V57.9318C45.6037 58.4261 45.6889 58.8452 45.8594 59.1889C46.0327 59.5298 46.2727 59.7898 46.5795 59.9688C46.8864 60.1449 47.2429 60.233 47.6491 60.233C47.9134 60.233 48.152 60.196 48.3651 60.1222C48.581 60.0455 48.767 59.9318 48.9233 59.7812C49.0795 59.6278 49.2003 59.4375 49.2855 59.2102L50.2571 59.483C50.1548 59.8125 49.983 60.1023 49.7415 60.3523C49.5 60.5994 49.2017 60.7926 48.8466 60.9318C48.4915 61.0682 48.0923 61.1364 47.6491 61.1364ZM57.9233 61.1364C57.3324 61.1364 56.8139 60.9957 56.3679 60.7145C55.9247 60.4332 55.5781 60.0398 55.3281 59.5341C55.081 59.0284 54.9574 58.4375 54.9574 57.7614C54.9574 57.0795 55.081 56.4844 55.3281 55.9759C55.5781 55.4673 55.9247 55.0724 56.3679 54.7912C56.8139 54.5099 57.3324 54.3693 57.9233 54.3693C58.5142 54.3693 59.0313 54.5099 59.4744 54.7912C59.9205 55.0724 60.267 55.4673 60.5142 55.9759C60.7642 56.4844 60.8892 57.0795 60.8892 57.7614C60.8892 58.4375 60.7642 59.0284 60.5142 59.5341C60.267 60.0398 59.9205 60.4332 59.4744 60.7145C59.0313 60.9957 58.5142 61.1364 57.9233 61.1364ZM57.9233 60.233C58.3722 60.233 58.7415 60.1179 59.0312 59.8878C59.321 59.6577 59.5355 59.3551 59.6747 58.9801C59.8139 58.6051 59.8835 58.1989 59.8835 57.7614C59.8835 57.3239 59.8139 56.9162 59.6747 56.5384C59.5355 56.1605 59.321 55.8551 59.0312 55.6222C58.7415 55.3892 58.3722 55.2727 57.9233 55.2727C57.4744 55.2727 57.1051 55.3892 56.8153 55.6222C56.5256 55.8551 56.3111 56.1605 56.1719 56.5384C56.0327 56.9162 55.9631 57.3239 55.9631 57.7614C55.9631 58.1989 56.0327 58.6051 56.1719 58.9801C56.3111 59.3551 56.5256 59.6577 56.8153 59.8878C57.1051 60.1179 57.4744 60.233 57.9233 60.233ZM62.9048 54.4545L64.473 57.1307L66.0412 54.4545H67.2003L65.0866 57.7273L67.2003 61H66.0412L64.473 58.4602L62.9048 61H61.7457L63.8253 57.7273L61.7457 54.4545H62.9048ZM69.283 63.4545C69.1126 63.4545 68.9606 63.4403 68.8271 63.4119C68.6935 63.3864 68.6012 63.3608 68.5501 63.3352L68.8058 62.4489C69.0501 62.5114 69.266 62.5341 69.4535 62.517C69.641 62.5 69.8072 62.4162 69.9521 62.2656C70.0998 62.1179 70.2347 61.8778 70.3569 61.5455L70.5444 61.0341L68.1239 54.4545H69.2148L71.0217 59.6705H71.0898L72.8967 54.4545H73.9876L71.2092 61.9545C71.0842 62.2926 70.9293 62.5724 70.7447 62.794C70.56 63.0185 70.3455 63.1847 70.1012 63.2926C69.8597 63.4006 69.587 63.4545 69.283 63.4545ZM77.8249 61.1364C77.1942 61.1364 76.6502 60.9972 76.1928 60.7188C75.7383 60.4375 75.3874 60.0455 75.1403 59.5426C74.896 59.0369 74.7738 58.4489 74.7738 57.7784C74.7738 57.108 74.896 56.517 75.1403 56.0057C75.3874 55.4915 75.7312 55.0909 76.1715 54.804C76.6147 54.5142 77.1317 54.3693 77.7227 54.3693C78.0636 54.3693 78.4002 54.4261 78.7326 54.5398C79.065 54.6534 79.3675 54.8381 79.6403 55.0938C79.913 55.3466 80.1303 55.6818 80.2923 56.0994C80.4542 56.517 80.5352 57.0312 80.5352 57.642V58.0682H75.4897V57.1989H79.5124C79.5124 56.8295 79.4386 56.5 79.2908 56.2102C79.146 55.9205 78.9386 55.6918 78.6687 55.5241C78.4016 55.3565 78.0863 55.2727 77.7227 55.2727C77.3221 55.2727 76.9755 55.3722 76.6829 55.571C76.3931 55.767 76.1701 56.0227 76.0138 56.3381C75.8576 56.6534 75.7795 56.9915 75.7795 57.3523V57.9318C75.7795 58.4261 75.8647 58.8452 76.0352 59.1889C76.2085 59.5298 76.4485 59.7898 76.7553 59.9688C77.0621 60.1449 77.4187 60.233 77.8249 60.233C78.0891 60.233 78.3278 60.196 78.5408 60.1222C78.7567 60.0455 78.9428 59.9318 79.0991 59.7812C79.2553 59.6278 79.3761 59.4375 79.4613 59.2102L80.4329 59.483C80.3306 59.8125 80.1587 60.1023 79.9173 60.3523C79.6758 60.5994 79.3775 60.7926 79.0224 60.9318C78.6673 61.0682 78.2681 61.1364 77.8249 61.1364ZM81.4854 61V60.0625H81.7241C81.9201 60.0625 82.0835 60.0241 82.2141 59.9474C82.3448 59.8679 82.4499 59.7301 82.5295 59.5341C82.6119 59.3352 82.6744 59.0597 82.717 58.7074C82.7624 58.3523 82.7951 57.9006 82.815 57.3523L82.9343 54.4545H87.2979V61H86.2923V55.392H83.8888L83.7866 57.7273C83.7638 58.2642 83.7156 58.7372 83.6417 59.1463C83.5707 59.5526 83.4613 59.8935 83.3136 60.169C83.1687 60.4446 82.9755 60.652 82.734 60.7912C82.4925 60.9304 82.19 61 81.8263 61H81.4854ZM91.0692 61.1534C90.6545 61.1534 90.2781 61.0753 89.94 60.919C89.6019 60.7599 89.3335 60.5312 89.1346 60.233C88.9357 59.9318 88.8363 59.5682 88.8363 59.142C88.8363 58.767 88.9102 58.4631 89.0579 58.2301C89.2056 57.9943 89.4031 57.8097 89.6502 57.6761C89.8974 57.5426 90.1701 57.4432 90.4684 57.3778C90.7695 57.3097 91.0721 57.2557 91.3761 57.2159C91.7738 57.1648 92.0962 57.1264 92.3434 57.1009C92.5934 57.0724 92.7752 57.0256 92.8888 56.9602C93.0053 56.8949 93.0636 56.7812 93.0636 56.6193V56.5852C93.0636 56.1648 92.9485 55.8381 92.7184 55.6051C92.4911 55.3722 92.146 55.2557 91.6829 55.2557C91.2028 55.2557 90.8263 55.3608 90.5536 55.571C90.2809 55.7812 90.0891 56.0057 89.9783 56.2443L89.0238 55.9034C89.1942 55.5057 89.4215 55.196 89.7056 54.9744C89.9925 54.75 90.305 54.5937 90.6431 54.5057C90.984 54.4148 91.3192 54.3693 91.6488 54.3693C91.859 54.3693 92.1005 54.3949 92.3732 54.446C92.6488 54.4943 92.9144 54.5952 93.1701 54.7486C93.4286 54.902 93.6431 55.1335 93.8136 55.4432C93.984 55.7528 94.0692 56.1676 94.0692 56.6875V61H93.0636V60.1136H93.0124C92.9442 60.2557 92.8306 60.4077 92.6715 60.5696C92.5124 60.7315 92.3008 60.8693 92.0366 60.983C91.7724 61.0966 91.4499 61.1534 91.0692 61.1534ZM91.2227 60.25C91.6204 60.25 91.9556 60.1719 92.2283 60.0156C92.5039 59.8594 92.7113 59.6577 92.8505 59.4105C92.9925 59.1634 93.0636 58.9034 93.0636 58.6307V57.7102C93.021 57.7614 92.9272 57.8082 92.7823 57.8509C92.6403 57.8906 92.4755 57.9261 92.288 57.9574C92.1033 57.9858 91.9229 58.0114 91.7468 58.0341C91.5735 58.054 91.4329 58.071 91.3249 58.0852C91.0636 58.1193 90.8192 58.1747 90.592 58.2514C90.3675 58.3253 90.1857 58.4375 90.0465 58.5881C89.9102 58.7358 89.842 58.9375 89.842 59.1932C89.842 59.5426 89.9712 59.8068 90.2298 59.9858C90.4911 60.1619 90.8221 60.25 91.2227 60.25ZM97.2173 58.5455V58.4943C97.223 57.9517 97.2798 57.5199 97.3878 57.1989C97.4957 56.8778 97.6491 56.6179 97.848 56.419C98.0469 56.2202 98.2855 56.0369 98.5639 55.8693C98.7315 55.767 98.8821 55.6463 99.0156 55.5071C99.1491 55.3651 99.2543 55.2017 99.331 55.017C99.4105 54.8324 99.4503 54.6278 99.4503 54.4034C99.4503 54.125 99.3849 53.8835 99.2543 53.679C99.1236 53.4744 98.9489 53.3168 98.7301 53.206C98.5114 53.0952 98.2685 53.0398 98.0014 53.0398C97.7685 53.0398 97.544 53.0881 97.3281 53.1847C97.1122 53.2812 96.9318 53.4332 96.7869 53.6406C96.642 53.848 96.5582 54.1193 96.5355 54.4545H95.4616C95.4844 53.9716 95.6094 53.5582 95.8366 53.2145C96.0668 52.8707 96.3693 52.608 96.7443 52.4261C97.1222 52.2443 97.5412 52.1534 98.0014 52.1534C98.5014 52.1534 98.9361 52.2528 99.3054 52.4517C99.6776 52.6506 99.9645 52.9233 100.166 53.2699C100.371 53.6165 100.473 54.0114 100.473 54.4545C100.473 54.767 100.425 55.0497 100.328 55.3026C100.234 55.5554 100.098 55.7812 99.919 55.9801C99.7429 56.179 99.5298 56.3551 99.2798 56.5085C99.0298 56.6648 98.8295 56.8295 98.679 57.0028C98.5284 57.1733 98.419 57.3764 98.3509 57.6122C98.2827 57.848 98.2457 58.142 98.2401 58.4943V58.5455H97.2173ZM97.7628 61.0682C97.5526 61.0682 97.3722 60.9929 97.2216 60.8423C97.071 60.6918 96.9957 60.5114 96.9957 60.3011C96.9957 60.0909 97.071 59.9105 97.2216 59.7599C97.3722 59.6094 97.5526 59.5341 97.7628 59.5341C97.973 59.5341 98.1534 59.6094 98.304 59.7599C98.4545 59.9105 98.5298 60.0909 98.5298 60.3011C98.5298 60.4403 98.4943 60.5682 98.4233 60.6847C98.3551 60.8011 98.2628 60.8949 98.1463 60.9659C98.0327 61.0341 97.9048 61.0682 97.7628 61.0682Z" fill="black"/>
</svg>
