<svg width="149" height="144" viewBox="0 0 149 144" fill="none" xmlns="http://www.w3.org/2000/svg">
<path d="M67.7967 59.4036C68.6599 57.6643 69.4042 53.6796 69.2015 49.0614C68.9927 44.3037 67.9888 38.3452 66.0404 31.9262C63.5128 23.5996 61.8186 20.0156 59.8207 17.1413C58.8162 15.6961 56.45 14.5294 53.707 13.4764C49.8325 11.9889 46.1011 15.9149 42.6092 17.924C39.2443 19.8601 36.8831 22.5523 34.5205 26.0514C31.994 29.7932 25.4866 39.2271 22.9071 46.6084C21.4425 50.7992 23.4807 54.5267 24.5587 58.332C25.6474 62.1747 28.6279 66.1071 30.2714 70.6649C31.6493 74.486 33.2821 78.0783 34.3601 81.8835C35.4487 85.7263 38.6785 90.399 41.8809 96.2024C44.6516 101.223 44.966 105.367 45.9826 109.296C46.2347 110.36 46.6085 111.471 46.7406 112.475C46.8727 113.48 46.7518 114.345 46.6271 115.236" stroke="#A6300A" stroke-width="2" stroke-linecap="round"/>
<path d="M71.5486 63.1357C72.7802 60.6542 76.2515 56.1449 80.8539 52.5193C86.9527 47.7151 92.3079 45.7444 95.6826 43.3595C99.2448 40.8421 104.141 40.0875 108.889 38.7016C113.455 37.3688 117.744 37.7939 121.429 38.5297C126.645 39.5711 133.578 43.4663 137.431 47.0837C140.209 49.6918 140.64 54.4272 140.176 61.3305C138.919 80.0154 129.249 80.5417 126.391 82.8652C123.612 85.1239 120.301 87.313 116.554 89.1956C112.612 91.1765 107.227 93.5875 102.29 95.0431C97.7854 96.3715 92.8837 96.1302 88.5678 96.6464C84.7844 97.0989 80.0383 98.7808 74.6118 100.923C70.6049 102.504 67.8178 105.18 64.7046 107.377C61.5913 109.574 58.1051 111.572 54.4924 112.591C53.4897 112.72 52.5019 112.846 51.4992 112.974C50.4965 113.103 49.5087 113.229 47.3692 113.737" stroke="#A6300A" stroke-width="2" stroke-linecap="round"/>
<path d="M136.854 58.7954C136.578 60.4609 134.36 63.2479 131.008 66.3153C127.364 69.65 122.927 72.4543 119.291 75.2455C115.827 77.9039 108.716 79.9868 104.226 80.8321C100.657 81.504 97.5345 82.7822 92.6551 83.7614C91.4082 84.0117 90.2865 83.9037 90.2698 83.4894C90.0754 78.6779 98.6058 74.4462 103.222 69.6924C107.15 65.6467 110.892 61.6075 114.244 57.4144C115.604 55.7136 117.044 54.619 117.048 53.3636C117.05 52.8575 115.947 52.9368 115.106 53.351C111.273 55.2388 108.415 58.7786 103.54 61.9883C95.0237 67.5949 86.4199 75.1995 78.4312 81.5142C72.2158 86.4273 67.4045 90.5825 62.6632 93.1017C60.6771 94.157 59.0267 95.0602 58.1855 95.2024C55.145 95.7168 63.4708 90.616 66.5382 87.9587C70.1996 84.7869 74.6189 81.4096 80.3395 76.2498C84.2239 72.7462 89.6839 69.4078 93.4586 66.2023C97.996 62.349 99.7356 57.4144 101.414 55.8744C102.213 55.1409 97.819 60.168 93.0903 64.4824C88.1791 68.9633 77.5064 74.9317 65.7934 82.0415C58.6388 86.3843 55.1349 88.6408 52.0507 89.7623C48.4989 91.0539 55.9383 81.6942 58.5915 77.0952C61.8459 71.4537 58.1897 65.7755 56.9343 65.3528C53.8121 64.3017 51.5025 73.8269 45.51 80.8112C44.2733 82.2526 43.6855 83.05 43.4009 82.5102C40.8006 77.5773 45.895 71.383 49.6571 65.0934C52.3144 60.6507 55.1014 57.1382 58.1688 51.5642C59.6226 48.9224 61.2446 47.0865 61.8053 46.2454C63.7756 43.2899 55.6873 53.4724 51.921 59.1887C46.9506 66.7327 44.7986 69.9435 43.9575 70.7888C40.6033 74.1596 48.3891 59.6825 52.034 49.3463C53.3636 45.5758 53.1597 41.5208 52.4692 38.1731C52.2003 36.8692 50.3978 37.0348 49.134 37.5872C44.3338 39.6853 41.476 46.2077 38.1031 51.108C35.832 54.4076 33.9267 57.9417 32.6546 60.4651C30.3332 65.0695 38.6471 48.2164 40.321 44.5799C41.742 41.4927 43.0996 37.3361 45.4807 33.0049C45.9964 32.0669 46.1796 31.1929 46.46 31.1804C49.0187 31.0658 45.9118 37.0181 43.4093 41.479C39.735 48.0288 35.5922 48.4675 33.9225 49.1663C33.1349 49.496 32.2528 49.0366 31.5498 48.3419C26.7282 43.5777 30.2776 33.4192 31.667 31.4691C34.3651 27.6819 39.4673 26.1713 43.1038 23.7902C44.6181 22.7986 46.4558 22.5306 48.1255 22.1121C48.953 21.9047 49.7952 21.9698 50.222 23.2127C52.714 30.4688 48.7071 35.8966 46.4725 39.9474C43.5041 45.3283 42.564 49.5722 40.752 53.0623C38.5529 57.2979 37.2745 64.3359 35.588 70.4917C34.8382 73.2288 34.4707 75.5259 34.4665 76.5051C34.4534 79.5907 39.1995 70.2615 41.5722 65.9261C44.5489 60.4873 44.5057 56.3013 45.623 52.1166C46.8806 47.4063 47.8535 42.9102 51.7494 35.3902C52.6215 33.7069 52.8751 32.8668 53.1555 32.9924C57.1561 34.7837 53.4443 42.8767 51.7704 46.9233C50.3969 50.2435 47.05 61.4903 44.2379 69.5208C42.0306 75.824 40.6055 87.218 40.1871 90.5951C39.8267 93.5032 43.9366 83.6526 46.732 77.2332C49.5842 70.6834 52.5906 67.1815 55.1014 62.9968C57.8647 58.3914 59.8469 56.5691 61.2404 56.1464C64.9829 55.0113 61.2613 65.4742 60.0017 71.1738C56.6007 86.5632 53.7288 91.9551 52.8835 98.8055C52.6914 100.362 52.0549 101.731 52.1847 102.58C52.3144 103.43 53.143 103.706 53.846 103.296C57.4874 101.172 59.0016 95.3698 60.9642 91.0345C63.4391 85.5676 67.3543 75.6179 69.8944 68.0185C70.6219 65.8421 71.0117 63.8254 71.4302 63.8128C78.3959 63.6039 70.1831 75.7853 67.1199 86.9292C66.0698 90.7497 66.2746 93.1017 66.4085 94.219C66.9158 98.4513 74.9035 88.3897 82.6996 81.6983C88.7158 76.5347 93.0317 71.9354 98.1998 66.7589C99.8607 65.0953 95.8606 73.5591 93.2033 78.0283C90.3912 82.7579 86.6542 86.9502 83.9969 91.2814C81.611 95.1701 78.8371 98.115 76.3221 100.5C73.7708 102.92 79.6406 91.4697 84.6665 84.2092C88.205 79.0973 92.1948 75.8356 95.1366 72.199C97.8153 68.8878 101.686 68.0101 104.611 66.8928C105.826 66.4288 106.707 66.8802 107.134 68.8178C109.417 79.1783 104.782 83.887 104.205 86.833C102.251 96.7993 115.345 75.8356 120.098 70.6716C124.452 65.9427 131.514 60.7873 135.034 56.2971C135.614 55.5562 135.733 54.6274 135.461 54.4767C132.761 52.9817 129.623 61.8251 125.986 67.8427C122.089 74.2915 118.165 80.5475 117.747 81.3887C116.497 83.8997 120.383 73.0569 121.647 67.1857C122.71 62.2473 122.626 58.2597 122.212 55.05C122.073 53.9764 120.969 54.3261 120.266 54.8827C117.049 57.429 115.11 62.6788 112.035 68.3993C109.903 72.3639 108.122 75.5259 107.98 76.367C107.363 80.0098 113.403 67.7507 115.504 63.001C117.335 58.8597 118.718 55.1798 118.584 53.5059C118.528 52.8066 117.069 52.9368 115.947 53.351C109.643 55.6797 103.678 62.6788 100.455 65.4867C98.3616 67.3114 102.807 58.8121 104.904 53.2381C105.821 50.7986 106.163 48.4842 106.168 46.8103C106.169 46.1795 105.067 46.2412 104.088 46.7936C99.5106 49.3756 97.8023 52.92 95.0195 56.5482C93.1907 58.9325 91.9437 61.2978 90.9686 62.0009C89.8209 62.8284 90.2614 58.5275 90.2656 57.2679C90.2771 53.8178 85.8173 63.8003 83.298 68.5416C81.36 72.189 78.5693 77.1747 76.4602 81.3803C75.5944 83.1068 74.3679 85.2847 73.669 86.8246C72.4533 89.5036 75.1881 78.9155 75.8953 74.7099C76.1806 73.0133 76.5941 69.9769 76.456 67.1815C76.276 63.5367 71.0368 76.6223 65.3163 85.5441C61.6243 91.3023 58.4827 100.86 57.3444 105.66C56.7011 108.373 58.1814 98.9854 59.0141 94.8007C59.8611 90.5448 61.2446 87.2682 61.6672 83.0835C62.0944 78.8541 62.9185 74.9986 64.0358 69.8347C65.0392 65.197 66.2662 60.7706 67.9401 57.2679C69.0751 54.893 65.7306 65.4574 63.6299 70.0774C62.2127 73.1939 60.1398 75.8021 59.441 76.6474C55.8901 80.9424 60.4076 64.9553 60.5541 46.7308C60.5849 42.8994 60.1398 42.0732 59.5832 41.5083C59.0267 40.9433 58.1981 40.6672 57.2189 41.0773C52.6663 42.9839 51.5025 49.0031 49.678 52.9242C47.7058 57.1627 44.807 63.2312 43.2586 67.1523C42.9453 67.9457 43.1164 68.822 43.1164 68.8345C43.1164 71.348 44.5057 61.8921 44.9283 55.0542C45.5556 44.9058 45.351 30.9084 44.7944 28.8202C44.5311 27.8321 44.2379 27.0082 43.5432 27.6862C37.8829 33.21 37.2745 41.4706 35.1738 46.0822C34.4766 47.6126 33.3743 49.8233 32.8052 50.2711C31.9462 50.947 33.3409 46.2579 34.7427 42.906C35.4218 41.2822 35.5839 39.554 35.1696 39.1272C31.5679 35.4164 31.6837 47.6138 30.0098 51.945C29.3486 53.6558 29.4491 55.4392 29.3068 57.1089C29.1535 58.9077 30.8384 60.4609 31.6711 61.9925C32.0995 62.7803 33.0563 63.2479 33.7593 63.1182C35.3125 62.8316 36.4124 60.7538 37.6679 60.4693C41.4653 59.6085 36.4208 69.3743 35.7261 75.2288C35.4953 77.1746 35.5839 79.6688 36.4124 80.9493C37.241 82.2298 38.8982 82.2298 40.1661 81.9536C42.3688 81.4738 43.9449 80.0035 45.3384 79.5809C53.7493 77.0299 46.7403 103.145 47.7112 104.4C48.21 105.045 49.5106 104.827 50.3559 104.413C54.5223 102.371 57.8801 96.4746 61.5166 93.2607C66.1764 89.1425 71.5641 84.4644 72.8195 83.4936C75.8503 81.1498 74.9119 77.2165 76.5816 75.6849C77.3894 74.9439 78.2513 74.4295 78.6781 75.664C81.3684 83.4447 77.9918 86.4062 78.1257 87.1092C81.8836 83.9121 86.3362 80.5727 93.446 76.6641C94.9985 75.8188 95.8271 75.2664 98.3547 73.8604" stroke="#A6300A" stroke-width="2" stroke-linecap="round"/>
</svg>
