<svg width="115" height="98" viewBox="0 0 115 98" fill="none" xmlns="http://www.w3.org/2000/svg">
<path d="M55.9686 41.2027C55.9686 39.2609 55.4162 35.3608 54.2989 32.0088C53.1147 28.4562 50.3946 25.3175 47.7498 21.2708C45.4681 17.7796 42.8621 15.2741 39.9411 13.3115C35.9835 10.6523 31.9985 8.57857 22.8047 7.86298C18.2237 7.50643 14.9751 9.95116 11.485 12.1774C6.57481 15.3096 4.09482 19.7099 2.54647 22.7773C0.777019 26.2828 1.01487 31.1426 1.0065 40.0519C0.998948 48.087 14.3725 55.6818 18.0174 58.9082C21.3573 61.8647 26.9267 66.8466 30.8477 70.3451C33.9139 73.0807 36.9867 75.5006 40.0541 78.8526C43.4061 81.9284 47.2979 84.707 50.9344 87.2262C51.7755 87.787 52.6041 88.3393 53.4578 89.7454" stroke="#A6300A" stroke-width="2" stroke-linecap="round"/>
<path d="M58.4798 41.2024C58.2036 38.4238 57.6429 30.6569 59.1703 24.6184C60.6504 18.7668 69.0421 10.269 73.6704 7.03418C77.4338 4.40388 82.4499 3.27211 86.2245 1.87023C91.1214 0.0515306 97.5149 1.58148 102.541 2.00414C106.559 2.34206 109.525 3.81613 111.057 4.64889C116.888 7.8194 112.329 21.6514 108.851 28.7612C106.478 33.6144 102.855 37.5533 99.6407 42.8554C96.5636 47.9319 94.2006 52.6183 91.8279 56.9495C89.7187 60.7995 86.4003 63.7832 82.0691 67.5536C79.0974 70.1406 75.2354 71.6002 71.8835 73.8349C68.5315 76.0695 65.1921 77.7434 61.8402 79.6935C58.358 81.7193 55.7012 84.7068 53.4665 88.0587C52.3534 89.7284 51.2319 91.4107 50.2568 93.0804C49.8342 93.9215 49.558 94.7501 49.2734 96.4407" stroke="#A6300A" stroke-width="2" stroke-linecap="round"/>
<path d="M4.91406 37.0184C5.19025 35.3529 6.30339 32.0135 8.94813 27.9669C11.3484 24.2943 14.3883 21.1332 18.9873 16.6639C22.5284 13.2227 12.4633 29.1846 10.0822 33.5158C9.14658 35.2177 8.27021 37.2862 7.42908 39.2363C7.09425 40.0126 8.2451 40.634 9.08623 40.9186C9.92736 41.2031 10.7559 41.2031 11.8733 40.5127C19.9927 35.495 26.1055 26.1549 29.1729 23.3595C30.0499 22.5602 30.8426 21.4178 31.5456 21.2629C32.2487 21.1081 32.801 21.9367 32.8094 22.7778C32.8553 27.387 26.4235 34.1895 20.5565 43.9567C18.3654 47.6044 17.7528 50.4012 17.3301 51.5185C16.2765 54.3038 23.8625 45.6892 27.0805 41.7764C31.0396 36.9628 36.6845 33.7041 41.1663 30.1931C42.2037 29.3804 43.6646 28.6657 44.6522 28.6532C45.6398 28.6406 46.1922 29.4692 46.3386 30.4484C46.9945 34.8333 43.1457 40.3327 40.2164 46.6223C38.0088 51.3623 34.4917 55.4144 31.985 59.4611C31.3878 60.4252 31.1439 61.2731 31.4159 61.6999C31.6879 62.1267 32.5165 62.1267 33.0814 61.5744C36.2006 58.5245 38.3751 54.3264 40.3377 51.259C43.3405 46.5659 46.7529 42.0484 48.2845 40.3787C49.0255 39.5709 49.5399 38.709 49.8245 39.9394C51.8057 48.5052 47.8828 52.0667 46.4893 56.9461C45.7358 59.5844 43.9742 61.5576 43.9701 63.3696C43.9683 64.1273 45.0706 64.353 46.0499 64.2191C50.5633 63.6019 53.4401 58.7957 56.3778 56.8247C60.7755 53.8741 54.8629 66.5625 53.5991 71.1783C53.3367 72.1367 53.4568 72.9903 53.8711 73.279C56.5234 75.1276 60.1356 67.4497 63.9061 62.4239C66.4251 59.0661 68.2373 54.8955 70.0492 51.259C71.7257 47.8945 71.585 43.1783 71.7315 37.8679C71.8295 34.3149 67.7016 46.1913 65.3205 50.397C63.504 53.6055 61.5584 59.2979 59.0434 63.378C56.0039 68.309 62.931 49.8739 64.7472 44.7141C68.2315 34.8152 70.4635 26.4394 72.0035 21.9702C72.3935 20.8384 72.9744 19.7439 73.397 19.5891C73.8197 19.4342 74.0959 20.2628 73.962 21.242C73.3752 25.5328 70.7648 29.1846 66.4462 35.7379C63.5123 40.1898 61.5584 44.2496 58.7631 49.1416C57.0435 52.1507 65.4251 42.0736 69.2081 38.5626C72.2467 35.7425 77.6947 31.1933 81.9004 27.6823C85.7628 24.4579 88.6001 21.1248 89.9936 20.4218C90.5103 20.1611 90.8348 21.6521 90.7008 22.9117C89.7208 32.1306 79.7034 46.4424 77.5901 52.075C75.9554 56.432 86.3655 43.7307 89.9853 40.3829C96.5276 34.3322 98.0827 30.3396 99.4846 26.8495C101.15 22.7026 101.715 18.6224 102.138 15.2704C102.244 14.4247 102.552 13.6007 102.832 13.5882C106.432 13.427 98.9531 24.4308 94.7642 29.465C88.042 37.5438 83.6036 42.5757 71.221 55.2429C68.5609 57.964 67.7016 58.7622 66.9986 58.7748C66.2955 58.7873 65.7432 57.9588 65.7348 57.1176C65.6951 53.1257 70.179 50.1417 74.2298 46.7897C77.4443 44.1298 67.7184 57.3394 61.4287 65.4494C58.4523 69.2873 56.5284 71.3248 56.3861 71.8897C55.3372 76.0546 62.0773 61.34 66.1365 55.5902C70.6453 49.2036 71.585 45.4046 72.7024 41.358C72.9745 40.3723 73.2589 39.546 72.8488 39.1191C72.4387 38.6923 71.3339 38.6923 70.3505 38.9685C65.9938 40.1921 58.2609 49.7902 52.4943 55.1383C49.9526 57.4956 46.7864 62.1016 43.0201 65.4536C41.8653 66.4814 41.7396 65.4913 41.8777 64.6501C42.4995 60.863 46.46 51.0456 49.1256 43.1741C49.5113 42.0352 49.8245 41.2199 49.5525 41.0692C46.5155 39.3872 41.7731 49.8069 37.7055 54.5817C34.7908 58.0032 32.8178 61.2814 31.9808 61.0178C23.4714 58.3373 33.9225 45.9737 34.3452 39.1359C34.5109 36.4557 35.0441 32.8588 34.906 29.5068C34.6886 24.2315 25.8544 42.8603 24.0299 46.2122C21.8466 50.2232 19.4267 53.7489 18.5897 54.5901C15.4405 57.7551 20.816 42.8938 22.3434 36.625C23.477 31.9726 24.44 29.4943 24.4442 28.6532C24.4628 24.9135 18.3219 33.9385 16.2212 37.144C14.712 39.4468 12.7311 41.1948 12.0323 41.8978C9.34445 44.6017 14.3883 33.135 17.1795 25.3305C18.0752 22.826 18.5814 21.1248 18.5855 19.8694C18.5872 19.3633 17.485 19.4426 16.5057 20.5474C11.4113 26.2949 12.7311 32.5324 12.9989 42.1405C13.2122 49.7924 20.7993 51.5143 24.1512 54.3055C28.7199 58.1099 37.8227 54.8788 39.4966 57.4943C44.9349 65.9917 40.6181 75.5095 41.8693 76.903C42.4697 77.5716 43.3968 77.7441 44.2379 77.4721C48.1845 76.1958 50.6447 71.3499 54.1431 68.6926C54.9325 68.093 55.3985 67.1651 55.6831 67.5669C55.9677 67.9686 55.9677 69.6258 56.3819 70.6175C56.7962 71.6093 57.6248 71.8855 58.8802 72.0278C64.6092 72.6771 70.7146 66.8973 78.1216 61.4488C83.0652 57.8123 84.6916 53.774 87.6209 49.7274C90.3728 45.9258 92.2241 41.2199 93.4879 38.1399C94.6486 35.311 91.6884 44.5342 89.4538 48.5808C88.4258 50.4424 86.1144 52.9036 83.6036 54.8621C82.8897 55.4188 82.7499 54.0586 82.888 53.0752C83.4041 49.3997 85.8131 46.2415 87.7632 42.1949C89.8306 37.9048 92.5086 33.6874 95.0153 29.2265C98.5622 22.9143 98.928 16.9401 98.9322 16.099C98.9499 12.5379 91.1528 21.6521 84.0304 24.4559C78.3121 26.7069 72.1709 29.4692 68.254 31.1598C67.6765 31.4091 67.6849 29.7872 67.9611 28.6657C69.2439 23.4565 75.4685 18.3546 80.0842 15.2662C81.0251 14.6367 81.8962 14.1531 82.4611 14.2828C83.0261 14.4126 83.3023 15.2411 83.3064 16.0823C83.324 19.6129 79.9712 23.326 77.3181 26.9625C75.2995 29.7293 75.7781 32.8253 76.0501 33.5284C77.871 38.2347 82.7331 27.5442 88.1691 22.2547C92.7782 17.7698 98.6183 11.9436 102.962 8.29449C103.948 7.46591 105.046 6.35278 105.615 6.19794C108.171 5.50268 104.243 13.2827 102.703 17.4716C100.399 23.737 99.7733 28.3477 98.3798 31.5699C97.1307 34.4583 92.8016 32.8337 91.4081 32.4194C89.9695 31.9917 90.0062 29.4943 89.4496 28.6532C86.9784 24.9184 84.9929 39.5125 81.0927 46.7521C77.5857 53.262 75.2341 56.536 71.7482 60.4319C64.8303 68.1637 61.8346 69.3747 60.7173 69.7973C57.9415 70.8474 64.0358 60.2185 66.1449 55.4437C66.9253 53.677 67.9611 51.5394 67.9653 49.7232C67.9734 46.1784 61.5584 55.9668 59.4619 59.6034C56.1356 65.3729 52.3521 74.6642 50.2555 78.1542C49.7063 79.0685 49.5567 80.2382 49.0001 81.0835C48.4435 81.9288 47.615 82.4812 47.1881 81.9372C44.0925 77.9918 48.4352 73.0238 49.1298 69.3956C49.3416 68.2894 49.2721 66.8973 48.8578 66.1859C47.4343 63.7415 43.7148 60.2018 41.6057 56.2807C39.0341 51.4999 38.3918 43.4629 37.6972 37.4662C37.4246 35.1133 37.5549 31.5113 37.5549 30.7664C37.5549 25.8502 34.4917 39.5125 32.4035 42.8645C29.5254 47.4845 23.9127 52.6191 19.2969 56.674C18.3869 57.4735 17.485 57.6575 16.92 57.3855C16.3551 57.1134 16.0789 56.2849 16.0747 55.4437C16.0558 51.6499 23.829 35.2106 26.9508 25.3137C27.5115 23.5361 28.3485 20.857 27.9342 18.4801C27.223 14.3998 18.6232 28.3142 14.2711 33.6581C12.9519 35.2779 12.1704 37.01 11.4757 37.8512C9.5089 40.2327 9.09878 24.8325 9.65535 17.9152C9.65954 17.7603 9.38334 18.5889 8.96487 19.43C8.5464 20.2712 7.99402 21.0997 7.4249 21.9534" stroke="#A6300A" stroke-width="2" stroke-linecap="round"/>
</svg>
