<svg width="82" height="79" viewBox="0 0 82 79" fill="none" xmlns="http://www.w3.org/2000/svg">
<path d="M42.1126 29.4668C42.1126 26.6965 40.4554 21.6665 37.66 17.7663C34.4365 13.2688 27.6502 8.30887 23.5701 3.81029C22.3986 2.51869 19.5318 2.6846 16.6067 3.09889C11.8753 3.76901 9.48851 9.36341 7.1074 12.7154C4.46875 16.4299 2.50839 21.9176 1.80118 25.2695C1.08051 28.6852 0.265383 35.8276 2.20709 41.3096C4.02365 46.4382 8.61809 48.6998 11.2754 52.0518C14.0371 55.5354 17.8245 57.3538 21.1764 60.2831C24.6877 63.3516 29.2571 66.5602 33.5883 69.4895C37.0826 72.1426 39.5934 74.101 41.2631 74.7957C42.1042 75.2142 42.9328 75.7666 45.4604 77.1726" stroke="#A6300A" stroke-width="2" stroke-linecap="round"/>
<path d="M45.4609 28.6297C45.4609 26.4118 46.5657 21.9509 48.6622 17.9043C50.4181 14.5153 51.8719 11.0706 54.7929 6.88589C58.018 2.26534 62.7355 1.84749 66.5101 1.15283C70.4962 0.419247 73.9003 2.39987 77.8088 5.87738C80.8045 8.5427 80.328 12.711 80.7507 16.063C81.3834 21.0809 80.3448 27.776 78.1101 31.128C75.787 34.6127 72.2599 37.267 68.2133 41.029C64.5941 44.3937 61.3796 47.3103 59.5551 50.3777C57.5351 53.7737 55.2364 57.0691 53.0018 60.421C50.7672 63.773 49.0933 67.1124 48.6706 70.4644C48.5325 71.3055 48.2563 72.1341 47.976 72.9752C47.6956 73.8163 47.4194 74.6449 46.2979 75.4986" stroke="#A6300A" stroke-width="2" stroke-linecap="round"/>
<path d="M43.8512 60.783C45.5167 60.5068 49.4085 57.7366 51.7938 53.6857C55.3887 47.5807 57.7947 43.2239 59.7447 39.7339C61.9394 35.806 65.5782 29.0294 68.2607 23.8278C68.467 23.4277 67.3023 23.6729 66.5993 24.5057C62.6965 29.1287 58.6651 38.1353 56.1333 43.3327C55.6401 44.3453 54.7482 45.4167 54.7356 45.1573C54.4951 40.1869 59.7364 37.3653 67.5325 27.0709C71.1776 22.2578 72.5835 18.9442 73.0019 17.1364C73.2251 16.1724 73.1442 15.0524 72.5918 14.4833C72.0395 13.9142 70.9347 13.9142 69.8132 14.4665C64.1537 17.254 61.4437 24.4931 59.343 28.4058C57.8866 31.1185 55.853 33.1555 54.7398 33.9966C53.6386 34.8287 53.0576 29.565 53.4718 24.966C53.9563 19.5884 60.0209 17.2787 62.9502 13.232C63.6591 12.2528 64.2057 11.4201 64.3521 11.5456C66.8355 13.6742 63.1009 18.0821 62.4062 21.3002C62.3619 21.5057 62.2639 20.6264 61.9878 20.752C58.4411 22.3641 56.4221 27.8409 53.0701 33.0049C50.2603 37.3336 49.1574 40.6796 47.3454 44.0316C45.5191 47.4101 44.9727 51.0075 44.4119 52.2671C43.2995 54.7658 47.4668 46.5717 49.8395 41.6923C52.0632 37.1194 53.8861 34.0176 54.8654 31.921C56.0496 29.3854 50.5635 39.2736 47.2115 43.4708C43.771 47.779 42.7464 52.1123 39.1224 57.1381C38.2991 58.28 37.7247 59.0924 37.0259 59.3811C36.327 59.6699 35.4985 59.3937 34.7954 58.699C31.6275 55.5688 30.7446 51.5934 30.5982 44.63C30.5387 41.8047 31.5732 39.8678 31.9917 39.1648C33.6404 36.395 29.9077 45.7013 27.8195 50.0241C25.398 55.037 24.0491 57.4269 23.2121 57.9918C19.983 60.1715 24.3169 50.2041 25.5723 44.7639C26.9071 38.9796 27.6647 35.1391 28.2296 32.0549C28.3011 31.6647 27.129 32.0424 26.2879 32.737C22.6696 35.7253 21.8228 40.3951 19.1697 45.287C18.1803 47.1112 20.4167 39.8762 20.9733 33.7581C21.7009 25.7602 19.8644 19.7811 18.6131 18.2495C17.986 17.4819 17.0857 16.9941 16.5208 17.1238C10.4698 18.5133 7.32693 32.578 6.05059 35.6705C4.78042 38.7481 7.86257 27.322 8.55724 23.8319C9.35221 19.8379 9.81265 16.7179 10.2311 15.5922C12.0783 10.6233 8.14714 24.7777 5.64049 29.6571C4.49195 31.8928 4.23861 33.9924 4.23442 34.8336C4.21582 38.5733 9.80428 28.9959 12.177 24.8112C13.5087 22.4626 14.8343 20.6181 15.3909 19.915C17.9436 16.6906 15.6796 28.9624 14.9808 33.4233C14.4703 36.6816 12.8842 39.2903 12.7461 40.4118C12.7291 40.5499 12.3319 39.3238 12.4658 38.3404C12.9966 34.4422 15.9475 31.5067 18.0356 28.2929C20.1906 24.9762 22.643 23.1289 23.48 23.2545C27.1656 23.8073 23.4883 30.6447 23.4841 31.762C23.4827 32.1587 24.5847 31.7745 25.2878 31.0799C28.4557 27.9496 29.8909 23.9742 31.4309 21.4508C33.7395 17.668 32.4185 32.3102 30.7446 37.0515C29.4287 40.7787 29.6231 46.5215 29.8993 50.9908C30.0563 53.5306 33.2387 45.7348 34.6406 42.2447C36.3063 38.0978 36.8711 34.8461 37.8461 34.005C40.4729 31.739 38.2771 43.4583 37.8545 47.5175C37.6344 49.6308 37.1556 51.8445 37.4318 52.966C38.2648 56.3483 41.876 44.9146 44.2613 40.1565C45.9563 36.7753 47.7513 34.0092 48.7264 33.3062C49.084 33.0483 49.4252 34.5365 49.4294 35.5199C49.4454 39.2786 45.8096 42.3535 43.8595 46.4001C42.1206 50.0087 40.788 53.7862 39.8087 58.6656C39.3977 60.7136 39.6665 64.0639 40.0807 65.495C40.495 66.9262 41.3236 66.3738 42.1647 65.5369C46.2408 61.4811 48.5883 56.615 50.4003 53.2631C52.1536 50.0196 54.1623 44.9146 56.2589 40.7089C57.9038 37.4092 61.6781 30.7033 65.4611 26.3386C68.077 23.3205 69.5119 20.6181 70.4869 19.777C72.9139 17.6833 70.9179 27.2885 69.8006 30.6405C68.4897 34.5733 66.1808 39.0057 63.9462 42.3577C63.3855 43.1988 62.8331 44.0274 62.5485 43.9019C59.6132 42.6069 65.595 36.813 67.5576 33.1764C69.5479 29.4887 72.8429 24.2755 74.8139 19.7853C76.2341 16.55 76.7682 13.6463 76.7724 12.1105C76.7738 11.6009 75.6718 11.9557 74.9688 12.5123C70.8721 15.7555 67.0178 21.4299 63.9504 25.3384C62.6061 27.0514 60.8746 28.41 60.1758 29.3934C57.7329 32.831 63.6533 21.4634 66.1599 17.1406C68.7126 12.7383 68.6749 8.90923 68.5452 5.27689C68.5201 4.5734 67.3023 4.70777 66.5993 5.12206C63.3521 7.0356 61.9961 11.3866 60.3181 16.266C58.565 21.3634 55.853 24.7777 54.041 29.1005C52.0882 33.7593 50.5635 37.3319 49.2955 40.96C47.2582 46.7895 44.9727 51.5599 43.9935 55.05C42.8933 58.9709 42.4618 62.9926 41.763 67.8803C41.6114 68.9405 40.5201 69.4203 39.679 69.4287C38.8379 69.437 38.0093 68.8847 37.5825 67.2191C35.5024 59.1027 39.3819 54.9412 40.4992 50.7564C41.6186 46.5639 42.4535 44.0525 42.7339 43.2114C43.5982 40.6183 39.951 49.0491 38.0009 53.0957C37.5095 54.1155 36.8878 54.9077 36.6032 54.3679C34.1347 49.685 37.1556 44.63 37.8503 35.7333C38.9911 21.1222 37.7164 12.2319 37.0217 14.1778C35.2373 19.1763 31.3138 23.3716 28.9326 27.2927C26.5677 31.1872 24.886 36.4949 23.2121 38.604C19.8365 42.8573 24.6015 28.1589 25.5723 24.807C26.6688 21.0211 27.6647 17.2787 27.9492 15.0315C28.4399 11.1567 26.5599 22.2669 23.5051 28.2468C16.5565 41.8489 13.1855 46.5215 10.9383 49.4843C3.36641 59.4674 8.97571 20.6013 9.39418 22.271C10.2097 25.525 8.14714 29.5148 6.33515 33.2894C5.38392 35.271 5.07555 37.3402 4.93327 38.1814C4.27853 42.052 10.3567 29.8328 13.014 25.6481C15.9475 21.1788 18.1737 17.8311 19.9857 15.7429C20.6929 14.7595 20.9691 13.9309 21.2537 13.0772" stroke="#A6300A" stroke-width="2" stroke-linecap="round"/>
</svg>
